<?xml version="1.0" encoding="utf-8"?>
<!-- Generator: Adobe Illustrator 23.0.2, SVG Export Plug-In . SVG Version: 6.00 Build 0)  -->
<svg version="1.1" id="Layer_1" xmlns="http://www.w3.org/2000/svg" xmlns:xlink="http://www.w3.org/1999/xlink" x="0px" y="0px"
	 viewBox="0 0 365.35 278.22" style="enable-background:new 0 0 365.35 278.22;" xml:space="preserve">
<path d="M202.69,28.65c9.49-0.07,18.86,0.99,28.01,3.43c7.33,1.95,14.58,4.24,21.77,6.64c5.18,1.73,10.28,3.77,15.3,5.94
	c2.84,1.23,5.54,2.86,8.16,4.53c1.87,1.19,2.77,3.18,2.97,5.39c0.53,6.05,1.06,12.1,1.48,18.16c0.23,3.38-0.28,6.7-1.46,9.89
	c-1.1,2.97-3.33,4.64-6.32,5.3c-5.48,1.21-10.83,2.78-16.05,4.84c-0.95,0.37-1.56,0.78-1.86,1.88c-1.06,3.77-3.39,6.85-5.78,9.86
	c-1.26,1.59-2.63,3.11-4.02,4.59c-1.28,1.35-2.91,2.01-4.76,2.27c-4.1,0.57-8.18,5.58-7.67,9.86c0.67,5.71,1.55,11.41,2.66,17.05
	c0.59,3,2.03,5.82,2.71,8.8c0.53,2.34,0.64,4.82,0.64,7.23c-0.01,2.45-1.34,4.43-3.18,5.95c-2.27,1.88-4.67,3.61-6.98,5.45
	c-2.4,1.92-4.73,3.93-7.13,5.86c-4.03,3.25-7.25,7.21-10.17,11.42c-2.12,3.05-4.97,4.2-8.5,3.55c-5.18-0.95-10.33-2.08-15.5-3.08
	c-0.32-0.06-0.82,0.18-1.05,0.44c-2.57,2.88-5.56,5.18-9.21,6.49c-1.28,0.46-2.2,1.16-3.14,2.16c-1.83,1.95-4.42,2.46-6.99,2.75
	c-14.05,1.6-27.93,0.27-41.74-2.41c-5.18-1.01-10.34-2.05-15.3-3.95c-7.27-2.79-13.32-7.2-18.15-13.29
	c-3.94-4.97-7-10.38-8.74-16.52c-2.68-9.47-1.88-18.75,1.43-27.89c3.39-9.36,8.81-17.37,16.23-23.98
	c4.67-4.16,9.71-7.82,15.31-10.66c0.72-0.36,1.05-0.68,0.99-1.6c-0.25-3.59-0.53-7.19-0.46-10.78c0.12-5.75,2.23-10.92,5.33-15.68
	c5.08-7.8,11.33-14.58,18.44-20.53c6.88-5.76,14.69-9.9,23.18-12.76c7.44-2.5,14.99-4.6,22.82-5.41c5.56-0.58,11.14-0.97,16.71-1.44
	C202.67,28.45,202.68,28.55,202.69,28.65z M123.48,93.12c0.44-0.13,0.84-0.27,1.26-0.37c3.23-0.72,6.44-1.8,9.7-2.06
	c5.04-0.4,10.14-0.42,15.2-0.26c5.15,0.17,10.26,0.92,15.27,2.25c2.49,0.66,4.63,2.14,7.31,2.49c2.25,0.29,4.11,0.09,5.83-1.28
	c1.25-0.99,2.37-2.15,3.63-3.13c2.67-2.09,5.54-2.54,7.26,0.49c0.93,1.63,1.74,3.32,2.66,4.94c2.25,3.96,4.65,7.84,6.76,11.87
	c2.24,4.28,3.31,8.82,2.05,13.67c-0.68,2.64-2.09,4.69-4.76,5.56c-2.16,0.7-4.35,1.38-6.58,1.77c-7.75,1.37-15.53,2.58-23.3,3.9
	c-3.62,0.62-7.22,1.33-10.83,2.05c-0.44,0.09-0.95,0.34-1.22,0.68c-1.85,2.3-3.06,4.92-3.85,7.88c0.52,0.08,0.94,0.15,1.37,0.22
	c4.68,0.82,9.39,1.53,14.04,2.5c6.31,1.32,12.5,3.08,18.11,6.41c3.24,1.93,6.08,4.32,7.73,7.8c1.9,4,1.99,8.17,0.7,12.38
	c-0.45,1.47-0.97,2.91-1.5,4.47c0.75,0.13,1.41,0.24,2.08,0.35c2.2,0.37,4.41,0.71,6.6,1.12c1.45,0.27,2.89,0.64,4.33,0.97
	c0.97,0.22,1.67-0.03,2.23-0.92c0.66-1.04,1.46-2,2.19-3c4.49-6.08,10.32-10.77,16.18-15.41c2.16-1.71,4.36-3.36,6.54-5.04
	c1.08-0.84,1.53-1.98,1.32-3.28c-0.33-1.97-0.68-3.94-1.21-5.85c-0.69-2.5-1.84-4.89-2.32-7.42c-0.94-4.94-1.47-9.96-2.34-14.92
	c-0.72-4.09-0.24-7.9,2.07-11.36c2.4-3.6,5.33-6.7,9.74-7.64c1.89-0.41,3.18-1.28,4.29-2.71c2.7-3.5,5.7-6.79,6.71-11.34
	c0.32-1.43,1.18-2.85,2.74-3.46c2.27-0.89,4.53-1.83,6.86-2.54c4.16-1.27,8.36-2.41,12.56-3.53c1.12-0.3,1.64-0.95,1.97-1.99
	c0.93-2.93,0.86-5.92,0.61-8.92c-0.37-4.5-0.92-8.98-1.16-13.49c-0.1-1.8-0.72-2.84-2.4-3.33c-0.3-0.09-0.57-0.29-0.85-0.44
	c-2.65-1.37-5.2-3.06-7.98-4.06c-8.64-3.12-17.32-6.16-26.08-8.91c-9.11-2.87-18.49-4.47-28.06-4.76
	c-12.85-0.4-25.45,1.09-37.77,4.86c-6.92,2.12-13.56,4.84-19.58,8.89c-8.8,5.92-15.88,13.57-21.98,22.2
	C122.99,78.01,122.15,85.25,123.48,93.12z M184.59,97.38c-0.47,0.37-0.79,0.61-1.1,0.86c-0.25,0.2-0.49,0.41-0.73,0.62
	c-4.64,4.04-9.88,3.88-15.31,2.15c-1.89-0.6-3.68-1.58-5.59-2.07c-5.49-1.4-11.11-1.84-16.75-1.95c-5.36-0.1-10.71,0.08-15.94,1.5
	c-9.44,2.57-17.47,7.64-24.65,14.1c-6.63,5.96-11.36,13.25-14.3,21.7c-2.18,6.27-3.23,12.73-1.81,19.23
	c3.46,15.83,12.71,26.6,28.7,30.64c7.15,1.81,14.5,2.87,21.79,4.05c9.01,1.46,18.08,1.23,27.14,0.33c0.86-0.09,1.28-0.34,1.45-1.31
	c0.4-2.22,3.5-4.29,5.47-3.57c1.34,0.49,2.32,0.12,3.36-0.52c5.15-3.14,8.13-7.82,9.39-13.61c0.83-3.82-0.42-7.04-3.51-9.45
	c-1-0.78-2.09-1.48-3.22-2.08c-6-3.21-12.56-4.71-19.16-5.94c-4.48-0.83-9.01-1.36-13.52-1.99c-2.63-0.37-4.61-3.06-3.85-5.47
	c0.85-2.7,1.74-5.4,2.85-8c1.96-4.58,4.89-8.06,10.28-8.8c6.02-0.83,12.01-1.83,17.99-2.88c5.98-1.04,11.95-2.18,17.9-3.37
	c2.27-0.45,2.6-1.02,2.68-3.38c0.08-2.3-0.47-4.48-1.54-6.47C190.03,106.94,187.32,102.24,184.59,97.38z"/>
</svg>
