<?xml version="1.0" encoding="utf-8"?>
<!-- Generator: Adobe Illustrator 23.0.2, SVG Export Plug-In . SVG Version: 6.00 Build 0)  -->
<svg version="1.1" id="Layer_1" xmlns="http://www.w3.org/2000/svg" xmlns:xlink="http://www.w3.org/1999/xlink" x="0px" y="0px"
	 viewBox="0 0 595.28 841.89" style="enable-background:new 0 0 595.28 841.89;" xml:space="preserve">
<style type="text/css">
	.st0{fill:#FFFFFF;}
</style>
<g>
	<path class="st0" d="M552.21,712.71c-170.56,0-341.13,0-511.69,0c0-178.56,0-357.12,0-535.68c170.56,0,341.13,0,511.69,0
		C552.21,355.59,552.21,534.15,552.21,712.71z M183.62,342.27c0.12,0.16,0.24,0.31,0.36,0.47c-0.65,0.69-1.23,1.48-1.97,2.05
		c-4.64,3.57-9.34,7.05-13.95,10.66c-0.64,0.5-0.84,1.56-1.24,2.36c0.84-0.08,1.86,0.11,2.51-0.29
		c9.91-6.21,20.27-11.78,29.01-19.72c0.43-0.39,0.99-0.65,1.49-0.97c0.22,0.12,0.43,0.23,0.65,0.35c-2.04,6.67-4.09,13.34-6.13,20
		c-6.2-1.74-7.66-1.66-13.78,0.57c-1.57,0.57-3.14,1.18-4.75,1.62c-10.03,2.74-15.1,10.49-19.31,19.09
		c-0.39,0.8-0.36,1.81-0.47,2.73c-1.22,10.5,11.94,21.35,22.73,16.66c2.94-1.28,6.04-2.2,9.32-3.38c0.24,2.62,0.41,4.72,0.63,6.82
		c0.99,9.15,2.07,18.29,2.95,27.45c0.4,4.11,1.44,7.93,4.34,10.91c3.37,3.46,6.75,6.96,10.52,9.94c4.66,3.68,10,6.05,16.17,6
		c2.05-0.02,4.1,0.29,6.14,0.44c-2.4,1.93-4.79,3.27-7.15,4.65c-4.3,2.53-5.7,5.94-4.49,10.86c0.21,0.84,0.41,1.69,0.55,2.22
		c-3.73,0-7.3-0.45-10.71,0.09c-7.78,1.22-15.56,2.63-23.18,4.6c-2.84,0.73-5.81,2.75-7.68,5.04c-2.29,2.8-3.98,6.34-5.07,9.83
		c-4.75,15.27-8.72,30.75-10.92,46.64c-0.3,2.2-0.75,4.41-1.33,6.55c-2.46,9.05-4.97,18.09-7.54,27.12c-0.5,1.77-1.55,3.4-1.99,5.19
		c-0.96,3.91-1.45,7.95-2.57,11.81c-2.38,8.19-5,16.32-7.69,24.42c-0.27,0.81-1.64,1.68-2.58,1.76c-7.11,0.66-14.22,1.21-21.35,1.64
		c-4.16,0.25-8.35,0.1-12.51,0.33c-12.14,0.68-24.27,1.52-36.42,2.12c-2.06,0.1-1.97,1.03-1.91,2.46c0.1,2.11,0.51,4.33,0.03,6.32
		c-2.15,8.93-4.48,17.83-6.94,26.69c-1.27,4.56-3.16,8.95-4.39,13.52c-1.57,5.88,0.69,10.72,5.29,11.39
		c7.72,1.13,15.48,1.99,23.23,2.85c6.08,0.67,12.18,1.17,18.27,1.77c3.7,0.36,7.39,1.01,11.09,1.14c20.16,0.72,40.32,1.4,60.49,1.92
		c14.89,0.39,29.72,1.04,44.39,3.96c4.72,0.94,9.6,1.3,14.42,1.42c29.18,0.73,58.37,1.59,87.56,1.86
		c21.47,0.19,42.94-0.45,64.42-0.76c2.69-0.04,5.39-0.2,8.08-0.4c13.07-1.02,26.11-2.52,39.2-2.98c11.69-0.41,23.42,0.34,35.13,0.52
		c6.22,0.1,12.23-1.15,17.93-3.57c1.49-0.63,3.55-1.98,3.75-3.25c0.6-3.83,3.13-4.71,6.2-5.25c3.57-0.62,7.14-1.23,10.71-1.86
		c2.41-0.42,3.17-1.59,2.52-4.14c-3.59-14.1-8.58-27.68-14.72-40.85c-1.09-2.34-1.63-4.55-0.89-7.24c0.42-1.51-0.32-3.42-0.87-5.03
		c-0.07-0.21-2.18,0.3-3.35,0.44c-0.65,0.08-1.3,0.09-1.95,0.15c-2.96,0.28-5.93,0.48-8.88,0.87c-6.16,0.81-12.19,0.41-18.27-0.9
		c-4.97-1.07-10.11-2.32-15.11-2.11c-21.28,0.91-42.54,0.66-63.81-0.25c-2.49-0.11-5,0.22-7.49,0.08c-0.82-0.05-2.18-0.86-2.28-1.49
		c-0.72-4.4-1.6-8.83-1.63-13.27c-0.09-12.92,0.18-25.85,0.33-38.77c0.01-0.71,0.13-1.42,0.24-2.52c4.21,1.67,7.95,2.93,10.35,7.16
		c2.68,4.71,5.91,9.3,9.73,13.12c7.72,7.7,16.48,14.04,26.55,18.61c12.29,5.59,26.71,2.58,33.05-10.12
		c2.44-4.9,3.45-10.52,5.05-15.83c3.69-12.29,5.12-24.93,5.83-37.68c0.58-10.39,0.7-20.82,1.55-31.19c0.75-9.07,0.8-18-1.35-26.88
		c-0.32-1.34-0.48-2.77-0.42-4.14c0.32-8.44,0.68-16.89,1.13-25.32c0.17-3.21-0.05-3.51-3.29-3.18c-1.21,0.13-2.45,0.02-3.48,0.02
		c0.81-6.24,1.65-12.11,2.32-18c1.25-11.07,3.06-22.12,3.4-33.22c0.29-9.23-1.11-18.51-1.97-27.75c-0.12-1.28-1.41-2.44-2.16-3.66
		c-1.11,0.99-2.64,1.77-3.26,3.01c-1.95,3.9-3.56,7.96-5.3,11.96c-0.48,1.11-0.96,2.22-1.44,3.33c-0.31-0.05-0.63-0.1-0.94-0.15
		c-0.22-2.81-0.48-5.62-0.66-8.44c-0.2-3.24-0.1-6.52-0.57-9.72c-0.2-1.33-1.56-2.49-2.4-3.73c-1.09,0.98-2.77,1.76-3.16,2.97
		c-1.52,4.67-2.63,9.46-3.88,14.22c-0.59,2.24-1.12,4.49-1.68,6.73c-0.43-0.02-0.87-0.04-1.3-0.06c-0.34-2.3-0.74-4.6-1-6.91
		c-0.59-5.24-1.03-10.5-1.72-15.73c-0.14-1.03-1.15-1.95-1.76-2.92c-0.95,0.77-2.3,1.35-2.76,2.35c-1.27,2.76-2.41,5.62-3.14,8.56
		c-0.67,2.73-0.75,5.6-1.08,8.41c-0.68-0.77-0.98-1.54-0.96-2.31c0.09-4.81-2.36-8.73-4.51-12.71c-0.48-0.89-1.93-1.94-2.7-1.78
		c-0.83,0.17-1.8,1.6-1.99,2.62c-1,5.3-1.45,10.57-0.75,16.05c0.87,6.87,0.85,13.86,1.15,20.81c0.02,0.53-0.29,1.34-0.7,1.58
		c-3.25,1.92-7.7-0.06-9.3-3.51c-1.74-3.74-3.58-7.63-6.25-10.7c-3-3.46-6.82-2.18-7.82,2.29c-0.31,1.39,0.41,3.04,0.8,4.54
		c1.62,6.24,4.38,12.24,3.82,18.93c-0.1,1.2,0.05,2.41,0.07,3.62c0.08,4.65,2.45,7.9,6.38,10.07c3.41,1.88,6.9,3.64,10.37,5.41
		c5.2,2.65,8.31,10.52,6.36,16.53c-2.8-0.3-5.64-0.7-8.49-0.84c-0.99-0.05-2.29,0.26-2.92,0.92c-0.36,0.38,0.2,1.84,0.59,2.7
		c1.38,3.03,3.3,5.88,4.22,9.03c2.6,8.83,2.77,17.93,2.15,27.06c-0.27,3.99-0.59,7.97-0.75,11.96c-0.24,5.85-1.45,11.42-4.25,16.6
		c-2.54,4.68-5.89,6.26-10.87,4.5c-5.23-1.85-9.1-5.66-12.33-10.07c-2.46-3.37-4.38-7.24-7.28-10.17
		c-6.14-6.2-12.56-12.17-19.24-17.78c-8.46-7.11-17.68-12.54-29.52-9.28c-0.4,0.11-0.87-0.03-1.55-0.06
		c0.4-1.99,1.01-3.78,1.06-5.58c0.06-2.36,0.54-5.44-0.69-6.97c-3.31-4.09-6.25-8.95-12.06-10.23c-0.38-0.08-0.7-0.42-1.58-0.97
		c1.66-0.32,2.73-0.56,3.8-0.73c6.51-1.06,13.09-1.82,19.52-3.25c6.3-1.4,10.51-5.48,12.87-11.63c3.13-8.14,5.11-16.5,5.3-25.2
		c0.12-5.45-0.37-10.91-0.54-16.36c-0.06-2.05-0.01-4.11-0.01-5.58c3.47,0,6.4,0.22,9.3-0.05c5.13-0.47,9.57-2.83,13.77-5.69
		c4.41-3,5.95-8.31,3.91-13.25c-0.94-2.27-1.68-4.63-2.68-7.4c1.35,0.61,2.21,1.38,2.96,1.28c2.41-0.35,3.62,1.28,5.25,2.49
		c2.37,1.75,4.88,3.46,7.59,4.59c5.03,2.09,9.18-0.48,9.95-5.88c0.55-3.85-0.09-7.41-3.04-10.28c-1.58-1.54-1.25-2.65,0.78-3.5
		c1.63-0.68,3.26-1.41,4.73-2.36c5.09-3.25,5.67-8.62,1.56-13.01c-2.74-2.93-6.32-3.74-10.07-4.17c-2.31-0.27-4.63-0.45-6.93-0.77
		c-1.85-0.26-2.52-1.35-1.3-2.9c1.48-1.89,3.24-3.56,4.79-5.39c3.05-3.61,6.16-7.18,8.97-10.97c0.65-0.87,0.65-2.85,0.08-3.8
		c-0.47-0.78-2.29-1.2-3.4-1.05c-3.03,0.43-5.98,1.37-9,1.87c-2.73,0.45-5.52,0.86-8.27,0.79c-3.08-0.08-3.82-1.78-1.83-4.15
		c2.26-2.7,4.88-5.09,7.32-7.64c2.12-2.21,4.29-4.39,6.28-6.72c0.49-0.58,0.77-1.91,0.44-2.48c-0.33-0.57-1.55-0.83-2.38-0.83
		c-1.09,0-2.2,0.35-3.28,0.6c-5.34,1.24-10.67,2.57-16.03,3.73c-1.62,0.35-3.33,0.23-5,0.32c-0.1-0.28-0.19-0.57-0.29-0.85
		c2.01-2.74,4.55-4.93,7.45-6.79c0.61-0.39,0.8-1.45,1.19-2.19c-0.73-0.29-1.46-0.83-2.17-0.8c-1.66,0.07-3.31,0.54-4.97,0.65
		c-5.93,0.37-11.86,0.82-17.8,0.9c-3.69,0.05-7.19-1.06-9.9-3.81c-2.1-2.12-2.01-2.93,0.31-4.75c3.13-2.47,3.08-5.51-0.56-7.21
		c-2.24-1.05-4.96-1.2-7.49-1.44c-1.78-0.17-3.6,0.17-5.4,0.28c-0.09-0.23-0.18-0.47-0.27-0.7c1-0.72,2.02-1.43,3-2.18
		c1.62-1.23,3.4-2.33,4.78-3.79c1.96-2.06,1.49-4.07-1.21-4.92c-2.36-0.74-4.95-1.49-7.33-1.24c-5.05,0.53-10.03,1.71-15.04,2.63
		c-1.12,0.21-2.24,0.45-3.36,0.67c0.18-1.37,0.65-2.24,1.33-2.9c2.72-2.66,5.51-5.26,8.27-7.88c1.68-1.6,3.56-3.05,4.97-4.86
		c2.01-2.6,0.63-5.48-2.64-5.34c-2.44,0.1-5.05,0.65-7.22,1.74c-6.55,3.3-12.91,6.95-19.35,10.47c-0.99,0.54-1.97,1.08-2.96,1.63
		c1.36-3.53,3.17-6.53,4.76-9.64c0.92-1.8,2.04-4.22-0.11-5.5c-1.03-0.61-3.62,0.3-4.82,1.33c-4.58,3.92-8.89,8.17-13.31,12.28
		c-0.98,0.91-2.02,1.76-3.03,2.64c-0.28-0.09-0.55-0.18-0.83-0.27c-0.16-2.53-0.23-5.07-0.53-7.59c-0.11-0.91-0.56-2.26-1.2-2.51
		c-0.66-0.25-2.06,0.36-2.57,1.03c-1.43,1.9-2.74,3.94-3.76,6.09c-0.77,1.62-1.01,3.48-1.49,5.23c-0.28,0.11-0.57,0.22-0.85,0.33
		c-1.75-2.86-3.45-5.75-5.3-8.55c-0.47-0.72-1.43-1.11-2.17-1.66c-0.08,0.85-0.32,1.72-0.21,2.54c0.46,3.34,1.02,6.67,1.58,10.27
		c-3.48-0.35-6.36-0.99-9.2-0.84c-4.87,0.25-9.76,0.8-14.56,1.63c-1.31,0.23-2.37,1.9-3.55,2.92c1.35,0.6,2.66,1.46,4.08,1.74
		c2.29,0.46,4.65,0.55,6.99,0.79c0.01,0.25,0.02,0.5,0.04,0.75c-0.73,0.27-1.46,0.57-2.19,0.82c-5.7,1.94-11.59,3.45-17.05,5.93
		c-4.67,2.13-8.86,5.33-13.2,8.16c-0.56,0.37-0.71,1.36-1.05,2.07c0.8,0.34,1.63,1.02,2.38,0.95c2.3-0.23,4.58-0.74,6.86-1.15
		c1.75-0.32,3.49-0.66,5.23-0.99c0.1,0.24,0.19,0.48,0.29,0.73c-1.85,1.17-3.7,2.33-5.54,3.51c-9.33,6.01-17.7,12.99-22.98,23.03
		c-0.5,0.94-0.38,2.21-0.55,3.32c1.05-0.33,2.24-0.45,3.13-1.03c2.12-1.4,4.09-3.01,6.13-4.54c-1.71,4.41-3.87,8.37-5.57,12.52
		c-3.27,8-8.74,13.93-16.12,18.25c-5.43,3.18-11.16,5.52-17.43,6.38c-2.67,0.37-5.36,0.57-8.02,0.99c-0.78,0.12-1.48,0.76-2.22,1.16
		c0.68,0.45,1.32,1.18,2.05,1.3c4.22,0.7,8.47,1.2,12.69,1.86c6.36,1,12.4,0.03,18.19-2.75
		C182.13,342.83,182.88,342.57,183.62,342.27z M354.85,229.34c-0.25-0.13-0.51-0.26-0.76-0.39c0.2-1.04,0.3-2.1,0.62-3.1
		c0.84-2.66,1.56-5.38,2.73-7.9c1.06-2.27,0.48-5.74,4.13-6.43c0.03,0-0.21-1.41-0.33-2.16c-0.89,0.15-2.29-0.01-2.59,0.49
		c-1.18,1.98-2.25,4.09-2.93,6.29c-1.56,5.07-5.56,6.69-10.13,7.43c-3.57,0.58-6.27-1.07-8.26-4.03c-1.1-1.64-0.91-2.65,0.76-3.9
		c2.36-1.76,4.53-3.82,6.54-5.97c1.35-1.45,2.29-3.42,0.99-5.36c-1.76-2.63-4.64-3.64-7.56-3.26c-1.51,0.19-3.53,1.66-4.07,3.04
		c-0.99,2.52-1.46,5.42-1.37,8.14c0.09,2.94-1.01,4.31-3.69,4.82c-0.64,0.12-1.25,0.36-1.88,0.51c-8.67,2.14-14.97-3.77-13.43-12.61
		c0.17-1,0.54-2,0.54-3c0-0.5-0.55-1.28-1-1.42c-0.44-0.13-1.26,0.27-1.58,0.69c-0.48,0.65-0.58,1.57-1.01,2.27
		c-2.44,3.92-4.54,8.14-7.51,11.61c-3.21,3.76-6.59,2.7-7.89-2.05c-1.27-4.66-1.15-9.31,0.04-14.05c0.99-3.94,1.53-8.01,2.05-12.05
		c0.11-0.88-0.74-1.89-1.15-2.84c-0.64,0.76-1.63,1.42-1.86,2.29c-0.79,2.96-1.76,5.97-1.84,8.99c-0.24,8.4-5.06,14.38-10.14,20.22
		c-1.05,1.21-3.69,2.55-4.59,2.04c-1.61-0.91-3.25-3.08-3.48-4.9c-0.74-5.88,1.17-11.04,5.99-14.78c2.91-2.26,6.08-1.08,6.65,2.55
		c0.34,2.18,0.06,4.47,0.06,6.71c0.8-2.32,1.64-4.82,1.49-7.25c-0.25-3.93-4.19-6.14-7.75-4.78c-6.47,2.48-11.18,14.25-8.15,20.5
		c0.48,0.99,1.13,1.93,1.87,2.75c2.29,2.52,4.75,2.96,7.38,0.81c2.2-1.79,4-4.1,5.84-6.29c1.27-1.51,2.3-3.22,3.68-5.18
		c0.7,2.87,1.06,5.27,1.87,7.5c1.77,4.83,6.25,6.19,10.26,3c1.92-1.53,3.37-3.66,4.99-5.56c0.67-0.78,1.23-1.66,2.1-2.85
		c0.53,1.35,0.82,2.12,1.13,2.88c2.19,5.49,6.82,8.46,12.72,7.94c2.11-0.19,4.23-0.69,6.23-1.4c1.88-0.67,2.92-0.53,4.05,1.36
		c3.53,5.95,9.39,7.48,15.61,4.35c0.69-0.35,1.39-0.68,2.48-1.21c-0.36,1.93-0.85,3.37-0.83,4.8c0.02,1.08,0.45,2.83,1.12,3.06
		c0.95,0.32,2.65-0.12,3.37-0.87c1.72-1.79,2.88-4.13,4.6-5.92c3.19-3.32,6.44-6.64,10.03-9.5c2.35-1.87,4.49-0.78,4.59,2.23
		c0.1,2.92-0.27,5.93-0.96,8.78c-0.95,3.87-2.52,7.59-3.6,11.43c-1.16,4.1,1.16,6.57,5.22,5.34c2.52-0.77,4.8-2.36,7.14-3.66
		c1.06-0.58,2.01-1.34,3.32-2.23c0.15,4.69-1.19,9.37,3.49,11.82c4.26,2.23,7.98-0.81,11.89-2.04c0.05,7.55,0.05,7.55,2.53,8.3
		c0.09-0.25,0.31-0.53,0.27-0.75c-1.14-5.24,1.13-9.27,4.17-13.29c1.66-2.2,2.99-4.96,3.49-7.66c1.44-7.68-5.26-13.43-12.4-10.32
		c-4.19,1.82-8.04,4.92-11.37,8.14c-3.66,3.54-7.37,6.79-12.04,8.81c-0.81,0.35-2.05,0.3-2.83-0.09c-0.36-0.18-0.26-1.69-0.03-2.51
		c0.63-2.23,1.64-4.37,2.13-6.63c0.89-4.14,2.12-8.35,2.1-12.53c-0.02-6.13-4.26-8.21-9.15-4.42c-3.97,3.08-7.21,7.11-10.69,10.8
		C357,226.24,355.99,227.85,354.85,229.34z M129.47,244.42c-1.23-1.41-1.98-2.45-2.91-3.29c-2.88-2.6-5.68-5.31-8.79-7.6
		c-1.94-1.42-4.28-1.2-6.07,0.76c-3.16,3.45-4.19,11.72-2.06,15.89c1.5,2.93,4.01,4.32,7.12,4.73c4.45,0.59,8.29-0.67,11.31-4.07
		c0.53-0.6,0.79-1.44,1.29-2.38c1.48,1.73,2.23,2.66,3.04,3.55c4.31,4.75,9.62,4.67,12.97-0.78c2.6-4.23,4.25-9.04,6.3-13.6
		c0.43-0.95,0.71-1.96,1.14-3.14c5.22,5.76,10.21,7.43,15.41,5.44c6.49-2.48,7.18-8.33,8.04-14.59c4.31,4.61,7.85,9.68,14.64,9.09
		c6.81-0.59,9.86-5.52,12.18-11.32c0.98,0.6,1.68,1.02,2.38,1.45c6.3,3.85,12.8,1.01,14.16-6.23c0.25-1.36,0.34-2.78,0.29-4.16
		c-0.24-6.26-5.67-9.38-11.23-6.43c-1.53,0.81-2.91,1.92-4.52,3.01c-0.21-0.64-0.41-1.13-0.53-1.64
		c-1.36-5.69-2.69-11.38-4.08-17.06c-0.26-1.07-0.55-2.29-1.24-3.07c-0.77-0.87-2.04-1.83-3.06-1.8c-0.82,0.02-1.98,1.34-2.3,2.31
		c-0.49,1.45-0.57,3.11-0.48,4.67c0.43,7.91,2.8,15.31,6.17,22.43c0.83,1.74,2.07,3.74,1.84,5.44c-0.56,4.11-2.81,7.48-6.77,9.28
		c-3.47,1.57-6.97,1.12-9.6-1.49c-2.87-2.85-5.26-6.18-7.72-9.41c-2.3-3.02-4.18-6.38-6.66-9.24c-2.73-3.15-6.61-3.45-10.09-1.11
		c-4.09,2.75-7.28,6.42-9.29,10.9c-0.7,1.56-1.22,4.18-0.41,5.24c1.96,2.57,1.32,4.9,0.49,7.33c-1.44,4.22-2.92,8.43-4.68,12.51
		c-0.87,2.01-2.22,3.89-3.68,5.52c-1.73,1.93-3.96,1.81-6.09,0.46c-2.74-1.75-4.92-5.16-4.26-6.89c3.5-9.15,3.9-18.64,3.6-28.29
		c-0.2-6.5-0.08-13.02,0.12-19.52c0.05-1.61,0.99-3.2,1.53-4.79c1.42,0.76,2.83,1.52,4.26,2.25c0.1,0.05,0.31-0.1,0.59-0.2
		c-0.38-0.65-0.59-1.54-1.14-1.87c-1.37-0.83-2.98-2.05-4.32-1.87c-1.02,0.14-2.12,2.1-2.55,3.45c-0.55,1.73-0.62,3.67-0.64,5.51
		c-0.07,8.36,0.04,16.73-0.1,25.09C132.94,231.32,132,237.65,129.47,244.42z M440.48,263.51c-1.11,1.02-2.39,1.99-3.39,3.18
		c-0.85,1.01-2.1,3.19-1.94,3.31c1.82,1.44,2.86-0.43,3.83-1.42c5.15-5.23,9.97-10.79,15.27-15.86c9.46-9.06,17.01-19.4,22.41-31.32
		c1.75-3.86,2.96-7.86,2.42-12.15c-0.57-4.56-4.6-6.51-8.37-3.87c-1.78,1.24-3.56,2.91-4.52,4.8c-1.97,3.87-3.91,7.88-4.93,12.07
		c-3.07,12.57-9.33,23.41-17.01,33.58c-0.55,0.72-1.15,1.61-1.92,1.92C439.14,259.02,438.49,260.58,440.48,263.51z M269.85,211.49
		c-1.24,0.54-2.48,1.04-3.7,1.61c-4.1,1.91-8.34,3.19-12.93,2.64c-3.23-0.39-5.13-2.27-5.55-4.91c-0.58-3.65-1.26-7.29-2.18-10.87
		c-0.41-1.62-0.8-4.06-3.69-2.47c-0.31,0.17-1.02-0.26-1.49-0.5c-4.8-2.42-8.87-1.95-12.26,1.41c-4.22,4.19-5.4,9.59-3.14,14.18
		c0.98,1.99,1.95,4,2.82,6.05c2.6,6.16,7.2,7.55,12.63,3.55c1.84-1.35,3.31-3.22,4.92-4.87c0.49-0.5,0.91-1.07,1.34-1.58
		C254.59,220.52,266.31,218.59,269.85,211.49z M430.78,277.51c-3.47-0.32-5.79,1.52-7.3,4.25c-1.49,2.69-0.27,5.45,0.82,7.95
		c0.83,1.92,2.7,2.52,4.72,1.95c3.43-0.97,6.25-2.85,8.01-6.03c2.05-3.7,0.84-6.53-3.25-7.64
		C432.81,277.73,431.78,277.66,430.78,277.51z M321.06,193.98c-0.55-1.08-0.93-2-1.47-2.83c-0.28-0.44-0.82-0.71-1.24-1.06
		c-0.37,0.47-0.97,0.89-1.08,1.41C316.85,193.51,318.68,194.78,321.06,193.98z"/>
	<path d="M183.62,342.27c-0.74,0.3-1.49,0.56-2.2,0.9c-5.78,2.77-11.82,3.75-18.19,2.75c-4.22-0.67-8.47-1.17-12.69-1.86
		c-0.74-0.12-1.37-0.85-2.05-1.3c0.74-0.4,1.44-1.03,2.22-1.16c2.66-0.42,5.35-0.63,8.02-0.99c6.27-0.86,12-3.21,17.43-6.38
		c7.38-4.32,12.85-10.25,16.12-18.25c1.7-4.15,3.86-8.11,5.57-12.52c-2.03,1.53-4.01,3.14-6.13,4.54c-0.88,0.58-2.07,0.7-3.13,1.03
		c0.17-1.12,0.05-2.38,0.55-3.32c5.28-10.03,13.65-17.01,22.98-23.03c1.84-1.18,3.69-2.34,5.54-3.51c-0.1-0.24-0.19-0.48-0.29-0.73
		c-1.74,0.33-3.49,0.68-5.23,0.99c-2.28,0.42-4.56,0.93-6.86,1.15c-0.76,0.07-1.59-0.61-2.38-0.95c0.34-0.7,0.49-1.7,1.05-2.07
		c4.33-2.83,8.52-6.03,13.2-8.16c5.45-2.48,11.35-3.99,17.05-5.93c0.74-0.25,1.46-0.55,2.19-0.82c-0.01-0.25-0.02-0.5-0.04-0.75
		c-2.33-0.25-4.7-0.33-6.99-0.79c-1.42-0.29-2.72-1.14-4.08-1.74c1.18-1.01,2.24-2.69,3.55-2.92c4.81-0.83,9.69-1.38,14.56-1.63
		c2.84-0.14,5.71,0.49,9.2,0.84c-0.57-3.6-1.13-6.93-1.58-10.27c-0.11-0.82,0.13-1.69,0.21-2.54c0.74,0.54,1.69,0.94,2.17,1.66
		c1.85,2.79,3.55,5.69,5.3,8.55c0.28-0.11,0.57-0.22,0.85-0.33c0.48-1.75,0.72-3.62,1.49-5.23c1.02-2.15,2.33-4.19,3.76-6.09
		c0.5-0.67,1.91-1.28,2.57-1.03c0.64,0.24,1.09,1.59,1.2,2.51c0.3,2.52,0.37,5.06,0.53,7.59c0.28,0.09,0.55,0.18,0.83,0.27
		c1.01-0.88,2.05-1.73,3.03-2.64c4.42-4.11,8.72-8.36,13.31-12.28c1.2-1.03,3.8-1.94,4.82-1.33c2.15,1.27,1.03,3.69,0.11,5.5
		c-1.59,3.11-3.4,6.11-4.76,9.64c0.99-0.54,1.97-1.09,2.96-1.63c6.44-3.52,12.8-7.17,19.35-10.47c2.16-1.09,4.78-1.64,7.22-1.74
		c3.28-0.13,4.66,2.74,2.64,5.34c-1.41,1.81-3.29,3.26-4.97,4.86c-2.76,2.63-5.55,5.22-8.27,7.88c-0.68,0.66-1.15,1.54-1.33,2.9
		c1.12-0.22,2.24-0.46,3.36-0.67c5.01-0.92,9.99-2.1,15.04-2.63c2.38-0.25,4.98,0.5,7.33,1.24c2.7,0.85,3.17,2.86,1.21,4.92
		c-1.39,1.46-3.16,2.55-4.78,3.79c-0.98,0.75-2,1.45-3,2.18c0.09,0.23,0.18,0.47,0.27,0.7c1.8-0.11,3.63-0.45,5.4-0.28
		c2.53,0.25,5.25,0.4,7.49,1.44c3.64,1.7,3.69,4.74,0.56,7.21c-2.32,1.82-2.41,2.63-0.31,4.75c2.71,2.74,6.22,3.86,9.9,3.81
		c5.94-0.08,11.87-0.53,17.8-0.9c1.66-0.1,3.31-0.57,4.97-0.65c0.71-0.03,1.45,0.52,2.17,0.8c-0.38,0.75-0.57,1.8-1.19,2.19
		c-2.9,1.87-5.44,4.05-7.45,6.79c0.1,0.28,0.19,0.57,0.29,0.85c1.67-0.09,3.39,0.03,5-0.32c5.36-1.15,10.69-2.48,16.03-3.73
		c1.09-0.25,2.19-0.6,3.28-0.6c0.83,0,2.05,0.27,2.38,0.83c0.33,0.57,0.06,1.9-0.44,2.48c-1.99,2.33-4.15,4.5-6.28,6.72
		c-2.44,2.54-5.06,4.94-7.32,7.64c-1.99,2.37-1.25,4.07,1.83,4.15c2.75,0.07,5.54-0.34,8.27-0.79c3.02-0.5,5.97-1.44,9-1.87
		c1.12-0.16,2.93,0.27,3.4,1.05c0.57,0.95,0.56,2.92-0.08,3.8c-2.81,3.79-5.92,7.36-8.97,10.97c-1.55,1.84-3.3,3.51-4.79,5.39
		c-1.22,1.55-0.55,2.64,1.3,2.9c2.3,0.33,4.62,0.5,6.93,0.77c3.75,0.43,7.33,1.24,10.07,4.17c4.11,4.39,3.53,9.76-1.56,13.01
		c-1.48,0.94-3.11,1.68-4.73,2.36c-2.02,0.84-2.36,1.96-0.78,3.5c2.95,2.86,3.59,6.42,3.04,10.28c-0.76,5.4-4.92,7.97-9.95,5.88
		c-2.7-1.12-5.22-2.83-7.59-4.59c-1.63-1.21-2.84-2.84-5.25-2.49c-0.74,0.11-1.61-0.66-2.96-1.28c0.99,2.77,1.74,5.13,2.68,7.4
		c2.04,4.94,0.5,10.25-3.91,13.25c-4.2,2.86-8.64,5.22-13.77,5.69c-2.89,0.27-5.83,0.05-9.3,0.05c0,1.47-0.05,3.53,0.01,5.58
		c0.17,5.45,0.65,10.91,0.54,16.36c-0.19,8.7-2.17,17.06-5.3,25.2c-2.36,6.15-6.56,10.23-12.87,11.63
		c-6.43,1.43-13.01,2.19-19.52,3.25c-1.07,0.18-2.14,0.41-3.8,0.73c0.88,0.55,1.21,0.89,1.58,0.97c5.81,1.28,8.74,6.14,12.06,10.23
		c1.24,1.52,0.75,4.61,0.69,6.97c-0.05,1.8-0.66,3.59-1.06,5.58c0.67,0.03,1.15,0.17,1.55,0.06c11.84-3.26,21.06,2.16,29.52,9.28
		c6.68,5.61,13.1,11.58,19.24,17.78c2.9,2.92,4.82,6.8,7.28,10.17c3.23,4.42,7.09,8.22,12.33,10.07c4.98,1.76,8.34,0.18,10.87-4.5
		c2.8-5.18,4.01-10.75,4.25-16.6c0.16-3.99,0.48-7.97,0.75-11.96c0.62-9.13,0.45-18.23-2.15-27.06c-0.93-3.15-2.85-6-4.22-9.03
		c-0.39-0.86-0.95-2.32-0.59-2.7c0.62-0.66,1.93-0.97,2.92-0.92c2.85,0.15,5.69,0.55,8.49,0.84c1.95-6.01-1.17-13.87-6.36-16.53
		c-3.47-1.77-6.96-3.53-10.37-5.41c-3.93-2.17-6.3-5.42-6.38-10.07c-0.02-1.21-0.17-2.43-0.07-3.62c0.55-6.69-2.2-12.69-3.82-18.93
		c-0.39-1.5-1.11-3.15-0.8-4.54c1-4.47,4.82-5.75,7.82-2.29c2.66,3.07,4.51,6.96,6.25,10.7c1.6,3.45,6.05,5.44,9.3,3.51
		c0.41-0.24,0.73-1.05,0.7-1.58c-0.3-6.94-0.28-13.93-1.15-20.81c-0.69-5.48-0.24-10.75,0.75-16.05c0.19-1.02,1.16-2.44,1.99-2.62
		c0.77-0.16,2.22,0.9,2.7,1.78c2.15,3.98,4.6,7.9,4.51,12.71c-0.01,0.77,0.29,1.55,0.96,2.31c0.34-2.81,0.41-5.68,1.08-8.41
		c0.73-2.94,1.87-5.81,3.14-8.56c0.46-1,1.81-1.58,2.76-2.35c0.61,0.97,1.62,1.88,1.76,2.92c0.7,5.23,1.14,10.48,1.72,15.73
		c0.26,2.31,0.66,4.6,1,6.91c0.43,0.02,0.87,0.04,1.3,0.06c0.56-2.24,1.09-4.49,1.68-6.73c1.24-4.75,2.36-9.55,3.88-14.22
		c0.39-1.2,2.07-1.99,3.16-2.97c0.83,1.24,2.2,2.39,2.4,3.73c0.48,3.2,0.38,6.48,0.57,9.72c0.17,2.82,0.43,5.63,0.66,8.44
		c0.31,0.05,0.63,0.1,0.94,0.15c0.48-1.11,0.96-2.22,1.44-3.33c1.74-4,3.35-8.07,5.3-11.96c0.62-1.24,2.15-2.02,3.26-3.01
		c0.75,1.22,2.05,2.38,2.16,3.66c0.86,9.24,2.26,18.53,1.97,27.75c-0.35,11.1-2.15,22.16-3.4,33.22c-0.67,5.89-1.51,11.76-2.32,18
		c1.04,0,2.27,0.11,3.48-0.02c3.25-0.34,3.47-0.04,3.29,3.18c-0.46,8.44-0.81,16.88-1.13,25.32c-0.05,1.38,0.1,2.8,0.42,4.14
		c2.15,8.88,2.1,17.81,1.35,26.88c-0.85,10.37-0.97,20.79-1.55,31.19c-0.71,12.74-2.14,25.39-5.83,37.68
		c-1.59,5.31-2.6,10.93-5.05,15.83c-6.33,12.7-20.76,15.71-33.05,10.12c-10.07-4.58-18.83-10.91-26.55-18.61
		c-3.82-3.81-7.06-8.41-9.73-13.12c-2.41-4.23-6.14-5.49-10.35-7.16c-0.11,1.1-0.23,1.81-0.24,2.52
		c-0.14,12.92-0.42,25.85-0.33,38.77c0.03,4.43,0.91,8.87,1.63,13.27c0.1,0.63,1.46,1.44,2.28,1.49c2.49,0.15,5-0.18,7.49-0.08
		c21.27,0.91,42.52,1.16,63.81,0.25c5-0.21,10.14,1.04,15.11,2.11c6.08,1.31,12.12,1.72,18.27,0.9c2.95-0.39,5.92-0.59,8.88-0.87
		c0.65-0.06,1.3-0.07,1.95-0.15c1.17-0.15,3.28-0.65,3.35-0.44c0.56,1.61,1.29,3.52,0.87,5.03c-0.74,2.68-0.2,4.89,0.89,7.24
		c6.14,13.17,11.13,26.75,14.72,40.85c0.65,2.55-0.11,3.72-2.52,4.14c-3.57,0.62-7.14,1.23-10.71,1.86c-3.08,0.54-5.6,1.42-6.2,5.25
		c-0.2,1.27-2.26,2.62-3.75,3.25c-5.7,2.42-11.71,3.67-17.93,3.57c-11.71-0.18-23.44-0.94-35.13-0.52
		c-13.09,0.46-26.13,1.96-39.2,2.98c-2.69,0.21-5.38,0.37-8.08,0.4c-21.47,0.3-42.95,0.95-64.42,0.76
		c-29.19-0.26-58.37-1.13-87.56-1.86c-4.82-0.12-9.7-0.49-14.42-1.42c-14.67-2.91-29.5-3.57-44.39-3.96
		c-20.17-0.52-40.33-1.21-60.49-1.92c-3.71-0.13-7.39-0.77-11.09-1.14c-6.09-0.6-12.19-1.09-18.27-1.77
		c-7.75-0.86-15.51-1.72-23.23-2.85c-4.6-0.67-6.86-5.51-5.29-11.39c1.22-4.57,3.12-8.96,4.39-13.52
		c2.46-8.86,4.79-17.75,6.94-26.69c0.48-1.99,0.07-4.21-0.03-6.32c-0.07-1.43-0.16-2.36,1.91-2.46c12.14-0.61,24.28-1.45,36.42-2.12
		c4.16-0.23,8.35-0.08,12.51-0.33c7.12-0.43,14.24-0.98,21.35-1.64c0.93-0.09,2.31-0.96,2.58-1.76c2.69-8.1,5.3-16.23,7.69-24.42
		c1.12-3.86,1.61-7.9,2.57-11.81c0.44-1.78,1.48-3.41,1.99-5.19c2.57-9.02,5.08-18.06,7.54-27.12c0.58-2.15,1.03-4.35,1.33-6.55
		c2.2-15.89,6.16-31.37,10.92-46.64c1.09-3.49,2.78-7.03,5.07-9.83c1.87-2.28,4.84-4.3,7.68-5.04c7.62-1.96,15.4-3.37,23.18-4.6
		c3.41-0.54,6.98-0.09,10.71-0.09c-0.13-0.53-0.34-1.38-0.55-2.22c-1.21-4.92,0.18-8.33,4.49-10.86c2.36-1.38,4.75-2.72,7.15-4.65
		c-2.05-0.16-4.1-0.46-6.14-0.44c-6.17,0.05-11.51-2.32-16.17-6c-3.77-2.98-7.15-6.48-10.52-9.94c-2.91-2.98-3.95-6.8-4.34-10.91
		c-0.89-9.16-1.97-18.3-2.95-27.45c-0.23-2.1-0.39-4.2-0.63-6.82c-3.29,1.18-6.38,2.1-9.32,3.38c-10.79,4.69-23.95-6.16-22.73-16.66
		c0.11-0.92,0.08-1.94,0.47-2.73c4.21-8.6,9.28-16.35,19.31-19.09c1.61-0.44,3.18-1.05,4.75-1.62c6.13-2.24,7.58-2.31,13.78-0.57
		c2.04-6.66,4.09-13.33,6.13-20c-0.22-0.12-0.43-0.23-0.65-0.35c-0.5,0.32-1.06,0.57-1.49,0.97c-8.74,7.94-19.1,13.51-29.01,19.72
		c-0.64,0.4-1.66,0.21-2.51,0.29c0.4-0.8,0.6-1.86,1.24-2.36c4.6-3.61,9.31-7.1,13.95-10.66c0.74-0.57,1.32-1.36,1.97-2.05
		C183.86,342.58,183.74,342.43,183.62,342.27z M402.95,452.93c1.26,2.91,2.85,5.78,3.75,8.85c2.64,9.02,2.95,18.28,2.36,27.61
		c-0.27,4.36-0.59,8.71-0.78,13.07c-0.28,6.13-1.65,11.95-4.68,17.33c-3.05,5.42-7.22,7.3-13.12,5.35
		c-6.04-1.99-10.48-6.28-13.99-11.43c-3.4-4.99-6.51-10.15-11.15-14.18c-4.56-3.96-8.87-8.22-13.48-12.11
		c-8.57-7.23-17.58-13.47-29.74-9.8c-1.17,0.35-2.27,1.29-3.14,2.2c-1.7,1.8-2.86,4.37-4.87,5.58c-7.58,4.57-15.46,8.6-24.5,9.44
		c-2.87,0.27-5.75,0.28-8.63,0.49c-5.28,0.4-10.55,0.88-15.83,1.29c-11.36,0.89-21.55-3.01-31.58-7.68
		c-5.34-2.49-9.85-5.89-13.27-10.74c-0.55-0.79-1.68-1.39-2.65-1.62c-6-1.45-11.96-0.97-17.91,0.47c-4.42,1.07-8.88,1.98-13.33,2.9
		c-3.26,0.67-6.49,1.61-8.38,4.49c-1.87,2.85-3.72,5.9-4.7,9.12c-4.56,15.03-8.53,30.22-10.76,45.81c-0.47,3.3-1.29,6.56-2.16,9.78
		c-1.88,6.99-3.88,13.96-5.87,20.92c-2.86,9.99-5.76,19.97-8.66,29.94c-1.4,4.81-3,9.57-4.2,14.43c-0.97,3.92-1.41,8.03,1.69,11.33
		c1.63,1.73,3.5,3.37,5.55,4.55c10.78,6.21,22.91,8.66,34.79,11.37c7.9,1.8,16.25,1.66,24.41,2.22c10.75,0.74,21.51,1.45,32.28,1.94
		c8.35,0.38,16.72,0.3,25.08,0.6c6.35,0.23,12.69,0.73,19.4,1.14c0.35-3.59,0.85-7.33,1.04-11.08c0.14-2.68-0.27-5.39-0.15-8.07
		c0.21-4.63,0.58-9.26,0.99-13.88c0.19-2.1-0.53-2.88-2.66-2.69c-2.4,0.22-4.83,0.13-7.23,0.31c-5.35,0.41-10.7,0.92-16.05,1.37
		c-3.32,0.28-6.7,0.99-9.97,0.67c-7.11-0.68-14.18-1.88-21.26-2.9c-2.48-0.36-4.96-1.17-7.43-1.12c-6.75,0.12-13.04-1.74-19.31-3.83
		c-5.61-1.87-6.89-4.21-6.03-10.01c1.4-9.44,2.52-18.92,3.86-28.37c0.17-1.22,1-2.35,1.53-3.52c0.38,0.07,0.76,0.14,1.14,0.22
		c1.46,4.66,3.24,9.26,4.33,14.01c1.99,8.67,3.68,17.42,5.28,26.18c0.35,1.93,1.17,2.32,2.86,2.54c7.46,0.94,14.89,2.1,22.35,3.02
		c8.94,1.1,17.84,2.4,26.85-0.11c3.32-0.92,7.01-0.53,10.53-0.67c2.41-0.1,4.83,0.02,7.23-0.16c6.12-0.45,6.44-0.19,6.46,6.04
		c0,0.14,0.19,0.29,0.68,0.96c4.51-2.48,9.07-5.07,13.7-7.51c2.93-1.55,5.89-3.11,8.98-4.29c3-1.15,5.83-0.33,8.3,1.76
		c3.48,2.94,6.94,5.91,10.54,8.69c1.61,1.24,3.54,2.05,5.46,3.12c0.29-0.89,0.46-1.16,0.44-1.41c-0.61-11.02-1.12-22.06-1.96-33.06
		c-0.2-2.67,0.17-4.09,2.86-5.04c6.18-2.19,7.24-1.53,7.11,4.98c-0.22,11.33-0.41,22.67-0.59,34c-0.04,2.64,2.35,4.49,4.88,4.08
		c4.47-0.71,8.96-1.39,13.46-1.84c1.8-0.18,2.62-0.64,2.2-2.5c-1.89-8.36-1.26-16.83-1.13-25.27c0.15-9.3,0.23-18.59,0.41-27.89
		c0.06-3.02,0.83-3.55,3.62-2.5c1.99,0.75,3.87,2.49,5.81,2.51c3,0.03,3.54,2.01,4.73,3.84c2.88,4.42,5.38,9.26,9.01,12.96
		c7.96,8.13,17,14.97,27.65,19.4c5.7,2.37,11.6,3.26,17.36,1.05c6.82-2.61,11.68-7.58,13.8-14.73c1.34-4.53,2.1-9.24,3.44-13.77
		c3.32-11.25,4.27-22.83,5.04-34.42c0.72-10.75,0.88-21.55,1.72-32.29c0.63-8.04,0.65-15.96-1.05-23.86
		c-0.37-1.72-0.75-3.49-0.7-5.23c0.25-8.35,0.65-16.7,0.97-25.05c0.02-0.51-0.12-1.03-0.24-1.94c-8.9,1.17-17.59,2.89-26.35,3.31
		C420.61,454.07,411.74,453.22,402.95,452.93z M487.63,624.75c-4.1,0.18-7.96,0.14-11.77,0.58c-6.91,0.81-13.67,0.5-20.47-1.12
		c-4.4-1.05-9.01-2.09-13.46-1.86c-24.61,1.28-49.2-0.04-73.79-0.19c-4.72-0.03-9.46,0.47-14.17,0.97c-1.21,0.13-2.69,0.9-3.41,1.86
		c-1.24,1.64-1.65,3.98-3.02,5.44c-1.79,1.9-1.36,3.07-0.08,4.96c1.11,1.64,2.29,4,1.92,5.71c-0.66,3.06-2.03,6.19-3.88,8.73
		c-2.59,3.54-1.9,6.96-0.95,10.6c0.14,0.54,0.46,1.03,0.59,1.56c0.94,3.87,2.32,7.71,2.64,11.64c0.26,3.14-0.67,6.41-1.3,9.58
		c-0.31,1.58-1.71,1.59-2.47,0.5c-0.98-1.4-1.56-3.1-2.22-4.72c-0.38-0.93-0.25-2.36-0.89-2.85c-3.28-2.51-2.95-6-2.89-9.43
		c0.04-2.51,0.25-5.02,0.36-7.16c-2.75,0.61-5.33,1.87-7.7,1.55c-4.38-0.6-8.45,0.54-12.67,0.87c-7.95,0.62-15.52,0-19.38-8.91
		c-1.75-4.03-5.85-5.21-9.82-6.07c-0.51-0.11-1.56,0.39-1.72,0.84c-1.03,2.82-3.31,2.63-5.56,2.45c-2.22-0.18-4.42-0.6-6.64-0.7
		c-21.07-0.97-42.14-2.06-63.21-2.8c-17.76-0.62-35.12-3.12-51.92-9.07c-2.19-0.78-4.48-1.35-6.55-2.37
		c-5.5-2.72-11.15-5.34-13.73-11.57c-0.62-1.51-1.04-3.64-2.2-4.24c-1.37-0.71-3.44-0.07-5.2,0c-0.46,0.02-0.93,0.09-1.39,0.13
		c-6.38,0.47-12.76,1.01-19.15,1.38c-4.26,0.25-8.53,0.21-12.79,0.39c-5.2,0.22-10.39,0.52-15.58,0.83
		c-5.34,0.32-10.69,0.68-15.69,1.01c-0.74,4.83-1.04,9.6-2.27,14.11c-2.61,9.59-5.8,19.02-8.55,28.57
		c-0.83,2.89-1.26,5.95-1.45,8.96c-0.15,2.3,1.39,3.87,3.7,4.19c6.81,0.97,13.62,1.93,20.45,2.67c7.19,0.78,14.4,1.31,21.61,1.96
		c4.07,0.36,8.14,0.94,12.21,1.08c18.67,0.62,37.35,1.11,56.02,1.68c15.33,0.46,30.66,0.76,45.79,3.83
		c5.17,1.05,10.52,1.51,15.8,1.63c29.92,0.71,59.85,1.43,89.78,1.76c15.61,0.17,31.22-0.62,46.84-0.65
		c12.29-0.02,24.49-0.77,36.74-1.85c13.68-1.21,27.46-1.39,41.2-1.73c6.59-0.17,13.22,0.79,19.78,0.35
		c5.49-0.37,10.91-1.95,16.31-3.19c0.98-0.23,2.36-1.36,2.48-2.22c0.63-4.48,4.01-5.51,7.49-6.31c3.16-0.73,6.41-1.12,9.62-1.62
		c1.58-0.25,2.28-0.87,1.74-2.63c-3.03-9.94-5.34-20.06-9.9-29.56C490.04,638.46,485.86,632.7,487.63,624.75z M239.67,326.97
		c0-1.19,0.05-1.81-0.01-2.42c-0.38-4.07-0.85-8.13-1.13-12.21c-0.06-0.94,0.52-1.93,0.8-2.89c0.54,0.82,1.24,1.59,1.6,2.48
		c1.08,2.74,1.61,5.79,3.1,8.27c4.84,8.03,12.84,10.8,21.56,12.09c0.76,0.11,1.57-0.14,2.75-0.27c-0.61-1.14-1.01-1.94-1.45-2.71
		c-1.91-3.4-3.9-6.77-5.7-10.23c-0.37-0.72-0.06-1.79-0.06-2.7c0.77,0.49,1.86,0.79,2.26,1.49c6.2,10.74,15.81,16.43,27.68,18.75
		c1.43,0.28,2.93,0.22,4.4,0.32c-0.36,0.18-0.72,0.36-1.08,0.53c-1.99-2.58-4.03-5.11-5.91-7.76c-0.39-0.54-0.2-1.5-0.27-2.26
		c0.76,0.07,1.71-0.12,2.25,0.27c2.11,1.51,4.13,3.17,6.12,4.84c5.25,4.41,11.71,3.79,18.49,4.82c-1.06-1.59-1.83-2.51-2.33-3.56
		c-0.33-0.68-0.63-1.99-0.34-2.21c0.62-0.46,1.72-0.7,2.47-0.49c2.82,0.79,4.92,2.61,6.17,5.26c1.47,3.11,2.77,6.29,4.18,9.42
		c1.19,2.66,2.82,4.87,5.62,5.55c0.18-1.48,0.32-2.67,0.47-3.85c1.21,0.71,2.42,1.42,3.63,2.14c0.07,0.04,0.11,0.15,0.16,0.23
		c1.75,3.3,5.17,3.82,8.74,5.6c-0.53-3.88,0.62-5.92,4.3-5.47c0.23,0.03,0.55-0.15,0.74-0.33c3.01-2.77,6.01-1.95,9.18-0.22
		c1.23,0.67,2.9,1.31,4.13,1.01c2.87-0.7,5.6-1.99,8.82-3.2c0.11,0.82,0.59,2,0.25,2.33c-2.58,2.5-0.79,4.72,0.53,6.67
		c1.31,1.94,3.04,4.68,4.87,4.92c2.53,0.34,3.91,1.48,5.6,2.91c1.83,1.55,3.88,2.92,6.03,3.96c4.99,2.43,8.41,0.18,7.95-5.37
		c-0.17-2.07-1.09-4.33-2.33-6.02c-3.15-4.29-2.94-5.66,1.97-7.88c1.02-0.46,2.05-0.89,3.03-1.43c5.22-2.84,5.54-8.18,0.35-11.08
		c-2.49-1.39-5.62-1.69-8.5-2.29c-2.08-0.44-4.27-0.39-6.34-0.88c-3.17-0.74-4.18-2.88-2.48-5.62c1.36-2.18,3.24-4.03,4.94-5.98
		c2.75-3.14,5.57-6.21,8.28-9.38c0.6-0.7,0.86-1.68,1.64-3.26c-2.3,0.39-3.81,0.65-5.32,0.91c-4.38,0.75-8.73,1.7-13.14,2.18
		c-2.29,0.25-4.76-0.26-5.9-2.81c-1.11-2.48,0.37-4.35,1.88-5.99c2.39-2.6,4.95-5.03,7.45-7.53c1.54-1.53,3.09-3.05,4.63-4.58
		c-0.15-0.26-0.31-0.51-0.46-0.77c-3.03,0.72-6.04,1.51-9.09,2.13c-4.18,0.85-8.36,1.73-12.59,2.21c-1.18,0.14-3.18-0.79-3.59-1.75
		c-0.42-0.99,0.4-2.76,1.12-3.91c0.89-1.41,2.24-2.53,3.87-4.3c-1.67,0.15-2.57,0.26-3.47,0.3c-5.1,0.24-10.21,0.66-15.31,0.63
		c-4.57-0.02-8.86-1.31-12.13-4.77c-3.18-3.36-2.98-5.16,0.65-7.91c1.81-1.37,1.9-2.69-0.12-3.56c-1.8-0.78-3.9-1.05-5.89-1.17
		c-2.31-0.13-4.64,0.27-6.96,0.2c-0.99-0.03-1.96-0.69-2.94-1.07c0.51-1,0.78-2.28,1.58-2.95c1.76-1.49,3.82-2.63,5.68-4.01
		c1.12-0.83,2.11-1.86,3.16-2.79c-0.09-0.33-0.17-0.65-0.26-0.98c-2.23-0.38-4.53-1.31-6.67-1.03c-5.49,0.72-10.91,1.97-16.36,3.01
		c-1.88,0.36-4.26,1.41-5.24-0.74c-0.49-1.07,0.8-3.13,1.59-4.57c0.61-1.11,1.63-2.02,2.58-2.9c3.21-2.96,6.52-5.81,9.67-8.84
		c0.83-0.8,1.21-2.08,1.79-3.15c-1.23-0.13-2.47-0.45-3.67-0.35c-1.08,0.09-2.17,0.55-3.17,1.02c-3.69,1.76-7.43,3.43-10.99,5.43
		c-4.37,2.46-8.54,5.28-12.89,7.77c-0.89,0.51-2.22,0.26-3.35,0.37c0.1-1.12-0.12-2.41,0.36-3.32c1.75-3.28,3.78-6.4,5.6-9.64
		c0.54-0.96,0.74-2.11,1.1-3.17c-0.22-0.15-0.44-0.31-0.66-0.46c-1.17,0.84-2.45,1.55-3.49,2.53c-4.33,4.08-8.51,8.31-12.91,12.3
		c-1.12,1.01-3.18,2.22-4.17,1.81c-1.09-0.45-1.65-2.62-2.05-4.14c-0.42-1.59-0.36-3.3-0.55-5.31c-2.6,2.54-2.71,2.9-4.32,9.38
		c-0.24,0.98-0.95,2.44-1.64,2.57c-0.96,0.17-2.28-0.5-3.13-1.2c-1.09-0.9-1.86-2.17-2.78-3.29c-0.17,0.06-0.34,0.12-0.52,0.19
		c0.27,2.67,0.54,5.34,0.8,8.01c-10.44-3.12-21.84-3.11-25.06,0.08c2.43,0.36,4.85,0.54,7.16,1.14c1.2,0.31,2.19,1.39,3.28,2.12
		c-0.98,0.83-1.85,1.88-2.97,2.42c-1.31,0.64-2.83,0.87-4.28,1.2c-8.52,1.95-16.31,5.6-23.73,10.11c-0.78,0.48-1.43,1.18-2.14,1.78
		c1.59,0.38,2.84,0.16,4.09-0.09c2.64-0.53,5.26-1.22,7.93-1.56c1.03-0.13,2.16,0.49,3.25,0.77c-0.6,0.94-1,2.14-1.83,2.78
		c-2.13,1.63-4.45,3.02-6.71,4.5c-6.4,4.19-12.53,8.7-17.43,14.66c-1.36,1.65-2.49,3.48-3.73,5.23c2.98-1.2,5.42-2.86,7.97-4.35
		c0.69-0.4,1.68-0.29,2.53-0.42c-0.19,0.83-0.2,1.75-0.59,2.47c-2.91,5.48-5.75,11.02-8.92,16.36c-2.4,4.04-4.72,8.34-7.99,11.6
		c-6.58,6.53-14.74,10.6-23.88,12.54c-0.57,0.12-1.1,0.4-1.65,0.61c4.53,1.16,9.05,2.23,13.52,0.83c3.97-1.24,7.74-3.1,11.65-4.54
		c1.19-0.44,2.57-0.39,3.86-0.57c-0.5,1.17-0.91,2.4-1.54,3.5c-0.5,0.88-1.27,1.6-1.92,2.39c0.22,0.17,0.43,0.34,0.65,0.51
		c11.08-9.11,23.76-16.79,27.92-32.08c0.31-1.15,1.56-2.05,2.37-3.07c0.37,1.23,0.89,2.43,1.09,3.69c0.49,3.11,0.83,6.24,1.23,9.37
		c0.39-0.01,0.78-0.02,1.17-0.02c0.29-1.4,0.59-2.8,0.86-4.2c0.43-2.18,0.65-4.44,1.34-6.54c0.47-1.42,1.61-2.62,2.45-3.93
		c0.58,1.36,1.41,2.68,1.71,4.1C227.83,319.66,232.99,323.61,239.67,326.97z M317.37,334.28c-0.31,0.18-0.63,0.37-0.94,0.55
		c0.1,0.23,0.19,0.47,0.3,0.7c0.46,1.03,0.93,2.05,1.39,3.07c-1.19,0.3-2.42,0.96-3.56,0.84c-4.25-0.44-8.46-1.16-12.7-1.72
		c-0.74-0.1-1.55,0.01-2.28,0.21c-1.28,0.34-2.54,1.19-3.79,1.16c-8.61-0.18-16.4-2.93-23.35-8c-0.7-0.51-1.36-1.07-2.35-1.85
		c0.7,4.42,0.02,5.21-4.06,5.17c-1.2-0.01-2.45-0.02-3.6-0.33c-7.82-2.14-15.27-4.92-19.98-12.19c-0.12-0.19-0.45-0.24-1.06-0.55
		c0.22,1.64,0.52,2.98,0.56,4.32c0.03,1.13-0.24,2.27-0.38,3.41c-1.05-0.14-2.3,0.02-3.13-0.49c-2.92-1.78-6.05-3.43-8.43-5.8
		c-2.46-2.46-4.15-5.7-6.31-8.79c-0.25,1.28-0.5,2.6-0.78,3.91c-0.46,2.08-0.71,4.24-1.48,6.2c-0.84,2.13-2.87,2.13-3.94,0.09
		c-0.59-1.13-0.87-2.44-1.21-3.7c-0.34-1.25-0.59-2.54-0.75-3.25c-3.08,4.32-6.32,8.57-9.22,13.03c-1.73,2.66-3.37,5.53-4.32,8.53
		c-2.13,6.72-3.8,13.59-5.68,20.39c-0.41,1.48-1.31,2.16-2.62,0.96c-3.23-2.93-6.8-2.35-10.44-1.17c-2.83,0.92-5.66,1.83-8.42,2.91
		c-8.29,3.23-12.91,9.9-16.37,17.63c-0.18,0.41-0.13,0.92-0.2,1.38c-1.47,9.16,10.54,19.08,19.81,14.86
		c3.28-1.49,6.8-2.49,10.25-3.6c2.31-0.74,2.82-0.17,2.65,2.15c-0.16,2.11-0.22,4.27-0.01,6.37c0.95,9.52,1.83,19.06,3.13,28.54
		c0.4,2.91,1.47,6.15,3.3,8.35c3.31,3.96,7.21,7.52,11.26,10.74c3.97,3.15,8.65,5.04,13.92,4.99c1.85-0.02,3.71,0.32,5.56,0.33
		c6.18,0.02,12.37,0.02,18.55-0.13c1.2-0.03,2.36-1.04,3.57-1.14c4.95-0.38,9.92-0.5,14.87-0.87c6.2-0.46,12.38-1.24,18.59-1.55
		c8.04-0.4,16.13-0.11,24.14-0.8c7.3-0.63,14.55-1.99,21.75-3.37c4.84-0.92,9-3.41,11.03-8.12c1.95-4.51,4.14-9.13,4.86-13.9
		c1.47-9.69,3.01-19.48,1.23-29.36c-0.28-1.54-0.29-3.16-0.18-4.72c0.21-3.15,1.57-3.92,4.66-3.15c1.68,0.42,3.5,0.72,5.2,0.54
		c5.48-0.6,10.36-2.84,14.76-6.13c2.63-1.97,3.88-6.15,2.77-9.27c-0.81-2.27-1.63-4.54-2.49-6.8c-2.82-7.43-7.88-10.88-15.8-11.01
		c-2.03-0.03-4.04-0.56-6.07-0.75c-1.02-0.09-2.07,0.06-3.1,0.11c0.41,1.25,0.69,2.57,1.28,3.73c0.3,0.59,1.18,0.87,1.75,1.34
		c1.06,0.88,2.62,1.92,1.2,3.29c-0.56,0.54-2.54,0.12-3.58-0.42c-4.33-2.29-8.53-4.8-12.8-7.19c-0.37-0.21-0.91-0.26-1.35-0.21
		c-4.94,0.56-7.53-2.46-9.5-6.29c-0.76-1.48-1.08-3.18-1.79-4.68C320.3,339.91,318.81,337.11,317.37,334.28z M410.01,403.68
		c5.8,0,11.28-0.16,16.73,0.07c2.83,0.12,5.65,0.83,8.44,1.47c0.57,0.13,0.95,1.09,1.42,1.67c-0.73,0.14-1.5,0.51-2.19,0.39
		c-2.28-0.37-4.52-1.29-6.79-1.31c-7.71-0.08-15.42-0.02-23.13,0.28c-5.72,0.22-7.02-0.68-9.16-5.91c-1.39-3.38-3.47-6.5-5.52-9.55
		c-0.47-0.7-2.65-1.2-3.05-0.79c-0.86,0.85-1.16,2.34-1.5,3.61c-0.12,0.45,0.3,1.05,0.48,1.57c2.44,7.3,4.75,14.61,4.27,22.49
		c-0.3,5,2.35,8.12,6.75,10.17c3.7,1.72,7.3,3.66,10.87,5.63c2.64,1.45,4.45,3.62,4.91,6.73c0.42,2.84,1.03,5.67,1.23,8.53
		c0.14,2.06,0.78,2.91,2.95,3.05c9.46,0.62,18.7-1.07,28.01-2.25c3.05-0.39,4.42-1.79,4.82-4.67c0.78-5.6,1.78-11.18,2.48-16.79
		c1.14-9.12,2.73-18.24,2.98-27.38c0.27-9.61-0.8-19.26-1.33-28.9c-0.06-1.01-0.47-2-0.92-3.84c-0.87,1.58-1.38,2.33-1.72,3.15
		c-1.79,4.28-3.46,8.61-5.36,12.83c-0.59,1.3-1.8,2.31-2.73,3.45c-0.92-1.28-2.09-2.45-2.67-3.87c-0.55-1.33-0.58-2.91-0.64-4.39
		c-0.12-3.16-0.06-6.32-0.19-9.48c-0.07-1.69-0.39-3.37-0.6-5.06c-0.37-0.06-0.75-0.12-1.12-0.17c-0.95,2.9-2.07,5.77-2.81,8.73
		c-1.06,4.23-1.69,8.56-2.84,12.77c-0.32,1.18-1.79,2.04-2.74,3.05c-0.9-1.07-2.4-2.04-2.59-3.22c-0.67-4.18-0.84-8.44-1.29-12.66
		c-0.36-3.31-0.86-6.59-1.29-9.89c-1.08,0.31-1.35,0.55-1.52,0.85c-2.42,4.25-2.9,8.96-3.21,13.71c-0.11,1.66-0.13,3.36-0.49,4.97
		c-0.17,0.76-1.04,1.35-1.59,2.02c-0.65-0.57-1.61-1.03-1.88-1.75c-0.58-1.55-0.73-3.25-1.19-4.86c-1.1-3.8-2.24-7.58-3.45-11.34
		c-0.21-0.66-0.85-1.18-1.29-1.76c-0.29,0.07-0.57,0.15-0.86,0.22c-0.32,4.13-1.03,8.28-0.85,12.39c0.24,5.36,1.1,10.69,1.89,16.01
		c0.14,0.94,1.13,2.24,1.98,2.5c3.99,1.19,8.02,1.33,12.02-0.27c1.98-0.79,4.06-1.34,6.13-1.86c0.47-0.12,1.09,0.38,1.64,0.59
		c-0.29,0.49-0.5,1.31-0.9,1.42c-5.24,1.46-10.3,3.97-16,2.92c-1.43-0.26-2.87-0.52-4.58-0.82
		C410.01,399.97,410.01,401.5,410.01,403.68z M314.21,628.08c0.05-0.44,0.1-0.89,0.15-1.33c0.92-0.05,1.91-0.35,2.73-0.09
		c0.93,0.29,1.65,1.21,2.56,1.64c2.32,1.1,5.22,3.06,7.2,1.05c2.68-2.73,5.64-4.74,8.9-6.51c0.48-0.26,1.05-1.01,0.98-1.44
		c-0.08-0.46-0.82-0.85-1.34-1.18c-2.33-1.49-4.82-2.77-7.01-4.45c-3.09-2.37-5.83-5.2-8.98-7.5c-1.45-1.06-3.57-1.95-5.26-1.76
		c-2.41,0.26-4.83,1.34-7.03,2.47c-5.5,2.85-10.84,6.01-16.34,8.86c-1.62,0.84-2.37,1.77-2.37,3.6c-0.01,7.24-0.18,14.48-0.09,21.72
		c0.01,0.8,1.21,2.11,2.04,2.28c5.23,1.05,8.9,3.87,11.22,8.67c1.66,3.46,4.56,5.47,8.43,5.44c4.14-0.03,8.27-0.43,12.4-0.7
		c1.56-0.1,3.24-0.73,4.66-0.34c5.62,1.53,9.6-0.76,12.75-5.07c0.64-0.88,0.65-2.22,0.95-3.35c-1.05,0.3-2.11,0.57-3.16,0.9
		c-0.25,0.08-0.44,0.44-0.68,0.47c-0.74,0.08-1.49,0.06-2.24,0.08c0.25-0.79,0.26-1.9,0.8-2.3c1.63-1.21,3.55-2.03,5.17-3.25
		c1.02-0.77,1.7-1.99,2.53-3.01c1.14-0.97,3.97-2.01,3.87-2.54c-0.37-2.09-1.65-4.03-2.67-6.19c-1.06,0.72-1.54,1-1.97,1.34
		c-2.5,1.93-4.95,3.93-7.52,5.76c-0.49,0.35-1.42,0.1-2.15,0.13c0.2-0.65,0.3-1.35,0.62-1.94c0.2-0.37,0.73-0.55,1.08-0.86
		c4.11-3.73,8.25-7.43,12.26-11.26c0.58-0.56,1.02-2.17,0.67-2.6c-0.66-0.8-1.99-1.6-2.95-1.5c-2.55,0.26-5.24,0.58-7.51,1.65
		c-2.7,1.27-5.38,3.01-7.37,5.18c-1.47,1.61-2.81,2.58-4.68,1.98C321.25,630.98,317.76,629.46,314.21,628.08z M248.53,455.75
		c-9.01,0.34-17.77,1.23-25.55,6.4c-3.82,2.54-5.44,5.43-3.51,9.6c1.71,3.7,3.91,7.66,6.99,10.14c9,7.24,19.58,11.55,31.1,12.37
		c7.16,0.51,14.44-0.65,21.67-0.9c9.85-0.34,19.14-2.21,28.23-6.52c9.01-4.28,12.02-11.26,12.52-20.22c0.07-1.17-0.41-2.71-1.2-3.52
		c-3.38-3.45-6.01-7.96-11.5-8.68c-0.62-0.08-1.11-0.94-1.74-1.3c-1.07-0.61-2.21-1.6-3.31-1.59c-5.37,0.08-10.74,0.41-16.11,0.76
		c-0.55,0.04-1.45,0.71-1.51,1.18c-0.2,1.48-0.07,2.99-0.07,4.36c6.67,0.21,12.76-0.61,18.29,2.7c3.86,2.31,4.82,4.46,2.89,8.51
		c-0.8,1.68-2.29,3.1-3.67,4.42c-1.19,1.15-2.69,1.98-4.04,2.96c-4.18,3.05-8.57,5.52-13.92,5.87c-3.34,0.21-6.69,0.45-9.98,0.99
		c-9.95,1.63-19.68,0.59-29.14-2.61c-4.95-1.68-10.28-2.75-14.07-6.94c-2.82-3.12-2.63-5.06,0.37-8.02
		c4.33-4.28,9.92-5.25,15.46-6.35C249.15,458.89,249.31,457.8,248.53,455.75z M281.5,460.41c-0.27,0.04-0.53,0.08-0.8,0.11
		c0.28-0.45,0.76-0.87,0.82-1.35c0.24-2.05,0.54-4.13,0.31-6.14c-0.03-0.3-2.78-0.53-4.23-0.4c-7.65,0.71-15.27,1.7-22.93,2.24
		c-2.72,0.19-3.55,1.06-3.34,3.66c0.42,5.36,0.34,10.68-0.95,15.99c-1.42,5.85-1.21,5.77,4.97,6.77c9.42,1.53,18.68-0.17,27.98-1.09
		c0.79-0.08,1.56-0.32,1.71-0.35c-0.65-5.2-1.18-10.12-1.93-15.01C282.87,463.32,282.05,461.89,281.5,460.41z M286.44,471.2
		c-0.16,0.04-0.32,0.08-0.48,0.12c0.61,2.02,1.1,4.08,1.9,6.02c0.25,0.61,1.74,1.39,2.04,1.18c4.5-3.03,9.24-5.85,13.2-9.5
		c2.51-2.31,1.46-4.67-1.49-6.52c-4.47-2.81-9.46-2.16-14.32-2.35c-1.83-0.07-2.31,1.09-2.03,2.8
		C285.72,465.69,286.05,468.45,286.44,471.2z M246.68,479.18c0.84-4.61,1.66-8.78,2.33-12.97c0.2-1.26,0.17-2.62-0.09-3.87
		c-0.11-0.53-1.17-1.34-1.63-1.24c-5.41,1.2-10.98,2.01-15.09,6.38c-1.47,1.56-1.8,2.83-0.27,4.53
		C235.91,476.43,241.52,477.15,246.68,479.18z M203.65,572.21c-0.25,0.02-0.51,0.03-0.76,0.05c-1.31,8.92-2.71,17.84-3.81,26.79
		c-0.15,1.25,0.82,3.39,1.86,3.89c3.02,1.45,6.34,2.28,9.8,3.44C208.72,594.56,207.07,583.19,203.65,572.21z M342.87,580.13
		c-4.82,0-5.71,1.06-4.8,5.24c0.35,1.62,0.52,3.3,0.58,4.97c0.35,8.82,0.6,17.64,1.02,26.45c0.04,0.92,1.05,1.8,1.62,2.69
		c0.37-0.91,1.04-1.81,1.06-2.72c0.23-8.26,0.38-16.51,0.5-24.77C342.92,588.03,342.87,584.08,342.87,580.13z M342,658.38
		c-0.45,0.07-0.91,0.14-1.36,0.22c0.94,4.72-2.95,10,2.21,14.23c0.45,0.37,0.95,0.66,1.43,0.98c0.19-0.65,0.65-1.35,0.54-1.94
		C343.94,667.36,342.95,662.87,342,658.38z M363.93,353.28c1.6,1.02,2.83,1.8,4.33,2.76C367.71,351.81,367.27,351.52,363.93,353.28z
		"/>
	<path d="M354.85,229.34c1.13-1.49,2.15-3.1,3.43-4.46c3.47-3.69,6.72-7.72,10.69-10.8c4.88-3.79,9.13-1.71,9.15,4.42
		c0.01,4.18-1.21,8.38-2.1,12.53c-0.49,2.26-1.5,4.4-2.13,6.63c-0.23,0.81-0.33,2.33,0.03,2.51c0.77,0.39,2.01,0.44,2.83,0.09
		c4.67-2.02,8.39-5.27,12.04-8.81c3.33-3.22,7.17-6.31,11.37-8.14c7.15-3.11,13.85,2.64,12.4,10.32c-0.51,2.69-1.83,5.46-3.49,7.66
		c-3.04,4.02-5.31,8.05-4.17,13.29c0.05,0.22-0.17,0.5-0.27,0.75c-2.48-0.76-2.48-0.76-2.53-8.3c-3.91,1.24-7.63,4.28-11.89,2.04
		c-4.68-2.45-3.34-7.14-3.49-11.82c-1.31,0.89-2.27,1.65-3.32,2.23c-2.35,1.3-4.62,2.89-7.14,3.66c-4.05,1.23-6.38-1.24-5.22-5.34
		c1.09-3.84,2.66-7.56,3.6-11.43c0.7-2.84,1.06-5.86,0.96-8.78c-0.1-3-2.23-4.1-4.59-2.23c-3.59,2.86-6.84,6.18-10.03,9.5
		c-1.72,1.79-2.87,4.13-4.6,5.92c-0.72,0.75-2.42,1.19-3.37,0.87c-0.67-0.23-1.1-1.98-1.12-3.06c-0.02-1.43,0.47-2.87,0.83-4.8
		c-1.09,0.53-1.78,0.87-2.48,1.21c-6.22,3.13-12.09,1.6-15.61-4.35c-1.13-1.9-2.17-2.03-4.05-1.36c-1.99,0.71-4.12,1.21-6.23,1.4
		c-5.9,0.53-10.52-2.45-12.72-7.94c-0.3-0.76-0.6-1.53-1.13-2.88c-0.87,1.19-1.43,2.06-2.1,2.85c-1.62,1.9-3.07,4.03-4.99,5.56
		c-4.01,3.19-8.49,1.83-10.26-3c-0.82-2.23-1.17-4.63-1.87-7.5c-1.38,1.97-2.41,3.67-3.68,5.18c-1.84,2.19-3.64,4.5-5.84,6.29
		c-2.63,2.15-5.09,1.71-7.38-0.81c-0.74-0.81-1.39-1.76-1.87-2.75c-3.03-6.25,1.67-18.02,8.15-20.5c3.55-1.36,7.5,0.85,7.75,4.78
		c0.16,2.44-0.69,4.94-1.49,7.25c0-2.24,0.28-4.52-0.06-6.71c-0.57-3.63-3.74-4.8-6.65-2.55c-4.82,3.74-6.73,8.9-5.99,14.78
		c0.23,1.82,1.87,3.99,3.48,4.9c0.9,0.51,3.54-0.83,4.59-2.04c5.07-5.84,9.9-11.82,10.14-20.22c0.08-3.01,1.06-6.03,1.84-8.99
		c0.23-0.87,1.22-1.53,1.86-2.29c0.41,0.95,1.26,1.96,1.15,2.84c-0.51,4.04-1.06,8.1-2.05,12.05c-1.19,4.73-1.31,9.39-0.04,14.05
		c1.3,4.75,4.68,5.81,7.89,2.05c2.97-3.47,5.07-7.69,7.51-11.61c0.43-0.7,0.53-1.63,1.01-2.27c0.31-0.42,1.14-0.82,1.58-0.69
		c0.45,0.13,1,0.92,1,1.42c0,1-0.37,1.99-0.54,3c-1.54,8.84,4.76,14.75,13.43,12.61c0.63-0.16,1.25-0.39,1.88-0.51
		c2.68-0.51,3.78-1.88,3.69-4.82c-0.08-2.72,0.39-5.62,1.37-8.14c0.54-1.38,2.56-2.85,4.07-3.04c2.91-0.37,5.8,0.63,7.56,3.26
		c1.29,1.93,0.36,3.91-0.99,5.36c-2.01,2.15-4.18,4.21-6.54,5.97c-1.67,1.25-1.86,2.26-0.76,3.9c2,2.97,4.69,4.61,8.26,4.03
		c4.56-0.74,8.57-2.36,10.13-7.43c0.68-2.2,1.75-4.31,2.93-6.29c0.3-0.5,1.7-0.34,2.59-0.49c0.12,0.75,0.35,2.16,0.33,2.16
		c-3.65,0.69-3.07,4.16-4.13,6.43c-1.17,2.51-1.89,5.24-2.73,7.9c-0.32,1-0.42,2.07-0.62,3.1
		C354.35,229.08,354.6,229.21,354.85,229.34z M393.96,244.05c5.78,0.04,10.17-2.41,14.53-8.11c2.33-3.05,2.48-5.6,0.47-8.32
		c-1.87-2.54-4.58-3.28-7.96-2.17c-5.82,1.92-10.75,8.34-11.07,14.43C389.76,243.05,390.71,244.03,393.96,244.05z M335.37,213.25
		c0.42,0.25,0.84,0.5,1.27,0.75c2.14-2.18,4.35-4.3,6.35-6.61c0.38-0.43,0.16-2.15-0.25-2.35c-1.44-0.72-3.12-1.5-4.61-1.34
		c-0.86,0.09-1.93,1.86-2.19,3.03C335.47,208.84,335.53,211.07,335.37,213.25z"/>
	<path d="M129.47,244.42c2.53-6.77,3.47-13.1,3.59-19.53c0.14-8.36,0.03-16.73,0.1-25.09c0.02-1.85,0.08-3.78,0.64-5.51
		c0.43-1.35,1.53-3.31,2.55-3.45c1.34-0.19,2.95,1.04,4.32,1.87c0.55,0.33,0.76,1.22,1.14,1.87c-0.28,0.1-0.49,0.25-0.59,0.2
		c-1.43-0.73-2.84-1.5-4.26-2.25c-0.53,1.6-1.48,3.18-1.53,4.79c-0.21,6.5-0.33,13.02-0.12,19.52c0.3,9.64-0.1,19.14-3.6,28.29
		c-0.66,1.73,1.51,5.14,4.26,6.89c2.12,1.35,4.36,1.47,6.09-0.46c1.47-1.64,2.82-3.52,3.68-5.52c1.76-4.08,3.24-8.3,4.68-12.51
		c0.83-2.43,1.46-4.76-0.49-7.33c-0.81-1.06-0.29-3.68,0.41-5.24c2.01-4.48,5.19-8.15,9.29-10.9c3.48-2.33,7.36-2.04,10.09,1.11
		c2.47,2.86,4.36,6.22,6.66,9.24c2.46,3.23,4.85,6.57,7.72,9.41c2.63,2.61,6.14,3.06,9.6,1.49c3.96-1.79,6.21-5.16,6.77-9.28
		c0.23-1.7-1.02-3.69-1.84-5.44c-3.38-7.12-5.74-14.52-6.17-22.43c-0.08-1.55,0-3.22,0.48-4.67c0.33-0.97,1.49-2.29,2.3-2.31
		c1.02-0.03,2.29,0.93,3.06,1.8c0.69,0.78,0.97,2,1.24,3.07c1.39,5.68,2.72,11.38,4.08,17.06c0.12,0.51,0.32,1,0.53,1.64
		c1.61-1.08,2.99-2.2,4.52-3.01c5.55-2.95,10.98,0.17,11.23,6.43c0.05,1.38-0.04,2.8-0.29,4.16c-1.36,7.25-7.86,10.09-14.16,6.23
		c-0.7-0.43-1.4-0.85-2.38-1.45c-2.31,5.8-5.36,10.73-12.18,11.32c-6.78,0.59-10.33-4.48-14.64-9.09
		c-0.86,6.26-1.55,12.12-8.04,14.59c-5.21,1.99-10.2,0.32-15.41-5.44c-0.42,1.18-0.71,2.19-1.14,3.14c-2.04,4.56-3.7,9.37-6.3,13.6
		c-3.35,5.45-8.66,5.53-12.97,0.78c-0.81-0.89-1.56-1.82-3.04-3.55c-0.5,0.94-0.76,1.78-1.29,2.38c-3.02,3.39-6.86,4.65-11.31,4.07
		c-3.11-0.41-5.62-1.8-7.12-4.73c-2.13-4.16-1.1-12.44,2.06-15.89c1.79-1.95,4.13-2.18,6.07-0.76c3.11,2.29,5.92,5,8.79,7.6
		C127.49,241.98,128.24,243.02,129.47,244.42z M154.57,226.15c-0.08,0.02-0.16,0.05-0.23,0.07c0,1.11-0.12,2.24,0.02,3.34
		c0.66,5.34,3.75,8.24,8.98,8.51c5.14,0.27,8.27-2.15,9.61-7.37c1.74-6.77,0.19-12.68-4.67-17.68c-2.44-2.51-4.98-2.9-7.67-0.65
		c-2.46,2.06-4.54,4.6-6.66,7.04c-0.43,0.49-0.48,1.51-0.38,2.23C153.78,223.16,154.22,224.65,154.57,226.15z M110.19,244.36
		c0.48,3.28,1.15,6.1,4.27,7.63c4.25,2.08,10.4,0.28,12.8-3.76c0.33-0.55,0.58-1.62,0.29-2.01c-3.12-4.15-6.13-8.47-10.96-10.87
		c-1.67-0.83-3.21-0.37-3.89,1.43C111.73,239.26,111.01,241.82,110.19,244.36z M217.69,215.42c-0.17-2.46-0.65-4.58-2.94-5.79
		c-2.21-1.17-4.18-0.26-5.96,1.03c-1.19,0.86-2.33,1.86-3.26,2.99c-2.77,3.37-2.41,6.3,0.89,8.5c4,2.67,7.77,2.06,9.71-1.75
		C216.92,218.88,217.19,217.09,217.69,215.42z M200.67,215.31c1.77-5.1-2.34-23.4-5.65-25.56
		C194.2,198.88,197.19,206.78,200.67,215.31z"/>
	<path d="M440.48,263.51c-1.99-2.92-1.34-4.48,1.85-5.75c0.78-0.31,1.38-1.2,1.92-1.92c7.67-10.18,13.94-21.02,17.01-33.58
		c1.02-4.18,2.96-8.2,4.93-12.07c0.96-1.89,2.74-3.56,4.52-4.8c3.77-2.63,7.8-0.69,8.37,3.87c0.54,4.3-0.67,8.29-2.42,12.15
		c-5.4,11.92-12.95,22.26-22.41,31.32c-5.3,5.07-10.12,10.63-15.27,15.86c-0.97,0.98-2.02,2.86-3.83,1.42
		c-0.15-0.12,1.09-2.3,1.94-3.31C438.1,265.49,439.37,264.53,440.48,263.51z M449.24,252.97c0.44-0.08,0.66-0.05,0.76-0.14
		c10.88-9.84,19.55-21.29,25.22-34.89c0.6-1.44,1.02-3.01,1.2-4.56c0.26-2.31,1.24-5.25-1.64-6.39c-2.72-1.08-4.66,1.28-5.82,3.27
		c-1.99,3.41-3.94,7.01-4.96,10.78c-2.93,10.87-7.13,21.07-13.81,30.18C449.84,251.7,449.61,252.28,449.24,252.97z"/>
	<path d="M269.85,211.49c-3.53,7.09-15.25,9.02-23.25,4.24c-0.43,0.51-0.85,1.08-1.34,1.58c-1.62,1.65-3.08,3.52-4.92,4.87
		c-5.43,4-10.03,2.61-12.63-3.55c-0.86-2.05-1.83-4.05-2.82-6.05c-2.26-4.59-1.08-9.99,3.14-14.18c3.39-3.36,7.46-3.83,12.26-1.41
		c0.48,0.24,1.18,0.67,1.49,0.5c2.88-1.59,3.27,0.85,3.69,2.47c0.91,3.58,1.6,7.22,2.18,10.87c0.42,2.64,2.31,4.52,5.55,4.91
		c4.59,0.55,8.83-0.73,12.93-2.64C267.36,212.54,268.61,212.03,269.85,211.49z M235.31,197.75c-4.44-0.06-9.57,5.25-8.8,9.63
		c1.1,6.26,2.57,6.73,7.76,5c1.81-0.61,3.58-1.56,5.13-2.67c2.94-2.11,3.51-4.41,2.31-7.79
		C240.95,199.76,237.91,197.79,235.31,197.75z M229.79,216.83c0.78,4.95,4.18,6.72,8.66,3.74c1.95-1.3,3.6-3.16,5.14-4.97
		c1.6-1.89,1.28-3.86,0.02-5.13C238.88,212.65,234.51,214.66,229.79,216.83z"/>
	<path d="M430.78,277.51c1,0.16,2.03,0.22,3.01,0.48c4.08,1.11,5.3,3.94,3.25,7.64c-1.77,3.18-4.59,5.06-8.01,6.03
		c-2.02,0.57-3.89-0.03-4.72-1.95c-1.09-2.5-2.31-5.26-0.82-7.95C424.99,279.02,427.31,277.19,430.78,277.51z M428.41,288.55
		c2.39-0.03,6.18-2.68,6.49-5.14c0.1-0.79-0.75-1.8-1.39-2.51c-0.18-0.2-1.49,0.13-1.7,0.53
		C430.56,283.8,429.48,286.26,428.41,288.55z M427.36,286.59c0.75-1.58,1.5-3.17,2.55-5.36
		C426.62,282.47,426.03,283.61,427.36,286.59z"/>
	<path d="M321.06,193.98c-2.38,0.81-4.21-0.47-3.79-2.48c0.11-0.52,0.71-0.94,1.08-1.41c0.42,0.35,0.96,0.62,1.24,1.06
		C320.12,191.98,320.51,192.9,321.06,193.98z"/>
	<path class="st0" d="M402.95,452.93c8.79,0.29,17.66,1.13,26.47,0.7c8.76-0.43,17.45-2.14,26.35-3.31
		c0.12,0.91,0.26,1.43,0.24,1.94c-0.33,8.35-0.72,16.7-0.97,25.05c-0.05,1.74,0.33,3.51,0.7,5.23c1.7,7.9,1.68,15.82,1.05,23.86
		c-0.85,10.74-1.01,21.54-1.72,32.29c-0.77,11.59-1.72,23.18-5.04,34.42c-1.34,4.53-2.1,9.24-3.44,13.77
		c-2.12,7.15-6.98,12.12-13.8,14.73c-5.77,2.21-11.66,1.32-17.36-1.05c-10.66-4.43-19.69-11.27-27.65-19.4
		c-3.63-3.71-6.13-8.55-9.01-12.96c-1.19-1.83-1.73-3.81-4.73-3.84c-1.94-0.02-3.82-1.76-5.81-2.51c-2.79-1.05-3.56-0.52-3.62,2.5
		c-0.18,9.3-0.26,18.59-0.41,27.89c-0.14,8.45-0.76,16.92,1.13,25.27c0.42,1.86-0.41,2.32-2.2,2.5c-4.5,0.45-8.99,1.12-13.46,1.84
		c-2.53,0.4-4.93-1.45-4.88-4.08c0.18-11.33,0.37-22.67,0.59-34c0.13-6.51-0.93-7.17-7.11-4.98c-2.68,0.95-3.06,2.37-2.86,5.04
		c0.84,11.01,1.34,22.04,1.96,33.06c0.01,0.25-0.16,0.52-0.44,1.41c-1.92-1.08-3.86-1.89-5.46-3.12c-3.6-2.78-7.07-5.75-10.54-8.69
		c-2.47-2.09-5.3-2.91-8.3-1.76c-3.09,1.18-6.05,2.74-8.98,4.29c-4.63,2.45-9.18,5.03-13.7,7.51c-0.49-0.68-0.68-0.82-0.68-0.96
		c-0.02-6.23-0.34-6.49-6.46-6.04c-2.4,0.18-4.82,0.06-7.23,0.16c-3.52,0.15-7.21-0.25-10.53,0.67c-9.01,2.51-17.91,1.2-26.85,0.11
		c-7.46-0.92-14.89-2.08-22.35-3.02c-1.69-0.21-2.51-0.61-2.86-2.54c-1.6-8.76-3.28-17.51-5.28-26.18
		c-1.09-4.75-2.86-9.34-4.33-14.01c-0.38-0.07-0.76-0.14-1.14-0.22c-0.53,1.17-1.35,2.3-1.53,3.52c-1.35,9.45-2.47,18.93-3.86,28.37
		c-0.86,5.8,0.42,8.13,6.03,10.01c6.28,2.09,12.56,3.95,19.31,3.83c2.47-0.05,4.95,0.76,7.43,1.12c7.08,1.02,14.15,2.22,21.26,2.9
		c3.27,0.31,6.64-0.39,9.97-0.67c5.35-0.45,10.69-0.96,16.05-1.37c2.4-0.18,4.83-0.1,7.23-0.31c2.12-0.19,2.84,0.59,2.66,2.69
		c-0.42,4.62-0.79,9.25-0.99,13.88c-0.12,2.68,0.3,5.39,0.15,8.07c-0.2,3.75-0.69,7.49-1.04,11.08c-6.71-0.4-13.05-0.91-19.4-1.14
		c-8.36-0.3-16.73-0.23-25.08-0.6c-10.77-0.49-21.53-1.2-32.28-1.94c-8.16-0.56-16.51-0.42-24.41-2.22
		c-11.88-2.71-24.01-5.16-34.79-11.37c-2.05-1.18-3.92-2.81-5.55-4.55c-3.1-3.31-2.66-7.41-1.69-11.33c1.2-4.86,2.8-9.62,4.2-14.43
		c2.9-9.98,5.8-19.95,8.66-29.94c2-6.96,3.99-13.93,5.87-20.92c0.87-3.22,1.69-6.48,2.16-9.78c2.22-15.59,6.2-30.78,10.76-45.81
		c0.98-3.23,2.83-6.27,4.7-9.12c1.89-2.88,5.12-3.82,8.38-4.49c4.46-0.92,8.91-1.83,13.33-2.9c5.95-1.44,11.91-1.92,17.91-0.47
		c0.97,0.23,2.1,0.84,2.65,1.62c3.42,4.85,7.93,8.25,13.27,10.74c10.03,4.67,20.22,8.57,31.58,7.68c5.28-0.41,10.55-0.9,15.83-1.29
		c2.87-0.22,5.76-0.23,8.63-0.49c9.04-0.84,16.92-4.88,24.5-9.44c2.01-1.21,3.16-3.78,4.87-5.58c0.87-0.92,1.97-1.85,3.14-2.2
		c12.16-3.67,21.17,2.57,29.74,9.8c4.62,3.89,8.92,8.15,13.48,12.11c4.64,4.03,7.75,9.19,11.15,14.18
		c3.51,5.15,7.95,9.44,13.99,11.43c5.9,1.94,10.07,0.07,13.12-5.35c3.03-5.38,4.4-11.2,4.68-17.33c0.2-4.36,0.51-8.71,0.78-13.07
		c0.59-9.32,0.27-18.59-2.36-27.61C405.8,458.71,404.2,455.84,402.95,452.93z M209.17,556.97c-0.39,0.05-0.78,0.09-1.16,0.14
		c0.12,1.72,0.1,3.46,0.38,5.15c1.18,7.25,4.05,13.7,9.51,18.76c3.42,3.17,6.78,3.04,10.05-0.24c0.84-0.85,1.68-1.78,2.23-2.83
		c4.87-9.19,8.35-18.82,8.91-29.32c0.04-0.84-0.16-1.69-0.24-2.54c-0.28-0.04-0.56-0.08-0.85-0.12c-0.35,0.96-0.78,1.89-1.04,2.87
		c-1.68,6.45-3.11,12.99-5.08,19.35c-1.03,3.32-2.69,6.55-4.64,9.44c-2.76,4.11-5.41,4.11-8.81,0.49
		c-4.53-4.83-6.89-10.71-8.19-17.1C209.96,559.66,209.53,558.32,209.17,556.97z M300.74,553.98c-0.5,0.8-0.77,1.02-0.75,1.22
		c0.77,7.99,3.48,15.21,9.01,21.13c2.36,2.52,5.91,2.8,8.61,0.52c2.29-1.94,4.46-4.29,5.92-6.89c4.22-7.49,5.1-15.84,5.31-24.26
		c0.02-0.91-0.55-1.83-0.85-2.75c-0.29,0.04-0.58,0.07-0.88,0.11c-0.21,0.94-0.5,1.87-0.61,2.82c-0.34,3.05-0.44,6.13-0.93,9.15
		c-1.03,6.47-2.52,12.82-7.11,17.87c-3.71,4.08-7.16,4.02-9.87-0.71c-2.56-4.47-4.33-9.39-6.41-14.13
		C301.69,556.88,301.33,555.63,300.74,553.98z"/>
	<path class="st0" d="M487.63,624.75c-1.78,7.96,2.4,13.71,5.2,19.56c4.55,9.5,6.86,19.62,9.9,29.56c0.54,1.76-0.17,2.38-1.74,2.63
		c-3.21,0.5-6.46,0.89-9.62,1.62c-3.48,0.8-6.87,1.83-7.49,6.31c-0.12,0.86-1.5,1.99-2.48,2.22c-5.4,1.25-10.82,2.82-16.31,3.19
		c-6.55,0.44-13.19-0.52-19.78-0.35c-13.74,0.35-27.52,0.52-41.2,1.73c-12.24,1.08-24.45,1.82-36.74,1.85
		c-15.61,0.03-31.23,0.82-46.84,0.65c-29.93-0.33-59.86-1.05-89.78-1.76c-5.28-0.13-10.63-0.58-15.8-1.63
		c-15.13-3.08-30.46-3.37-45.79-3.83c-18.67-0.56-37.35-1.05-56.02-1.68c-4.08-0.14-8.14-0.71-12.21-1.08
		c-7.2-0.65-14.42-1.17-21.61-1.96c-6.83-0.75-13.64-1.71-20.45-2.67c-2.31-0.33-3.84-1.89-3.7-4.19c0.19-3.01,0.61-6.07,1.45-8.96
		c2.76-9.55,5.94-18.98,8.55-28.57c1.23-4.51,1.52-9.28,2.27-14.11c5-0.32,10.34-0.69,15.69-1.01c5.19-0.31,10.39-0.61,15.58-0.83
		c4.26-0.18,8.53-0.15,12.79-0.39c6.39-0.37,12.77-0.91,19.15-1.38c0.46-0.03,0.92-0.11,1.39-0.13c1.76-0.07,3.83-0.71,5.2,0
		c1.16,0.6,1.58,2.73,2.2,4.24c2.58,6.23,8.23,8.85,13.73,11.57c2.07,1.02,4.36,1.6,6.55,2.37c16.8,5.95,34.16,8.45,51.92,9.07
		c21.08,0.73,42.14,1.82,63.21,2.8c2.22,0.1,4.43,0.53,6.64,0.7c2.25,0.18,4.52,0.37,5.56-2.45c0.16-0.45,1.21-0.95,1.72-0.84
		c3.98,0.86,8.08,2.04,9.82,6.07c3.86,8.91,11.43,9.53,19.38,8.91c4.22-0.33,8.29-1.47,12.67-0.87c2.37,0.32,4.95-0.94,7.7-1.55
		c-0.11,2.13-0.32,4.64-0.36,7.16c-0.06,3.43-0.39,6.92,2.89,9.43c0.64,0.49,0.51,1.92,0.89,2.85c0.65,1.61,1.23,3.32,2.22,4.72
		c0.76,1.09,2.16,1.08,2.47-0.5c0.62-3.17,1.55-6.44,1.3-9.58c-0.32-3.93-1.7-7.77-2.64-11.64c-0.13-0.54-0.45-1.03-0.59-1.56
		c-0.94-3.63-1.64-7.06,0.95-10.6c1.85-2.53,3.23-5.66,3.88-8.73c0.37-1.71-0.82-4.07-1.92-5.71c-1.28-1.9-1.7-3.06,0.08-4.96
		c1.38-1.46,1.78-3.8,3.02-5.44c0.72-0.96,2.2-1.73,3.41-1.86c4.71-0.5,9.44-1,14.17-0.97c24.6,0.16,49.18,1.47,73.79,0.19
		c4.45-0.23,9.06,0.81,13.46,1.86c6.8,1.62,13.56,1.93,20.47,1.12C479.67,624.88,483.54,624.93,487.63,624.75z"/>
	<path class="st0" d="M239.67,326.97c-6.67-3.36-11.84-7.31-13.41-14.7c-0.3-1.42-1.13-2.73-1.71-4.1c-0.84,1.3-1.98,2.5-2.45,3.93
		c-0.7,2.1-0.91,4.35-1.34,6.54c-0.28,1.4-0.57,2.8-0.86,4.2c-0.39,0.01-0.78,0.02-1.17,0.02c-0.4-3.12-0.74-6.26-1.23-9.37
		c-0.2-1.26-0.71-2.46-1.09-3.69c-0.81,1.02-2.06,1.92-2.37,3.07c-4.16,15.29-16.84,22.97-27.92,32.08
		c-0.22-0.17-0.43-0.34-0.65-0.51c0.65-0.79,1.42-1.52,1.92-2.39c0.63-1.1,1.04-2.33,1.54-3.5c-1.29,0.18-2.66,0.13-3.86,0.57
		c-3.91,1.44-7.68,3.3-11.65,4.54c-4.46,1.4-8.98,0.33-13.52-0.83c0.55-0.21,1.08-0.49,1.65-0.61c9.14-1.94,17.3-6.01,23.88-12.54
		c3.28-3.25,5.6-7.56,7.99-11.6c3.16-5.34,6-10.87,8.92-16.36c0.38-0.72,0.4-1.64,0.59-2.47c-0.85,0.12-1.84,0.01-2.52,0.42
		c-2.54,1.49-4.99,3.14-7.97,4.35c1.24-1.75,2.37-3.58,3.73-5.23c4.89-5.96,11.03-10.48,17.43-14.66c2.25-1.47,4.58-2.87,6.71-4.5
		c0.83-0.64,1.23-1.83,1.83-2.78c-1.09-0.28-2.22-0.91-3.25-0.77c-2.67,0.34-5.29,1.02-7.93,1.56c-1.25,0.25-2.5,0.47-4.09,0.09
		c0.71-0.6,1.36-1.3,2.14-1.78c7.42-4.51,15.22-8.15,23.73-10.11c1.45-0.33,2.97-0.57,4.28-1.2c1.12-0.54,1.99-1.6,2.97-2.42
		c-1.09-0.73-2.08-1.8-3.28-2.12c-2.31-0.61-4.73-0.78-7.16-1.14c3.22-3.18,14.61-3.19,25.06-0.08c-0.27-2.68-0.54-5.35-0.8-8.01
		c0.17-0.06,0.34-0.12,0.52-0.19c0.91,1.11,1.69,2.39,2.78,3.29c0.85,0.7,2.17,1.37,3.13,1.2c0.69-0.12,1.4-1.59,1.64-2.57
		c1.61-6.48,1.72-6.84,4.32-9.38c0.18,2.01,0.13,3.72,0.55,5.31c0.4,1.52,0.97,3.69,2.05,4.14c0.99,0.41,3.06-0.79,4.17-1.81
		c4.4-4,8.58-8.23,12.91-12.3c1.04-0.98,2.32-1.69,3.49-2.53c0.22,0.15,0.44,0.31,0.66,0.46c-0.36,1.06-0.56,2.21-1.1,3.17
		c-1.82,3.24-3.86,6.36-5.6,9.64c-0.49,0.91-0.26,2.2-0.36,3.32c1.13-0.1,2.45,0.14,3.35-0.37c4.35-2.49,8.52-5.31,12.89-7.77
		c3.56-2,7.3-3.67,10.99-5.43c1-0.48,2.09-0.93,3.17-1.02c1.2-0.1,2.45,0.21,3.67,0.35c-0.59,1.06-0.96,2.34-1.79,3.15
		c-3.15,3.03-6.46,5.87-9.67,8.84c-0.95,0.88-1.98,1.79-2.58,2.9c-0.79,1.44-2.08,3.5-1.59,4.57c0.99,2.15,3.37,1.1,5.24,0.74
		c5.45-1.04,10.87-2.29,16.36-3.01c2.14-0.28,4.44,0.65,6.67,1.03c0.09,0.33,0.17,0.65,0.26,0.98c-1.05,0.94-2.04,1.96-3.16,2.79
		c-1.86,1.38-3.92,2.52-5.68,4.01c-0.79,0.67-1.07,1.95-1.58,2.95c0.98,0.38,1.95,1.04,2.94,1.07c2.31,0.08,4.65-0.33,6.96-0.2
		c1.99,0.11,4.09,0.39,5.89,1.17c2.02,0.87,1.92,2.19,0.12,3.56c-3.63,2.75-3.83,4.55-0.65,7.91c3.27,3.46,7.56,4.75,12.13,4.77
		c5.1,0.02,10.21-0.39,15.31-0.63c0.9-0.04,1.8-0.15,3.47-0.3c-1.63,1.77-2.98,2.89-3.87,4.3c-0.72,1.15-1.54,2.92-1.12,3.91
		c0.41,0.96,2.41,1.89,3.59,1.75c4.23-0.48,8.41-1.37,12.59-2.21c3.05-0.62,6.06-1.41,9.09-2.13c0.15,0.26,0.31,0.51,0.46,0.77
		c-1.54,1.52-3.1,3.04-4.63,4.58c-2.5,2.49-5.06,4.93-7.45,7.53c-1.51,1.64-2.99,3.52-1.88,5.99c1.14,2.54,3.6,3.06,5.9,2.81
		c4.41-0.48,8.76-1.43,13.14-2.18c1.51-0.26,3.02-0.52,5.32-0.91c-0.78,1.58-1.04,2.56-1.64,3.26c-2.71,3.17-5.54,6.24-8.28,9.38
		c-1.7,1.95-3.59,3.8-4.94,5.98c-1.71,2.74-0.69,4.88,2.48,5.62c2.07,0.48,4.26,0.44,6.34,0.88c2.88,0.6,6.01,0.9,8.5,2.29
		c5.19,2.9,4.87,8.24-0.35,11.08c-0.98,0.53-2.01,0.97-3.03,1.43c-4.91,2.22-5.12,3.59-1.97,7.88c1.24,1.69,2.16,3.95,2.33,6.02
		c0.45,5.55-2.96,7.79-7.95,5.37c-2.15-1.04-4.2-2.42-6.03-3.96c-1.69-1.43-3.07-2.58-5.6-2.91c-1.83-0.24-3.56-2.98-4.87-4.92
		c-1.32-1.95-3.11-4.17-0.53-6.67c0.34-0.33-0.14-1.51-0.25-2.33c-3.22,1.21-5.95,2.5-8.82,3.2c-1.23,0.3-2.91-0.34-4.13-1.01
		c-3.17-1.73-6.18-2.55-9.18,0.22c-0.19,0.18-0.51,0.36-0.74,0.33c-3.67-0.45-4.83,1.6-4.3,5.47c-3.57-1.78-6.99-2.3-8.74-5.6
		c-0.04-0.08-0.09-0.18-0.16-0.23c-1.21-0.72-2.42-1.43-3.63-2.14c-0.14,1.19-0.29,2.37-0.47,3.85c-2.8-0.69-4.43-2.89-5.62-5.55
		c-1.41-3.14-2.71-6.32-4.18-9.42c-1.25-2.65-3.35-4.47-6.17-5.26c-0.75-0.21-1.85,0.02-2.47,0.49c-0.29,0.22,0.01,1.54,0.34,2.21
		c0.51,1.05,1.27,1.97,2.33,3.56c-6.78-1.03-13.24-0.41-18.49-4.82c-1.99-1.67-4.01-3.33-6.12-4.84c-0.54-0.39-1.49-0.2-2.25-0.27
		c0.08,0.77-0.12,1.72,0.27,2.26c1.89,2.65,3.93,5.18,5.91,7.76c0.36-0.18,0.72-0.36,1.08-0.53c-1.47-0.1-2.97-0.04-4.4-0.32
		c-11.87-2.32-21.48-8.01-27.68-18.75c-0.4-0.7-1.49-1-2.26-1.49c0,0.91-0.32,1.99,0.06,2.7c1.8,3.46,3.79,6.82,5.7,10.23
		c0.44,0.78,0.84,1.57,1.45,2.71c-1.18,0.13-1.99,0.38-2.75,0.27c-8.72-1.29-16.72-4.06-21.56-12.09c-1.49-2.48-2.02-5.52-3.1-8.27
		c-0.35-0.9-1.05-1.66-1.6-2.48c-0.28,0.97-0.87,1.95-0.8,2.89c0.28,4.08,0.75,8.14,1.13,12.21
		C239.71,325.16,239.67,325.78,239.67,326.97z"/>
	<path class="st0" d="M317.37,334.28c1.44,2.83,2.94,5.64,4.29,8.51c0.71,1.51,1.03,3.21,1.79,4.68c1.97,3.83,4.56,6.85,9.5,6.29
		c0.44-0.05,0.97,0,1.35,0.21c4.27,2.39,8.48,4.9,12.8,7.19c1.04,0.55,3.02,0.97,3.58,0.42c1.42-1.37-0.14-2.41-1.2-3.29
		c-0.57-0.47-1.45-0.75-1.75-1.34c-0.59-1.16-0.87-2.48-1.28-3.73c1.03-0.04,2.08-0.2,3.1-0.11c2.03,0.19,4.04,0.71,6.07,0.75
		c7.92,0.12,12.98,3.57,15.8,11.01c0.86,2.26,1.68,4.52,2.49,6.8c1.11,3.12-0.14,7.31-2.77,9.27c-4.4,3.29-9.28,5.53-14.76,6.13
		c-1.7,0.18-3.52-0.12-5.2-0.54c-3.08-0.77-4.44,0-4.66,3.15c-0.11,1.57-0.1,3.19,0.18,4.72c1.78,9.88,0.25,19.67-1.23,29.36
		c-0.73,4.78-2.92,9.39-4.86,13.9c-2.04,4.71-6.19,7.2-11.03,8.12c-7.21,1.37-14.46,2.74-21.75,3.37c-8.01,0.69-16.1,0.4-24.14,0.8
		c-6.21,0.31-12.39,1.1-18.59,1.55c-4.95,0.37-9.92,0.49-14.87,0.87c-1.21,0.09-2.37,1.11-3.57,1.14
		c-6.18,0.15-12.37,0.15-18.55,0.13c-1.85-0.01-3.71-0.34-5.56-0.33c-5.27,0.05-9.95-1.84-13.92-4.99
		c-4.05-3.22-7.95-6.78-11.26-10.74c-1.83-2.2-2.9-5.44-3.3-8.35c-1.31-9.48-2.19-19.01-3.13-28.54c-0.21-2.11-0.15-4.26,0.01-6.37
		c0.18-2.32-0.33-2.9-2.65-2.15c-3.45,1.11-6.97,2.11-10.25,3.6c-9.27,4.22-21.28-5.7-19.81-14.86c0.07-0.46,0.02-0.97,0.2-1.38
		c3.46-7.73,8.08-14.41,16.37-17.63c2.77-1.08,5.6-1.99,8.42-2.91c3.64-1.18,7.21-1.76,10.44,1.17c1.31,1.19,2.21,0.52,2.62-0.96
		c1.88-6.8,3.55-13.67,5.68-20.39c0.95-3.01,2.59-5.87,4.32-8.53c2.91-4.46,6.14-8.71,9.22-13.03c0.16,0.71,0.41,1.99,0.75,3.25
		c0.34,1.25,0.62,2.56,1.21,3.7c1.07,2.04,3.1,2.04,3.94-0.09c0.77-1.96,1.02-4.12,1.48-6.2c0.29-1.31,0.53-2.63,0.78-3.91
		c2.16,3.09,3.84,6.33,6.31,8.79c2.38,2.37,5.51,4.02,8.43,5.8c0.83,0.51,2.07,0.34,3.13,0.49c0.14-1.14,0.41-2.28,0.38-3.41
		c-0.04-1.34-0.33-2.68-0.56-4.32c0.62,0.31,0.94,0.37,1.06,0.55c4.71,7.26,12.17,10.04,19.98,12.19c1.14,0.31,2.39,0.32,3.6,0.33
		c4.08,0.04,4.77-0.75,4.06-5.17c0.99,0.78,1.65,1.34,2.35,1.85c6.96,5.08,14.74,7.83,23.35,8c1.25,0.03,2.51-0.83,3.79-1.16
		c0.73-0.19,1.54-0.3,2.28-0.21c4.24,0.55,8.45,1.27,12.7,1.72c1.15,0.12,2.37-0.54,3.56-0.84c-0.46-1.02-0.93-2.05-1.39-3.07
		c-0.1-0.23-0.2-0.47-0.3-0.7C316.74,334.65,317.05,334.46,317.37,334.28z M310.68,391.37c-1.07,1.3-1.74,2.64-2.83,3.29
		c-1.83,1.08-3.89,1.82-5.91,2.53c-3.76,1.32-7.53,2.64-11.36,3.74c-6.23,1.79-12.51,3.39-18.77,5.1
		c-7.48,2.04-15.14,1.71-22.73,1.38c-8.96-0.4-17.7-2.42-25.91-6.06c-3.91-1.73-7.11-4.71-10.19-8.61c1.47-0.9,2.63-1.62,3.8-2.34
		c-0.18-0.33-0.37-0.66-0.55-0.98c-0.79,0.06-1.7-0.11-2.35,0.22c-4.23,2.12-7.66,12.61-5.51,16.96c0.32,0.65,1.38,0.94,2.09,1.39
		c0.13-0.69,0.47-1.42,0.35-2.07c-0.67-3.65-0.12-7.09,1.36-10.86c2.73,3.04,5.51,5.3,6.33,9.3c0.72,3.51,1.75,7.25,3.73,10.14
		c6.32,9.23,15.49,14.46,26.49,15.66c6.98,0.76,14.11,0.21,21.17,0.13c11.57-0.14,22.66-2.74,33.41-6.85
		c4.51-1.73,6.75-5.93,9.58-9.46c1.72-2.15,0.23-4.27,0.05-6.41c-0.05-0.64,0.08-1.31,0.02-1.95c-0.25-2.85-0.56-5.7-0.78-8.56
		c-0.05-0.67-0.09-1.65,0.3-1.98c2.18-1.83,4.49-3.51,7.04-5.45c0.38,1.21,0.63,2.17,0.97,3.1c0.8,2.18,1.54,4.38,2.51,6.48
		c0.24,0.53,1.26,0.7,1.92,1.03c0.04-0.68,0.29-1.43,0.1-2.04c-1.13-3.54-2.31-7.06-3.59-10.54c-0.83-2.25-2.48-3.62-5.35-4.03
		c1.8,2.22,2.87,4.27-0.07,5.96C314.33,390.55,313.29,393.31,310.68,391.37z M275.19,379.65c0.17-0.09,0.34-0.18,0.51-0.26
		c0.74,1.01,1.46,2.03,2.21,3.04c4.62,6.24,15.89,8.93,21.94,1.57c5.88-7.15,7.92-12.96,3.61-22.38
		c-3.96-8.64-14.36-10.68-21.66-5.33c-2.43,1.78-4.54,4.01-6.95,6.17c-6.51-6.18-13.81-5.98-21.68-2.29c-0.94-1.45-1.93-3-2.96-4.53
		c-3.12-4.63-7.48-6.44-12.97-5.66c-1.47,0.21-2.94,0.38-4.42,0.5c-8.08,0.64-14.09,6.99-14.97,15.04
		c-0.81,7.45,3.06,12.47,8.07,16.81c5.89,5.1,14.43,4.53,20.08-0.85c0.53-0.51,1.12-0.96,1.68-1.44c0.17,0.16,0.34,0.33,0.52,0.49
		c-0.6,0.99-1.3,1.95-1.79,2.99c-1.26,2.66-2.85,5.25-3.52,8.06c-0.87,3.66,1.41,5.51,4.99,4.41c2.82-0.86,4.9-0.49,6.75,2.13
		c1.83,2.61,3.53,2.64,6.16,0.78c2.69-1.91,5.29-3,8.74-1.4c3.1,1.44,6.69-0.27,7.1-3.22c0.4-2.88,0.24-5.87-0.02-8.79
		C276.42,383.53,275.68,381.6,275.19,379.65z M359.8,364.81c-3.12,0.02-5.72,1.68-6.01,3.89c-0.29,2.23-0.59,4.46-0.76,6.71
		c-0.19,2.54,0.39,5.02,2.74,6.24c2.22,1.15,4.72,0.58,6.35-1.32c1.71-2,3.41-4.21,4.32-6.63
		C368.1,369.3,364.51,364.78,359.8,364.81z M189.01,372.34c0.21-0.16,0.42-0.32,0.63-0.48c-0.4-0.63-0.66-1.41-1.21-1.85
		c-4.94-3.97-14.38-1.07-16.3,4.96c-0.96,3.01-0.23,5.72,1.95,7.26c2.54,1.79,7.64,1.69,10-0.2c2.98-2.37,3.89-5.71,2.56-9.27
		c-0.15-0.39-0.17-0.83-0.32-1.63C187.47,371.65,188.24,372,189.01,372.34z M239.27,345.24c0.04,0.14,0.08,0.27,0.12,0.41
		c3.55-0.95,7.11-1.89,10.66-2.86c1.62-0.44,2.95-1.14,2.86-3.17c-0.09-2.07-1.42-2.96-3.19-3.25c-5.07-0.82-9.49,0.67-13.3,4.03
		c-0.41,0.36-0.74,0.84-1,1.33c-0.99,1.82-0.4,3.05,1.64,3.39C237.78,345.24,238.53,345.21,239.27,345.24z M287.65,349.3
		c1.9-0.39,3.28-0.4,4.37-0.98c1.03-0.55,2.35-1.66,2.42-2.6c0.07-0.91-1.11-2.39-2.08-2.81c-2.5-1.07-5.16-2.04-7.83-2.35
		c-1.24-0.14-3.39,1.09-3.81,2.19c-0.42,1.12,0.35,3.42,1.37,4.19C283.74,348.22,286.03,348.67,287.65,349.3z"/>
	<path class="st0" d="M410.01,403.68c0-2.18,0-3.71,0-5.55c1.71,0.31,3.15,0.56,4.58,0.82c5.7,1.05,10.76-1.46,16-2.92
		c0.4-0.11,0.6-0.93,0.9-1.42c-0.55-0.21-1.17-0.71-1.64-0.59c-2.07,0.51-4.15,1.07-6.13,1.86c-4,1.59-8.03,1.45-12.02,0.27
		c-0.86-0.26-1.84-1.56-1.98-2.5c-0.8-5.31-1.66-10.65-1.89-16.01c-0.18-4.11,0.53-8.26,0.85-12.39c0.29-0.07,0.57-0.15,0.86-0.22
		c0.44,0.58,1.08,1.1,1.29,1.76c1.21,3.76,2.35,7.55,3.45,11.34c0.46,1.6,0.61,3.31,1.19,4.86c0.27,0.72,1.23,1.17,1.88,1.75
		c0.55-0.67,1.42-1.27,1.59-2.02c0.36-1.61,0.38-3.31,0.49-4.97c0.31-4.75,0.79-9.46,3.21-13.71c0.17-0.3,0.44-0.54,1.52-0.85
		c0.44,3.3,0.94,6.59,1.29,9.89c0.45,4.22,0.62,8.48,1.29,12.66c0.19,1.18,1.69,2.15,2.59,3.22c0.94-1.01,2.42-1.87,2.74-3.05
		c1.14-4.2,1.78-8.54,2.84-12.77c0.74-2.96,1.86-5.82,2.81-8.73c0.37,0.06,0.75,0.12,1.12,0.17c0.21,1.69,0.53,3.37,0.6,5.06
		c0.13,3.16,0.06,6.32,0.19,9.48c0.06,1.48,0.09,3.06,0.64,4.39c0.58,1.42,1.76,2.59,2.67,3.87c0.93-1.14,2.14-2.16,2.73-3.45
		c1.91-4.22,3.57-8.56,5.36-12.83c0.34-0.82,0.85-1.57,1.72-3.15c0.45,1.84,0.86,2.83,0.92,3.84c0.54,9.63,1.6,19.28,1.33,28.9
		c-0.25,9.15-1.84,18.27-2.98,27.38c-0.7,5.61-1.69,11.19-2.48,16.79c-0.4,2.88-1.77,4.28-4.82,4.67
		c-9.31,1.18-18.55,2.87-28.01,2.25c-2.17-0.14-2.8-0.99-2.95-3.05c-0.2-2.86-0.81-5.69-1.23-8.53c-0.46-3.11-2.27-5.28-4.91-6.73
		c-3.58-1.97-7.17-3.92-10.87-5.63c-4.4-2.04-7.06-5.17-6.75-10.17c0.48-7.88-1.83-15.19-4.27-22.49c-0.18-0.53-0.6-1.12-0.48-1.57
		c0.34-1.28,0.64-2.76,1.5-3.61c0.41-0.4,2.58,0.1,3.05,0.79c2.05,3.05,4.13,6.17,5.52,9.55c2.14,5.22,3.44,6.12,9.16,5.91
		c7.7-0.29,15.42-0.36,23.13-0.28c2.26,0.02,4.51,0.95,6.79,1.31c0.69,0.11,1.46-0.25,2.19-0.39c-0.47-0.58-0.85-1.54-1.42-1.67
		c-2.78-0.63-5.61-1.35-8.44-1.47C421.29,403.52,415.82,403.68,410.01,403.68z"/>
	<path class="st0" d="M314.21,628.08c3.54,1.37,7.04,2.9,10.65,4.06c1.87,0.6,3.22-0.37,4.68-1.98c1.99-2.18,4.67-3.92,7.37-5.18
		c2.27-1.07,4.97-1.39,7.51-1.65c0.96-0.1,2.29,0.7,2.95,1.5c0.35,0.43-0.08,2.04-0.67,2.6c-4.01,3.83-8.15,7.53-12.26,11.26
		c-0.34,0.31-0.88,0.49-1.08,0.86c-0.32,0.59-0.42,1.29-0.62,1.94c0.73-0.03,1.66,0.23,2.15-0.13c2.57-1.84,5.02-3.83,7.52-5.76
		c0.43-0.34,0.91-0.62,1.97-1.34c1.02,2.16,2.3,4.09,2.67,6.19c0.09,0.53-2.73,1.57-3.87,2.54c-0.83,1.02-1.51,2.24-2.53,3.01
		c-1.62,1.22-3.55,2.03-5.17,3.25c-0.54,0.4-0.55,1.51-0.8,2.3c0.75-0.02,1.5,0,2.24-0.08c0.24-0.03,0.43-0.39,0.68-0.47
		c1.04-0.33,2.1-0.61,3.16-0.9c-0.3,1.13-0.3,2.47-0.95,3.35c-3.15,4.31-7.13,6.6-12.75,5.07c-1.42-0.38-3.1,0.24-4.66,0.34
		c-4.13,0.27-8.27,0.67-12.4,0.7c-3.87,0.03-6.76-1.99-8.43-5.44c-2.32-4.81-5.99-7.63-11.22-8.67c-0.83-0.17-2.03-1.48-2.04-2.28
		c-0.09-7.24,0.08-14.48,0.09-21.72c0-1.82,0.75-2.76,2.37-3.6c5.5-2.85,10.84-6.01,16.34-8.86c2.2-1.14,4.62-2.22,7.03-2.47
		c1.69-0.18,3.81,0.71,5.26,1.76c3.14,2.29,5.89,5.12,8.98,7.5c2.18,1.68,4.67,2.96,7.01,4.45c0.51,0.33,1.26,0.72,1.34,1.18
		c0.07,0.43-0.5,1.18-0.98,1.44c-3.27,1.77-6.22,3.78-8.9,6.51c-1.98,2.01-4.88,0.06-7.2-1.05c-0.91-0.43-1.62-1.35-2.56-1.64
		c-0.82-0.26-1.82,0.04-2.73,0.09C314.31,627.19,314.26,627.64,314.21,628.08z"/>
	<path class="st0" d="M248.53,455.75c0.78,2.05,0.63,3.14-1.79,3.62c-5.54,1.1-11.13,2.07-15.46,6.35c-3,2.96-3.19,4.9-0.37,8.02
		c3.79,4.19,9.12,5.27,14.07,6.94c9.46,3.2,19.18,4.25,29.14,2.61c3.29-0.54,6.65-0.77,9.98-0.99c5.34-0.34,9.74-2.82,13.92-5.87
		c1.35-0.99,2.84-1.82,4.04-2.96c1.38-1.32,2.87-2.74,3.67-4.42c1.93-4.05,0.97-6.2-2.89-8.51c-5.53-3.31-11.62-2.49-18.29-2.7
		c0-1.37-0.12-2.88,0.07-4.36c0.06-0.47,0.96-1.15,1.51-1.18c5.36-0.35,10.73-0.68,16.11-0.76c1.1-0.02,2.24,0.97,3.31,1.59
		c0.63,0.36,1.12,1.22,1.74,1.3c5.49,0.72,8.12,5.23,11.5,8.68c0.79,0.81,1.27,2.35,1.2,3.52c-0.5,8.97-3.51,15.95-12.52,20.22
		c-9.09,4.32-18.38,6.18-28.23,6.52c-7.23,0.25-14.5,1.41-21.67,0.9c-11.52-0.83-22.1-5.13-31.1-12.37
		c-3.08-2.48-5.27-6.45-6.99-10.14c-1.93-4.17-0.31-7.06,3.51-9.6C230.76,456.98,239.52,456.09,248.53,455.75z"/>
	<path class="st0" d="M281.5,460.41c0.55,1.48,1.37,2.92,1.61,4.45c0.75,4.89,1.28,9.81,1.93,15.01c-0.15,0.03-0.92,0.27-1.71,0.35
		c-9.3,0.92-18.56,2.62-27.98,1.09c-6.18-1-6.39-0.92-4.97-6.77c1.29-5.31,1.37-10.63,0.95-15.99c-0.2-2.6,0.62-3.47,3.34-3.66
		c7.66-0.54,15.28-1.54,22.93-2.24c1.45-0.13,4.2,0.1,4.23,0.4c0.23,2.01-0.07,4.09-0.31,6.14c-0.06,0.47-0.53,0.9-0.82,1.35
		C280.97,460.48,281.23,460.44,281.5,460.41z"/>
	<path class="st0" d="M286.44,471.2c-0.39-2.75-0.72-5.52-1.18-8.26c-0.29-1.71,0.19-2.87,2.03-2.8c4.86,0.19,9.85-0.46,14.32,2.35
		c2.95,1.85,4,4.21,1.49,6.52c-3.96,3.65-8.7,6.47-13.2,9.5c-0.31,0.21-1.79-0.57-2.04-1.18c-0.81-1.93-1.29-4-1.9-6.02
		C286.12,471.28,286.28,471.24,286.44,471.2z"/>
	<path class="st0" d="M246.68,479.18c-5.16-2.04-10.78-2.75-14.75-7.17c-1.53-1.7-1.2-2.97,0.27-4.53
		c4.11-4.37,9.69-5.18,15.09-6.38c0.46-0.1,1.52,0.71,1.63,1.24c0.26,1.25,0.29,2.61,0.09,3.87
		C248.34,470.41,247.52,474.58,246.68,479.18z"/>
	<path class="st0" d="M203.65,572.21c3.42,10.98,5.08,22.35,7.09,34.16c-3.46-1.16-6.78-1.99-9.8-3.44
		c-1.04-0.5-2.01-2.64-1.86-3.89c1.1-8.95,2.5-17.86,3.81-26.79C203.14,572.24,203.39,572.22,203.65,572.21z"/>
	<path class="st0" d="M342.87,580.13c0,3.95,0.05,7.9-0.01,11.85c-0.12,8.26-0.27,16.52-0.5,24.77c-0.03,0.92-0.69,1.82-1.06,2.72
		c-0.56-0.9-1.57-1.77-1.62-2.69c-0.43-8.81-0.67-17.63-1.02-26.45c-0.07-1.66-0.23-3.34-0.58-4.97
		C337.17,581.2,338.05,580.13,342.87,580.13z"/>
	<path class="st0" d="M342,658.38c0.95,4.49,1.94,8.98,2.81,13.49c0.11,0.59-0.34,1.29-0.54,1.94c-0.48-0.33-0.98-0.62-1.43-0.98
		c-5.16-4.23-1.27-9.51-2.21-14.23C341.1,658.52,341.55,658.45,342,658.38z"/>
	<path class="st0" d="M363.93,353.28c3.34-1.75,3.78-1.46,4.33,2.76C366.76,355.08,365.53,354.29,363.93,353.28z"/>
	<path class="st0" d="M393.96,244.05c-3.26-0.02-4.2-1-4.04-4.17c0.32-6.09,5.25-12.51,11.07-14.43c3.37-1.11,6.09-0.37,7.96,2.17
		c2.01,2.73,1.87,5.28-0.47,8.32C404.13,241.64,399.74,244.08,393.96,244.05z"/>
	<path class="st0" d="M335.37,213.25c0.16-2.18,0.1-4.41,0.57-6.52c0.26-1.17,1.33-2.94,2.19-3.03c1.49-0.16,3.18,0.62,4.61,1.34
		c0.41,0.2,0.62,1.92,0.25,2.35c-2,2.31-4.21,4.42-6.35,6.61C336.22,213.75,335.79,213.5,335.37,213.25z"/>
	<path class="st0" d="M154.57,226.15c-0.35-1.5-0.78-2.99-1-4.51c-0.1-0.73-0.05-1.74,0.38-2.23c2.12-2.44,4.2-4.98,6.66-7.04
		c2.69-2.25,5.23-1.86,7.67,0.65c4.86,5.01,6.41,10.91,4.67,17.68c-1.34,5.22-4.47,7.64-9.61,7.37c-5.23-0.27-8.32-3.17-8.98-8.51
		c-0.14-1.1-0.02-2.22-0.02-3.34C154.41,226.2,154.49,226.18,154.57,226.15z"/>
	<path class="st0" d="M110.19,244.36c0.82-2.53,1.55-5.1,2.5-7.58c0.69-1.8,2.22-2.26,3.89-1.43c4.84,2.4,7.84,6.72,10.96,10.87
		c0.29,0.39,0.04,1.45-0.29,2.01c-2.41,4.04-8.56,5.84-12.8,3.76C111.33,250.46,110.66,247.63,110.19,244.36z"/>
	<path class="st0" d="M217.69,215.42c-0.5,1.67-0.77,3.46-1.55,4.98c-1.95,3.81-5.71,4.42-9.71,1.75c-3.3-2.2-3.66-5.13-0.89-8.5
		c0.93-1.13,2.07-2.13,3.26-2.99c1.78-1.29,3.75-2.2,5.96-1.03C217.04,210.84,217.52,212.97,217.69,215.42z"/>
	<path class="st0" d="M200.67,215.31c-3.48-8.53-6.47-16.43-5.65-25.56C198.33,191.91,202.44,210.21,200.67,215.31z"/>
	<path class="st0" d="M449.24,252.97c0.37-0.69,0.6-1.26,0.95-1.75c6.69-9.11,10.88-19.31,13.81-30.18
		c1.02-3.78,2.97-7.37,4.96-10.78c1.16-1.99,3.09-4.35,5.82-3.27c2.88,1.14,1.9,4.08,1.64,6.39c-0.17,1.55-0.6,3.12-1.2,4.56
		c-5.67,13.6-14.34,25.05-25.22,34.89C449.9,252.92,449.69,252.89,449.24,252.97z"/>
	<path class="st0" d="M235.31,197.75c2.6,0.04,5.64,2.01,6.4,4.16c1.2,3.38,0.63,5.68-2.31,7.79c-1.55,1.12-3.32,2.07-5.13,2.67
		c-5.19,1.74-6.66,1.27-7.76-5C225.74,203,230.87,197.69,235.31,197.75z"/>
	<path class="st0" d="M229.79,216.83c4.72-2.17,9.09-4.19,13.82-6.36c1.26,1.28,1.58,3.24-0.02,5.13c-1.54,1.81-3.18,3.67-5.14,4.97
		C233.98,223.56,230.57,221.78,229.79,216.83z"/>
	<path class="st0" d="M428.41,288.55c1.07-2.29,2.15-4.75,3.4-7.12c0.21-0.4,1.52-0.73,1.7-0.53c0.64,0.71,1.49,1.72,1.39,2.51
		C434.59,285.87,430.8,288.52,428.41,288.55z"/>
	<path class="st0" d="M427.36,286.59c-1.33-2.97-0.75-4.12,2.55-5.36C428.87,283.42,428.12,285,427.36,286.59z"/>
	<path d="M209.17,556.97c0.36,1.35,0.8,2.69,1.08,4.06c1.3,6.39,3.66,12.28,8.19,17.1c3.4,3.62,6.05,3.62,8.81-0.49
		c1.94-2.89,3.61-6.12,4.64-9.44c1.97-6.36,3.4-12.89,5.08-19.35c0.26-0.98,0.69-1.91,1.04-2.87c0.28,0.04,0.56,0.08,0.85,0.12
		c0.09,0.85,0.29,1.7,0.24,2.54c-0.56,10.5-4.04,20.13-8.91,29.32c-0.55,1.05-1.39,1.98-2.23,2.83c-3.27,3.28-6.63,3.41-10.05,0.24
		c-5.46-5.07-8.34-11.51-9.51-18.76c-0.27-1.69-0.26-3.43-0.38-5.15C208.39,557.07,208.78,557.02,209.17,556.97z"/>
	<path d="M300.74,553.98c0.59,1.65,0.95,2.9,1.46,4.08c2.08,4.74,3.85,9.66,6.41,14.13c2.71,4.73,6.16,4.78,9.87,0.71
		c4.59-5.05,6.08-11.4,7.11-17.87c0.48-3.02,0.59-6.1,0.93-9.15c0.1-0.95,0.4-1.88,0.61-2.82c0.29-0.04,0.58-0.07,0.88-0.11
		c0.3,0.92,0.87,1.84,0.85,2.75c-0.21,8.43-1.1,16.78-5.31,24.26c-1.46,2.6-3.63,4.95-5.92,6.89c-2.7,2.28-6.26,2-8.61-0.52
		c-5.53-5.92-8.24-13.13-9.01-21.13C299.97,555,300.24,554.77,300.74,553.98z"/>
	<path d="M310.68,391.37c2.61,1.94,3.65-0.83,5.3-1.78c2.94-1.69,1.86-3.74,0.07-5.96c2.87,0.4,4.53,1.77,5.35,4.03
		c1.28,3.48,2.46,7.01,3.59,10.54c0.19,0.61-0.06,1.35-0.1,2.04c-0.66-0.33-1.68-0.51-1.92-1.03c-0.97-2.1-1.72-4.3-2.51-6.48
		c-0.34-0.93-0.6-1.89-0.97-3.1c-2.55,1.94-4.86,3.62-7.04,5.45c-0.39,0.33-0.35,1.31-0.3,1.98c0.22,2.86,0.54,5.71,0.78,8.56
		c0.06,0.64-0.08,1.3-0.02,1.95c0.18,2.14,1.67,4.26-0.05,6.41c-2.83,3.53-5.07,7.73-9.58,9.46c-10.75,4.11-21.84,6.71-33.41,6.85
		c-7.06,0.09-14.19,0.63-21.17-0.13c-11-1.2-20.17-6.43-26.49-15.66c-1.98-2.89-3.01-6.63-3.73-10.14c-0.82-4-3.6-6.26-6.33-9.3
		c-1.48,3.76-2.02,7.21-1.36,10.86c0.12,0.65-0.22,1.38-0.35,2.07c-0.71-0.46-1.77-0.74-2.09-1.39c-2.15-4.35,1.28-14.84,5.51-16.96
		c0.66-0.33,1.56-0.16,2.35-0.22c0.18,0.33,0.37,0.66,0.55,0.98c-1.16,0.72-2.33,1.43-3.8,2.34c3.08,3.9,6.28,6.88,10.19,8.61
		c8.21,3.64,16.94,5.66,25.91,6.06c7.59,0.34,15.25,0.66,22.73-1.38c6.25-1.7,12.54-3.31,18.77-5.1c3.83-1.1,7.6-2.42,11.36-3.74
		c2.02-0.71,4.08-1.45,5.91-2.53C308.94,394.01,309.61,392.67,310.68,391.37z M283.67,416.71c-4.69,4.73-8.58,5.86-12.51,3.08
		c-1.7-1.2-2.79-0.99-4.44-0.41c-4.89,1.73-9.71,0.85-11.8-1.86c-4.75,1.36-9.51,3.67-13.34-1.58c-3.91,2.17-10.94,2.07-14.14-0.62
		c-2.78-2.34-0.39-5.35-0.21-8.06c0.01-0.18,0.11-0.39,0.05-0.55c-0.19-0.57-0.28-1.43-0.68-1.63c-1.93-0.95-3.94-1.73-6.11-2.64
		c1.7,15.01,13.99,23.6,27.33,25.26c15.2,1.89,30.63,0.96,45.57-3.34c6.06-1.74,12.13-3.4,15.93-9.3c1.55-2.41,2.58-4.44,1-7.04
		c-2.52,3.59-5.28,4.78-10,3.83c-1.88-0.38-2.88-0.29-3.93,1.63C294.15,417.58,287.74,419.1,283.67,416.71z M282.28,405.01
		c0.91,3.16,1.63,6.13,2.67,9c0.32,0.89,1.35,1.85,2.26,2.14c2.18,0.69,7.79-2.91,8.18-5.15c0.13-0.73-0.16-1.62-0.48-2.34
		c-0.86-1.92-1.85-3.78-2.83-5.75C289.02,403.57,285.78,404.26,282.28,405.01z M294.94,402.31c2.05,6.94,4.78,8.94,10.23,7.38
		c1.05-0.3,2.3-1.4,2.63-2.4c0.89-2.73,0.59-5.55-1.11-7.96c-0.41-0.58-1.75-1.05-2.4-0.82
		C301.17,399.62,298.14,400.99,294.94,402.31z M271.04,408.59c0.18,2,0.46,4.01,0.52,6.03c0.11,3.58,1.27,4.7,4.93,4.47
		c2.81-0.17,5.94-3.09,5.45-5.25c-0.61-2.66-1.46-5.26-2.25-8.06C276.89,406.69,274.02,407.62,271.04,408.59z M229.52,405.85
		c-0.2,0.97-0.3,1.5-0.41,2.03c-1.32,6.35-1.32,6.35,4.97,7.5c4.7,0.86,6.35-0.36,6.66-5.14c0.04-0.62-0.69-1.7-1.26-1.87
		C236.3,407.43,233.06,406.72,229.52,405.85z M268.35,409.1c-3.65,0.26-7.2,0.51-10.78,0.77c0,0.84,0,1.56,0,2.29
		c-0.03,6.23,0.53,6.71,6.66,5.73c4.01-0.64,4.82-1.83,4.14-5.84C268.21,411.08,268.35,410.07,268.35,409.1z M243.92,409.22
		c1.17,2.74-2.63,6.85,2.75,7.78c4.77,0.82,6.47-0.81,7.95-7.28C251.2,409.56,247.82,409.41,243.92,409.22z"/>
	<path d="M275.19,379.65c0.49,1.95,1.24,3.88,1.41,5.86c0.25,2.91,0.42,5.91,0.02,8.79c-0.41,2.94-4,4.66-7.1,3.22
		c-3.45-1.6-6.05-0.51-8.74,1.4c-2.62,1.86-4.32,1.83-6.16-0.78c-1.84-2.62-3.93-2.99-6.75-2.13c-3.58,1.1-5.87-0.74-4.99-4.41
		c0.67-2.81,2.26-5.41,3.52-8.06c0.49-1.05,1.19-2,1.79-2.99c-0.17-0.16-0.34-0.33-0.52-0.49c-0.56,0.48-1.15,0.93-1.68,1.44
		c-5.65,5.38-14.2,5.95-20.08,0.85c-5.01-4.34-8.88-9.36-8.07-16.81c0.88-8.05,6.89-14.4,14.97-15.04c1.48-0.12,2.95-0.29,4.42-0.5
		c5.49-0.78,9.85,1.03,12.97,5.66c1.03,1.53,2.01,3.08,2.96,4.53c7.87-3.68,15.17-3.89,21.68,2.29c2.41-2.16,4.52-4.39,6.95-6.17
		c7.3-5.35,17.7-3.32,21.66,5.33c4.32,9.42,2.27,15.22-3.61,22.38c-6.04,7.36-17.32,4.67-21.94-1.57c-0.75-1.01-1.47-2.03-2.21-3.04
		C275.53,379.47,275.36,379.56,275.19,379.65z M263.28,365.33c-0.63,0-1.78-0.31-2.64,0.07c-1.66,0.72-3.83,1.46-4.61,2.85
		c-3.3,5.89-6.19,12-9.16,18.07c-0.77,1.57-1.56,3.19-1.93,4.88c-0.59,2.7,0.22,3.35,2.94,2.65c3.23-0.83,6.07-0.53,8.1,2.53
		c0.97,1.47,2.09,1.82,3.71,0.64c3.2-2.32,6.49-3.69,10.57-1.57c2.18,1.13,4.13-0.17,4.41-2.65c0.25-2.25,0.2-4.6-0.16-6.83
		c-0.68-4.1-1.57-8.18-2.59-12.21C270.37,367.64,271.13,364.62,263.28,365.33z M219.98,367.03c-0.26,4.53,2.22,9.43,6.67,13.16
		c5.76,4.84,13,4.54,18.32-0.76c1.38-1.38,2.69-2.83,4.06-4.21c7.17-7.21,1.6-17.86-4.17-21.86c-2.33-1.61-4.71-0.44-7.01-0.86
		C228.74,350.87,219.58,357.22,219.98,367.03z M290.19,386.57c1.67-0.46,3.61-0.53,4.97-1.45c8.16-5.56,11.83-15.96,4.72-25.38
		c-1.4-1.86-3.9-3.4-6.18-4c-7.32-1.96-17.08,4.75-18.37,12.28C273.88,376.48,281.39,386.85,290.19,386.57z M273.18,366.2
		c0.29-0.17,0.58-0.34,0.87-0.5c-0.55-0.86-0.96-1.88-1.69-2.57c-4.43-4.2-9.74-4.52-15.3-3.08c-3.49,0.9-3.76,1.81-1.9,5.11
		C261.28,363.18,267.41,361.42,273.18,366.2z"/>
	<path d="M359.8,364.81c4.71-0.03,8.3,4.5,6.64,8.89c-0.91,2.42-2.61,4.63-4.32,6.63c-1.63,1.91-4.13,2.48-6.35,1.32
		c-2.35-1.22-2.93-3.71-2.74-6.24c0.17-2.24,0.47-4.48,0.76-6.71C354.08,366.49,356.68,364.83,359.8,364.81z M361.1,367.71
		c-0.02,0.34-0.05,0.69-0.07,1.03c-0.4,0.2-0.78,0.47-1.2,0.6c-3.42,1.07-5.54,4.69-4.72,8.1c0.61,2.53,2.65,3.63,4.47,1.88
		c2.04-1.96,3.67-4.55,4.77-7.17c0.44-1.04-0.67-3.35-1.76-4.23c-1.13-0.91-3.09-0.77-4.69-1.09c-0.01,0.16-0.03,0.32-0.04,0.49
		C358.94,367.45,360.02,367.58,361.1,367.71z"/>
	<path d="M189.01,372.34c-0.77-0.35-1.55-0.7-2.69-1.21c0.15,0.81,0.17,1.24,0.32,1.63c1.33,3.56,0.42,6.9-2.56,9.27
		c-2.37,1.88-7.47,1.98-10,0.2c-2.18-1.53-2.91-4.25-1.95-7.26c1.92-6.03,11.36-8.93,16.3-4.96c0.55,0.44,0.81,1.23,1.21,1.85
		C189.43,372.02,189.22,372.18,189.01,372.34z M178.87,381.24c3.23,0.12,6.3-2.44,6.38-5.33c0.06-2.06-2.5-5.54-4.1-5.57
		c-3.4-0.06-7.09,3.5-7.18,6.9C173.91,379.87,175.42,381.11,178.87,381.24z"/>
	<path d="M239.27,345.24c-0.74-0.04-1.49,0-2.22-0.12c-2.04-0.34-2.63-1.57-1.64-3.39c0.26-0.48,0.59-0.97,1-1.33
		c3.81-3.37,8.23-4.86,13.3-4.03c1.78,0.29,3.1,1.18,3.19,3.25c0.09,2.03-1.25,2.73-2.86,3.17c-3.55,0.97-7.1,1.91-10.66,2.86
		C239.35,345.51,239.31,345.38,239.27,345.24z M237.19,342.78c2.64,0.69,11.37-0.8,13.05-2.19c0.29-0.24,0.61-0.87,0.49-1.12
		c-0.21-0.43-0.72-0.95-1.16-1.01C245.87,337.97,239.76,338.17,237.19,342.78z"/>
	<path d="M287.65,349.3c-1.62-0.63-3.9-1.08-5.57-2.34c-1.02-0.77-1.8-3.07-1.37-4.19c0.42-1.11,2.57-2.34,3.81-2.19
		c2.68,0.3,5.33,1.27,7.83,2.35c0.98,0.42,2.15,1.89,2.08,2.81c-0.07,0.94-1.39,2.05-2.42,2.6
		C290.93,348.9,289.54,348.91,287.65,349.3z M292.77,345.63c-2.48-2.52-5.42-3.06-8.48-3.11c-0.68-0.01-1.8,0.49-1.95,0.98
		c-0.17,0.56,0.36,1.56,0.88,2.05C285.34,347.56,289.83,347.63,292.77,345.63z"/>
	<path class="st0" d="M283.67,416.71c4.06,2.39,10.48,0.87,12.72-3.22c1.05-1.92,2.05-2,3.93-1.63c4.72,0.95,7.48-0.24,10-3.83
		c1.58,2.6,0.56,4.63-1,7.04c-3.8,5.9-9.87,7.56-15.93,9.3c-14.95,4.3-30.38,5.23-45.57,3.34c-13.34-1.66-25.63-10.25-27.33-25.26
		c2.16,0.91,4.18,1.69,6.11,2.64c0.4,0.2,0.49,1.06,0.68,1.63c0.05,0.16-0.04,0.36-0.05,0.55c-0.17,2.71-2.57,5.72,0.21,8.06
		c3.2,2.69,10.24,2.78,14.14,0.62c3.83,5.25,8.59,2.94,13.34,1.58c2.08,2.71,6.91,3.59,11.8,1.86c1.65-0.58,2.74-0.79,4.44,0.41
		C275.1,422.57,278.98,421.44,283.67,416.71z"/>
	<path class="st0" d="M282.28,405.01c3.5-0.75,6.74-1.44,9.8-2.09c0.98,1.97,1.96,3.83,2.83,5.75c0.32,0.72,0.61,1.6,0.48,2.34
		c-0.39,2.24-6,5.84-8.18,5.15c-0.91-0.29-1.94-1.25-2.26-2.14C283.92,411.15,283.19,408.17,282.28,405.01z"/>
	<path class="st0" d="M294.94,402.31c3.2-1.33,6.23-2.69,9.35-3.8c0.65-0.23,1.99,0.24,2.4,0.82c1.69,2.41,1.99,5.23,1.11,7.96
		c-0.32,1-1.58,2.1-2.63,2.4C299.72,411.25,296.99,409.25,294.94,402.31z"/>
	<path class="st0" d="M271.04,408.59c2.98-0.97,5.86-1.9,8.64-2.81c0.79,2.8,1.65,5.4,2.25,8.06c0.49,2.17-2.64,5.08-5.45,5.25
		c-3.65,0.23-4.82-0.89-4.93-4.47C271.49,412.6,271.21,410.59,271.04,408.59z"/>
	<path class="st0" d="M229.52,405.85c3.54,0.87,6.78,1.59,9.95,2.52c0.58,0.17,1.3,1.26,1.26,1.87c-0.3,4.78-1.96,6-6.66,5.14
		c-6.29-1.15-6.28-1.15-4.97-7.5C229.22,407.35,229.32,406.82,229.52,405.85z"/>
	<path class="st0" d="M268.35,409.1c0,0.98-0.14,1.99,0.02,2.94c0.68,4-0.13,5.2-4.14,5.84c-6.13,0.98-6.7,0.5-6.66-5.73
		c0-0.73,0-1.46,0-2.29C261.15,409.61,264.7,409.36,268.35,409.1z"/>
	<path class="st0" d="M243.92,409.22c3.9,0.18,7.29,0.34,10.7,0.5c-1.49,6.47-3.19,8.11-7.95,7.28
		C241.29,416.08,245.08,411.96,243.92,409.22z"/>
	<path class="st0" d="M263.28,365.33c7.85-0.71,7.09,2.3,8.63,8.42c1.01,4.03,1.91,8.11,2.59,12.21c0.37,2.23,0.42,4.59,0.16,6.83
		c-0.28,2.48-2.23,3.78-4.41,2.65c-4.08-2.12-7.37-0.75-10.57,1.57c-1.63,1.18-2.74,0.83-3.71-0.64c-2.03-3.07-4.86-3.37-8.1-2.53
		c-2.72,0.7-3.54,0.05-2.94-2.65c0.37-1.69,1.16-3.31,1.93-4.88c2.98-6.06,5.87-12.18,9.16-18.07c0.78-1.39,2.95-2.12,4.61-2.85
		C261.5,365.02,262.65,365.33,263.28,365.33z"/>
	<path class="st0" d="M219.98,367.03c-0.4-9.81,8.76-16.16,17.86-14.52c2.3,0.42,4.68-0.76,7.01,0.86c5.78,4,11.34,14.65,4.17,21.86
		c-1.38,1.38-2.68,2.83-4.06,4.21c-5.31,5.3-12.55,5.6-18.32,0.76C222.2,376.46,219.72,371.56,219.98,367.03z M237.39,374.73
		c3.91-0.03,5.26-3.06,6.66-5.86c1.75-3.49,1.15-5.88-1.77-8.42c-2.17-1.88-5.13-2.05-7.8,0.45c-1.69,1.58-2.97,4.01-3.54,6.29
		C229.83,371.54,232.84,374.78,237.39,374.73z"/>
	<path class="st0" d="M290.19,386.57c-8.8,0.28-16.31-10.09-14.86-18.55c1.29-7.54,11.05-14.24,18.37-12.28
		c2.28,0.61,4.77,2.14,6.18,4c7.11,9.42,3.44,19.82-4.72,25.38C293.8,386.04,291.86,386.11,290.19,386.57z M297.22,368.83
		c-0.19-3.16-1.32-4.85-4.3-5.51c-2.52-0.56-5.36-1.29-7.32,1c-2.94,3.42-3.39,8.3-1.41,11.42c1.31,2.06,2.71,4.17,5.52,4.11
		c3.01-0.06,4.67-2.17,5.69-4.65C296.24,373.17,296.63,370.96,297.22,368.83z"/>
	<path class="st0" d="M273.18,366.2c-5.76-4.78-11.89-3.02-18.02-1.04c-1.86-3.3-1.59-4.21,1.9-5.11c5.56-1.44,10.86-1.12,15.3,3.08
		c0.72,0.69,1.13,1.7,1.69,2.57C273.76,365.86,273.47,366.03,273.18,366.2z"/>
	<path class="st0" d="M361.1,367.71c-1.08-0.13-2.16-0.26-3.24-0.39c0.01-0.16,0.03-0.32,0.04-0.49c1.6,0.32,3.56,0.19,4.69,1.09
		c1.09,0.87,2.19,3.19,1.76,4.23c-1.1,2.62-2.73,5.21-4.77,7.17c-1.82,1.75-3.86,0.65-4.47-1.88c-0.83-3.41,1.29-7.03,4.72-8.1
		c0.42-0.13,0.8-0.4,1.2-0.6C361.05,368.4,361.07,368.06,361.1,367.71z"/>
	<path class="st0" d="M178.87,381.24c-3.45-0.13-4.96-1.36-4.89-3.99c0.09-3.41,3.78-6.96,7.18-6.9c1.59,0.03,4.15,3.51,4.1,5.57
		C185.17,378.8,182.11,381.36,178.87,381.24z"/>
	<path class="st0" d="M237.19,342.78c2.57-4.6,8.69-4.81,12.38-4.31c0.44,0.06,0.94,0.57,1.16,1.01c0.12,0.24-0.19,0.87-0.49,1.12
		C248.56,341.98,239.83,343.47,237.19,342.78z"/>
	<path class="st0" d="M292.77,345.63c-2.94,2-7.43,1.92-9.54-0.07c-0.52-0.49-1.05-1.49-0.88-2.05c0.15-0.5,1.27-0.99,1.95-0.98
		C287.35,342.57,290.29,343.11,292.77,345.63z"/>
	<path d="M237.39,374.73c-4.55,0.05-7.56-3.18-6.46-7.55c0.57-2.27,1.85-4.71,3.54-6.29c2.68-2.5,5.63-2.33,7.8-0.45
		c2.92,2.54,3.52,4.93,1.77,8.42C242.65,371.66,241.29,374.7,237.39,374.73z M243.06,365.63c0.05-1.98-2.28-4.43-4.22-4.45
		c-2.64-0.03-5.98,3.99-6.08,7.31c-0.07,2.34,1.65,4.01,4.27,4.11C239.58,372.7,242.98,368.76,243.06,365.63z"/>
	<path d="M297.22,368.83c-0.59,2.13-0.98,4.34-1.82,6.37c-1.02,2.48-2.68,4.58-5.69,4.65c-2.81,0.06-4.21-2.05-5.52-4.11
		c-1.98-3.12-1.53-8,1.41-11.42c1.97-2.29,4.8-1.56,7.32-1C295.9,363.99,297.03,365.67,297.22,368.83z M289.47,364.94
		c-0.32,0.15-1.49,0.38-2.19,1.07c-3.05,3.03-3.01,7.31-0.07,10.42c1.76,1.86,3.72,1.97,5.13-0.14c1.14-1.71,2-3.76,2.43-5.78
		C295.63,366.37,294.48,365.12,289.47,364.94z"/>
	<path class="st0" d="M243.06,365.63c-0.08,3.13-3.48,7.07-6.03,6.97c-2.61-0.1-4.34-1.76-4.27-4.11c0.1-3.33,3.44-7.34,6.08-7.31
		C240.78,361.2,243.1,363.65,243.06,365.63z M237.37,370.31c1.24-1.73,2.19-2.85,2.84-4.12c0.13-0.26-0.86-1.09-1.33-1.66
		c-1.05,1.05-2.19,2.05-3.09,3.22C235.64,367.95,236.49,368.92,237.37,370.31z"/>
	<path class="st0" d="M289.47,364.94c5.01,0.18,6.16,1.43,5.29,5.57c-0.42,2.02-1.28,4.07-2.43,5.78c-1.41,2.11-3.37,2-5.13,0.14
		c-2.94-3.1-2.97-7.39,0.07-10.42C287.98,365.32,289.15,365.09,289.47,364.94z M289.44,374.6c1.16-1.77,2.2-2.71,2.31-3.74
		c0.08-0.75-1.07-1.64-1.68-2.46c-0.78,1-1.8,1.91-2.23,3.05C287.64,372,288.57,372.97,289.44,374.6z"/>
	<path d="M237.37,370.31c-0.88-1.39-1.73-2.36-1.58-2.56c0.9-1.17,2.03-2.17,3.09-3.22c0.47,0.57,1.47,1.4,1.33,1.66
		C239.56,367.46,238.61,368.58,237.37,370.31z"/>
	<path d="M289.44,374.6c-0.87-1.63-1.8-2.61-1.6-3.16c0.42-1.13,1.45-2.05,2.23-3.05c0.6,0.83,1.76,1.71,1.68,2.46
		C291.63,371.9,290.59,372.83,289.44,374.6z"/>
</g>
</svg>
