<?xml version="1.0" encoding="utf-8"?>
<!-- Generator: Adobe Illustrator 23.0.2, SVG Export Plug-In . SVG Version: 6.00 Build 0)  -->
<svg version="1.1" id="Layer_1" xmlns="http://www.w3.org/2000/svg" xmlns:xlink="http://www.w3.org/1999/xlink" x="0px" y="0px"
	 viewBox="0 0 595.28 841.89" style="enable-background:new 0 0 595.28 841.89;" xml:space="preserve">
<style type="text/css">
	.st0{fill:#FFFFFF;}
</style>
<path class="st0" d="M514.52,632.27c-147.87,0-295.74,0-443.62,0c0-147.87,0-295.74,0-443.62c147.87,0,295.74,0,443.62,0
	C514.52,336.53,514.52,484.4,514.52,632.27z M134.23,479.72c2.02,3.14,0.32,4.68-2.79,5.83c1.95,0.84,3.31,1.42,4.47,1.92
	c-0.62,0.58-1.27,1.2-1.91,1.81c0.96,0.45,1.91,0.91,2.86,1.36c-1.93,2.44-1.93,2.44,3.07,3.2c-0.41,0.92-0.81,1.8-1.31,2.9
	c1.17-0.18,2.07-0.31,3.17-0.48c0,1.01,0,1.86,0,2.59c1.83-0.4,3.52-0.76,5.68-1.23c-0.91,2.05-1.59,3.57-2.25,5.07
	c4.37,1.41,5.03,1.99,4.45,4.01c1.47,0.31,2.94,0.61,4.45,0.92c-0.15-1.71-0.29-3.31-0.46-5.3c-0.8-0.27-2.2-0.54-3.38-1.2
	c-1.04-0.58-2.98-1.23-0.31-3.42c-2.57-0.37-4.53-0.65-6.65-0.95c-0.07-0.45-0.17-1.13-0.28-1.89c-0.85,0.12-1.59,0.23-2.33,0.34
	c0.14-1.23,0.25-2.27,0.37-3.36c-1.37,0.33-2.39,0.58-3.41,0.82c-0.07-0.18-0.13-0.36-0.2-0.54c0.69-0.8,1.38-1.61,2.34-2.73
	c-1.3-0.14-2.26-0.24-3.43-0.36c1.07-1.23,2.65-2.08,2.29-3.74c-1.54,0.26-2.75,0.47-3.96,0.68c-0.12-0.22-0.23-0.43-0.35-0.65
	c2.38-1.55,2.26-3.75,1.32-5.75c-0.33-0.7-1.98-0.79-3.29-1.24c0.65-0.86,1.36-1.8,2.5-3.3c-2.01-0.15-3.63-0.27-5.53-0.41
	c0.79-1.28,1.61-2.61,2.54-4.13c-1.38-0.3-2.79-0.61-4.12-0.9c0.96-1.05,1.84-2.01,2.72-2.98c-0.16-0.16-0.32-0.33-0.47-0.49
	c-0.91,0-1.82,0-2.7,0c0.55-1.87,1.08-3.64,1.79-6.04c-1.37,0.77-2.09,1.18-2.81,1.59c-0.19-0.1-0.39-0.2-0.58-0.31
	c0.7-1.88,1.4-3.76,2.12-5.71c-0.67,0.03-1.42,0.07-2.83,0.14c1.1-1.75,1.93-3.07,2.85-4.53c-0.98-0.12-1.81-0.23-3.29-0.41
	c1.57-1.14,2.7-1.95,3.93-2.84c-0.6-0.56-1.17-1.09-1.83-1.7c1.27-1.01,2.36-1.94,3.25,0.1c0.96-0.25,1.81-0.62,2.66-0.64
	c0.51-0.02,1.32,0.37,1.52,0.8c0.6,1.3,0.84,2.77,1.44,4.07c1.07,2.31,3.05,1.15,4.3,1.02c-0.19,2.46-0.38,4.91-0.58,7.53
	c0.52,0,1.02,0,1.65,0c-0.34,1.2-0.64,2.22-1.06,3.68c2.45-0.47,4.97-2.39,6.54,0.93c-0.11,0.18-0.36,0.56-0.88,1.39
	c1.81,0,3.23,0,4.65,0c0.05,0.23,0.09,0.46,0.14,0.68c-1.69,0.84-3.37,1.68-5.35,2.67c2.75,1.6,4.79,0.04,6.9-0.81
	c0.07,0.18,0.14,0.35,0.22,0.53c-1.65,1-3.29,2-5.41,3.29c2.02,0.81,3.74,1.5,5.37,2.15c-0.35,0.55-0.87,1.39-1.26,2
	c1.61,0.49,3.27,0.58,4.29,1.43c1.08,0.9,1.54,2.54,2.34,3.99c1.03-0.95,1.85-1.71,2.63-2.43c0,3.01,0,5.89,0,9.31
	c2.02-1.55,3.06-1.16,4.04,0.32c0.98,1.47,2.7,1.64,3.31,0.74c1.25,0.47,2.45,0.93,3.63,1.38c0.38-0.59,0.67-1.05,0.97-1.5
	c0.06,0.2,0.12,0.4,0.18,0.6c0.67,0,1.34,0,1.98,0c-0.35,1.34-0.72,2.76-1.08,4.17c0.34,0.23,0.67,0.46,1.01,0.69
	c0.43-0.79,0.87-1.59,1.44-2.63c0.4,1.42,0.69,2.46,0.97,3.48c1.11-1.74,2.09-3.29,3.16-4.98c0.77,0.71,1.29,1.36,1.96,1.76
	c1.02,0.61,2.14,1.06,3.21,1.57c0.13-1.07,0.25-2.13,0.39-3.2c0.02-0.14,0.1-0.27,0.08-0.21c0.95,0.71,1.95,1.45,2.94,2.19
	c0.13-0.16,0.26-0.31,0.39-0.47c-0.08-0.62-0.17-1.25-0.28-2.14c0.47,0.31,0.68,0.52,0.93,0.61c0.56,0.21,1.14,0.36,1.71,0.53
	c0.01-0.6,0.08-1.22,0.02-1.81c-0.06-0.59-0.26-1.17-0.47-2.06c0.98,1.13,1.71,1.97,2.44,2.82c0.18-0.12,0.35-0.25,0.53-0.37
	c0-0.92,0-1.83,0-2.84c0.83,0.12,1.51,0.22,1.76,0.25c0.85-1.26,1.44-2.3,2.19-3.21c3.61-4.31,6.64-9,5.49-14.84
	c-0.71-3.6-2.45-7.02-4-10.39c-0.42-0.91-1.78-1.44-2.78-2.02c-1.56-0.9-3.19-1.69-4.77-2.55c-0.64-0.35-1.21-0.8-1.85-1.14
	c-4.1-2.16-8.79-3.29-12.08-7.13c-0.38,0.61-0.69,1.09-0.85,1.35c-1.45,0.05-1.51-3.33-3.58-1.07c-0.67-0.97-1.32-1.91-2.03-2.94
	c-0.42,0.52-0.69,0.85-0.93,1.15c-0.63-0.55-1.19-1.06-1.97-1.75c-0.09,0.92-0.15,1.47-0.25,2.48c-1.36-1.87-2.47-3.41-3.95-5.46
	c0,1.77,0,2.84,0,4.27c-2.21-2.66-4.23-5.1-6.28-7.57c-0.52,0.22-1.07,0.44-1.68,0.7c-0.46-2.33-0.87-4.45-1.32-6.73
	c-0.9,0.56-1.64,1.02-2.54,1.59c0.36-1.62,0.65-2.96,0.97-4.38c-1.29-0.33-2.36-0.6-3.55-0.9c0.34-1.25,0.48-2.63,1.09-3.77
	c0.89-1.68,0.93-2.77-1.18-3.1c-0.23-2.69,0.75-4.61,2.88-6.13c2.87-2.06,5.62-4.3,8.41-6.47c5.48-4.27,11.38-7.89,17.86-10.36
	c4.09-1.56,8.44-2.42,12.7-3.5c3.34-0.85,6.73-1.54,10.08-2.36c2.85-0.7,5.65-1.86,8.53-2.16c4.58-0.47,9.21-0.31,13.81-0.57
	c4.08-0.23,8.05,0.25,12.06,0.98c4.23,0.77,8.47,1.14,9.54,6.45c0.03,0.16,0.33,0.27,0.52,0.39c3.41,2.23,4.86,5.83,5.95,9.42
	c0.34,1.1,0.31,2.54,0.65,3.84c0.38,1.46-0.14,3.26,0.49,4.54c1.02,2.08-0.31,2.56-1.71,3.43c0.49,0.9,0.99,1.81,1.49,2.72
	c-0.68-0.13-1.22-0.23-1.75-0.33c-0.08,1.08-0.16,2.15-0.24,3.2c-1.44-0.37-2.05,0.22-1.91,1.89c0.1,1.21,0.47,2.91-0.16,3.59
	c-2.16,2.36-3.7,4.9-4.36,8.03c-0.9,4.3-2.48,8.49-1.42,13.02c1.08,4.65,7.5,9.94,12.26,9.58c4.86-0.37,9.16-2.58,13.25-5.13
	c0.34-0.21,0.4-0.87,0.55-1.24c1.23-1.45,2.47-2.92,3.95-4.67c-1.26-0.09-2.19-0.16-3.13-0.23c2.17-1.88,4.21-3.65,6.34-5.5
	c-0.41-0.33-0.77-0.62-1.14-0.92c0.6-0.74,1.15-1.42,1.8-2.21c-0.49-0.21-0.84-0.36-1.12-0.48c0.53-1.35,1.04-2.63,1.55-3.92
	c-0.21-0.11-0.41-0.22-0.62-0.33c-0.79,0.91-1.58,1.81-2.67,3.07c0.28-1.36,0.51-2.27,0.64-3.19c0.54-3.9-0.63-8,1.61-11.85
	c-0.77,0-1.27,0-1.86,0c0.51-1.09,0.97-2.05,1.52-3.23c-0.81,0.08-1.29,0.13-1.6,0.16c1.91-4.08-0.07-8.01-0.17-12.33
	c3.28,2.31,5.22,5.4,7.02,8.43c3.58,6.04,6.11,12.55,7.44,19.48c0.19,0.97,0.33,2.09,0.89,2.82c2.69,3.48,4.18,7.47,5.61,11.6
	c-0.9,0.05-1.58,0.1-2.95,0.18c2.82,1.54,1.85,2.57,0.08,3.46c1.12,0.48,2.02,0.87,3.13,1.35c-1.9,1.66-2.95,3.15-0.72,5.11
	c0.99,0.87,0.73,1.81-0.78,2.11c-1.2,0.24-2.38,0.6-3.43,0.88c1.16,0.78,2.27,1.53,3.82,2.58c-2.45,1.91-4.51,3.52-6.57,5.14
	c0.08,0.12,0.17,0.24,0.25,0.37c0.78-0.26,1.55-0.53,2.33-0.79c0.2,0.24,0.4,0.48,0.61,0.72c-1.43,1.02-2.86,2.05-4.55,3.26
	c2.45,0.63,4.16,1.07,5.86,1.51c-0.06,0.25-0.12,0.5-0.18,0.76c-1.16-0.06-2.31-0.12-4-0.21c1.37,0.69,2.21,1.11,3.15,1.58
	c-2.49,1.83-4.67,3.43-6.86,5.03c0.05,0.07,0.1,0.14,0.16,0.21c1.24-0.39,2.48-0.79,3.72-1.18c0.1,0.2,0.19,0.4,0.29,0.6
	c-2.08,1.59-4.16,3.18-6.67,5.1c1.44,0.12,2.12,0.18,2.8,0.24c0.05,0.15,0.1,0.29,0.14,0.44c-1.1,0.63-2.2,1.25-3.45,1.97
	c0.52,0.2,0.85,0.33,1.58,0.61c-0.82,0.52-1.37,0.87-2.01,1.27c0.72,0.42,1.14,0.66,1.76,1.02c-1.68,0.8-3.07,1.47-4.56,2.18
	c0.98,1.04,1.96,1.67,2.31,2.55c0.35,0.88,0.08,2.02,0.08,3.19c-1.07,0-2.09,0-3.18,0c0.34,0.59,0.61,1.04,0.61,1.04
	c-2.07,0.87-4.03,1.69-6.55,2.75c1.21,0.68,1.73,0.98,2.34,1.32c-0.43,0.36-0.79,0.66-1.26,1.05c0.75,0.37,1.37,0.66,2.42,1.18
	c-2.36,0.58-4.27,1.05-6.39,1.57c0.71,0.52,1.15,0.83,1.98,1.44c-1.74,0.3-3.03,0.53-4.17,0.72c1.22,0.91,2.4,1.8,3.59,2.68
	c-0.12,0.12-0.25,0.25-0.37,0.37c-2.3,0-4.6,0-6.9,0c0.01,0.1,0.01,0.2,0.02,0.31c0.59,0.26,1.18,0.51,2.22,0.97
	c-2.76,0.58-5.03,1.06-7.79,1.64c1.1,0.6,1.67,0.92,2.23,1.23c-0.03,0.18-0.05,0.35-0.08,0.53c-3.28,0.27-6.56,0.55-9.84,0.82
	c-0.03,0.23-0.06,0.46-0.09,0.68c2.02,0.69,4.03,1.38,6.28,2.15c-0.47,0.28-0.75,0.5-1.06,0.62c-2.38,0.88-4.47-0.02-6.57-1.02
	c-0.77-0.36-1.66-0.47-2.5-0.69c-0.04,0.19-0.09,0.38-0.13,0.57c0.62,0.88,1.23,1.75,1.91,2.71c-3.11,1.21-3.77-2.28-6.03-2.8
	c0.09,1.49,0.17,2.83,0.25,4.17c-0.2,0.1-0.4,0.2-0.6,0.29c-0.72-0.87-1.45-1.74-2.18-2.62c-0.51,1.58-1.02,3.16-1.63,5.04
	c-0.52-0.67-0.79-1-1.17-1.49c-0.63,1.25-1.16,2.3-1.69,3.35c-0.16-0.03-0.32-0.06-0.48-0.09c-0.21-0.93-0.42-1.86-0.78-3.51
	c-1.85,4.56-5.34,6.12-9.39,7.97c0.47-1.27,0.7-1.91,0.94-2.55c-0.16-0.18-0.31-0.36-0.47-0.54c-0.74,0.54-1.49,1.08-2.4,1.75
	c-0.01-0.01-0.37-0.22-0.82-0.5c-0.19,0.53-0.37,1.01-0.75,2.07c-1.33-2.16-2.39-3.89-3.43-5.58c-1.24,1.17-2.53,2.38-3.81,3.6
	c-0.21-0.13-0.42-0.26-0.63-0.39c0.15-1.46,0.29-2.92,0.44-4.38c-0.15-0.03-0.29-0.05-0.44-0.08c-0.88,1.95-1.75,3.91-2.63,5.86
	c-0.33-0.04-0.66-0.08-0.99-0.13c-0.14-1.56-0.29-3.11-0.43-4.67c-0.07-0.01-0.15-0.03-0.22-0.04c-0.35,2.01-0.69,4.02-1.04,6.02
	c-0.24,0.01-0.48,0.01-0.72,0.02c-0.33-1.19-0.66-2.39-0.98-3.52c-0.98,0.17-1.9,0.32-3.51,0.59c1.31-1.63,2.2-2.73,3.23-4.01
	c-1.78,0.69-3.25,1.26-4.71,1.82c-0.18-0.28-0.36-0.55-0.54-0.83c0.63-0.32,1.25-0.64,1.88-0.96c-0.13-0.15-0.25-0.29-0.38-0.44
	c-2.5,1.71-6.14,1.57-7.51,5.03c-0.93-0.78-2.12-1.3-2.39-2.13c-0.35-1.07,0.04-2.38,0.11-3.59c-3,0.19-4.73,4.2-8.84,2.74
	c2-1.88,3.67-3.44,5.34-5.01c-0.14-0.14-0.27-0.28-0.41-0.43c-1.34,1.13-2.65,2.29-4.02,3.37c-0.49,0.38-1.11,0.59-1.68,0.88
	c-0.22-0.61-0.44-1.21-0.73-2.05c-0.45,1-0.84,1.85-1.38,3.04c-1.74-2.55-0.54-4.81-0.52-7.1c-0.49,1.66-0.99,3.33-1.48,4.99
	c-0.2-0.03-0.41-0.05-0.61-0.08c-0.17-1.4-0.33-2.8-0.49-4.12c-0.87,0.04-1.78,0.35-2.42,0.06c-2.06-0.94-3.96-0.47-5.95,0.13
	c-0.46,0.14-1.12-0.38-1.94-0.69c2.57-1.34,4.71-2.46,6.86-3.58c-0.08-0.25-0.15-0.49-0.23-0.74c-1.59,0.41-3.25,1.84-4.85,0
	c0.48-0.44,0.88-0.8,1.28-1.16c-0.62-0.38-1.27-0.59-1.63-1.03c-1.25-1.52-2.51-2.63-4.72-1.77c-0.98,0.38-2.15,0.25-2.91,0.33
	c-1.46-2.03-1.51-3.68,0.51-5.05c-0.65,0-1.3,0-1.9,0c-0.9-1.91-2.18-2.53-2.96-1.62c0,0.66,0,1.23,0,2.22
	c-1.04-0.73-1.7-1.32-2.47-1.69c-0.7-0.34-1.51-0.45-2.43-0.71c1.58,3.46,3,6.58,4.31,9.46c-0.17,0.64-0.74,1.77-0.49,2.01
	c1.8,1.68,3.69,3.31,5.73,4.7c1.64,1.13,3.52,1.91,5.29,2.84c-0.1,0.27-0.21,0.53-0.31,0.8c-1.94-0.57-3.89-1.14-6.41-1.88
	c2.65,3.61,7.17,3.01,9.47,5.73c-0.08,0.75-0.08,1.79,0.31,1.97c1.16,0.53,2.48,0.76,3.74,1.04c0.96,0.21,1.94,0.32,2.92,0.48
	c-0.04,0.14-0.09,0.29-0.13,0.43c-1.37,0.6-2.73,1.2-4.1,1.8c0.08,0.22,0.17,0.44,0.25,0.67c1.26-0.26,2.51-0.52,3.96-0.82
	c0.48,3.21,3.23,2.56,5.26,3.23c-1.12,0.29-2.24,0.58-3.36,0.87c0.02,0.18,0.04,0.37,0.06,0.55c0.85,0.09,1.7,0.15,2.54,0.29
	c1.38,0.23,2.97,0.15,4.07,0.84c1.96,1.23,3.61,2.94,5.45,4.49c-0.15,0.42-0.35,0.96-0.6,1.64c3.96,0.8,7.71,1.55,11.46,2.3
	c-0.04,0.15-0.07,0.3-0.11,0.44c-1.49,0-2.98,0-4.46,0c-0.04,0.18-0.08,0.36-0.12,0.54c1.94,0.46,3.87,0.92,5.86,1.39
	c-1.26,0.56-2.38,1.05-3.49,1.55c0.09,0.24,0.17,0.47,0.26,0.71c1.56-0.34,3.1-0.81,4.68-0.99c1.46-0.17,2.95-0.04,4.43-0.04
	c0,0.17,0,0.35,0,0.52c-1.65,0.67-3.29,1.35-4.94,2.02c0.08,0.24,0.17,0.48,0.25,0.72c2.08-0.28,4.16-0.56,6.24-0.83
	c0.02,0.14,0.04,0.29,0.06,0.43c-1.05,0.36-2.1,0.73-3.16,1.09c0.4,0.53,0.66,0.59,0.93,0.61c4.21,0.26,8.35,0.54,11.16,4.47
	c0.61,0.85,1.95,1.36,3.05,1.64c3.76,0.95,7.57,1.72,11.54,2.6c-0.34,1.58,0.92,1.52,2.17,1.51c1.87-0.01,3.75,0,6.01,0
	c-1.43,1.65-4.08,1.25-4.06,3.91c0.57-0.03,1.04,0.06,1.41-0.1c2.63-1.17,5.32,0.79,7.95-0.15c0.14-0.05,0.5,0.15,0.54,0.3
	c0.66,2.13,2.42,1.5,3.87,1.51c1.38,0.01,2.76-0.17,4.18-0.27c0.04,0.58,0.08,1.05,0.1,1.38c1.77-0.08,3.41-0.16,5.34-0.25
	c-1.08,1.51-0.83,2.19,0.72,2.18c2.14-0.01,4.28-0.07,6.41,0.03c0.81,0.04,2.07,0.23,2.34,0.75c1.15,2.25,3.11,2.03,4.97,1.84
	c1.8-0.19,3.56-0.77,5.36-1.18c0.1,0.79,0.17,1.43,0.26,2.19c1.3-0.71,2.32-1.27,3.42-1.86c0.28,0.73,0.49,1.28,0.66,1.73
	c1.76-0.72,3.38-1.38,5-2.04c0.09,0.22,0.18,0.45,0.27,0.67c-0.38,0.32-0.77,0.64-1.15,0.95c0.1,0.19,0.2,0.38,0.29,0.57
	c2.52-1.03,5.04-2.07,7.56-3.1c0.12,0.1,0.23,0.2,0.35,0.29c-1.2,1.28-2.4,2.56-3.6,3.85c0.13,0.19,0.25,0.39,0.38,0.58
	c1.3-0.57,2.6-1.13,3.9-1.7c0.52-0.23,1.2-0.83,1.52-0.67c2.5,1.22,4.69-0.28,7.12-0.78c0.22,1.87,1.3,1.55,2.41,0.98
	c1.57-0.81,3.1-1.7,4.69-2.49c0.83-0.41,1.74-0.68,2.62-1.01c0.08,0.16,0.15,0.33,0.23,0.49c-1.06,0.79-2.12,1.58-3.18,2.37
	c0.06,0.11,0.13,0.22,0.19,0.33c1.56-0.61,3.13-1.22,4.69-1.83c0.08,0.16,0.17,0.33,0.25,0.49c-1.54,1.09-3.09,2.17-4.63,3.26
	c0.1,0.15,0.2,0.31,0.3,0.46c3.73-2.17,7.47-4.34,11.34-6.59c-0.24,0.64-0.44,1.18-0.74,2.01c1.14-0.45,1.94-0.76,2.75-1.08
	c0.37,0.66,0.71,1.26,1.16,2.06c2.12-2.35,4.09-4.53,6.06-6.71c0.17,0.15,0.34,0.31,0.51,0.46c-0.24,1.11-0.48,2.22-0.85,3.95
	c1.76-1.2,2.73-2.12,4.23-2.65c3.15-1.12,5.59-3.92,9.3-4.27c1.15-0.11,2.19-1.38,2.79-1.78c2.26,1.04,3.41-0.31,4.62-1.18
	c1.43-1.02,2.8-2.12,4.2-3.18c0.11,0.13,0.23,0.25,0.34,0.38c-0.93,1.05-1.85,2.1-2.95,3.33c1.4-0.37,2.51-0.67,3.44-0.91
	c0.74-0.96,1.45-1.89,2.17-2.81c0.25,0.07,0.5,0.15,0.75,0.22c0,1.04,0,2.08,0,3.12c0.15,0.13,0.3,0.26,0.45,0.39
	c1.75-2.07,3.49-4.14,5.24-6.2c0.13,0.08,0.26,0.17,0.39,0.25c-0.18,0.63-0.37,1.26-0.62,2.15c2.65-0.54,3.68-2.25,4.32-4.27
	c0.57-1.82,1.91-2.24,3.58-2.18c0.56,0.02,1.11,0.1,2.1,0.19c-1.09-1.79-0.61-2.75,0.94-3.24c0.77,1.02,1.45,1.93,2.14,2.84
	c0.62-2.09,0.83-4.08,1.78-5.6c1.01-1.61,2.73-2.77,4.17-4.15c0.04,0.39,0.08,0.78,0.11,1.1c2.11,0.3,1.51-3.64,4.05-2.41
	c1.22-2.19,2.45-4.38,3.67-6.57c0.17,0.08,0.35,0.16,0.52,0.24c-0.04,0.79-0.24,1.61-0.08,2.36c0.13,0.63,0.68,1.16,1.05,1.74
	c0.45-0.36,0.99-0.66,1.32-1.11c0.94-1.28,1.8-2.63,2.84-4.18c0.64,1.94,1.17,3.53,1.7,5.13c1.2-3.53,7.28-12.5,8.75-12.35
	c0.12,0.42,0.25,0.87,0.59,2.09c3.43-3.6,6.63-6.76,9.56-10.15c1-1.15,1.32-2.89,2-4.48c1.04,0.64,1.57,2.75,3.14,1.35
	c0.11-2.26,0.21-4.35,0.3-6.43c0.19,0.1,0.37,0.2,0.56,0.29c0.6-1.14,1.19-2.27,1.83-3.49c0.24,0.58,0.46,1.14,1.09,2.69
	c-0.24-3.13,0.93-1.56,1.54-1.6c1.31-2.98-0.32-6.74,2.49-9.6c0.75,2.38,0.05,4.82,2,6.86c0.19-1.89,0.08-3.44,0.55-4.79
	c0.41-1.2,1.46-2.17,2.23-3.25c1.5,1.1,1.57-0.43,1.79-1.12c0.56-1.73,0.93-3.53,1.38-5.31c0.52,0.15,0.97,0.28,1.46,0.43
	c0.21-0.91,0.38-1.68,0.56-2.45c0.52,0.07,0.94,0.13,1.38,0.19c0-0.58,0-0.95,0-1.32c0.01-3.2-0.52-6.54,2.88-8.66
	c0.54-0.34,0.65-1.32,1.1-1.88c0.69-0.86,1.5-1.62,2.28-2.4c0.21-0.21,0.65-0.3,0.72-0.52c0.36-1.17,0.64-2.37,0.94-3.55
	c0.53-2.08,1.05-4.16,1.58-6.24c0.1,0.02,0.21,0.04,0.31,0.06c0.12,0.89,0.25,1.77,0.45,3.28c1.41-3.35,2.56-6.08,3.72-8.8
	c0.15,0.03,0.3,0.06,0.44,0.08c-0.17,1.27-0.34,2.54-0.52,3.81c0.86-0.39,1.44-0.92,1.81-1.57c1.69-2.96,1.56-6.22,1.41-9.47
	c-0.02-0.43-0.24-1.16-0.08-1.25c2.14-1.29,1.16-3.27,1.18-5.01c0.03-2.5,0.01-5,0.01-7.54c0.52,0.47,1.13,1.02,1.69,1.52
	c0-3.17,0-6.25,0-9.33c0.35-0.08,0.99-0.22,1.58-0.34c-0.92-2.09-1.75-3.98-2.62-5.95c0.96-0.22,1.49-0.35,2.06-0.48
	c-0.08-0.37-0.05-0.68-0.18-0.77c-2.69-1.87-1.81-4.79-1.22-6.88c0.54-1.89,0.69-3.61,0.63-5.48c-0.01-0.41,0.09-0.89,0.3-1.23
	c1.27-2.05,1.17-4.12,0.35-6.31c-0.75-1.99-1.32-4.04-1.93-5.93c0.62-0.53,1.49-0.93,1.49-1.33c-0.03-2.88,1.15-5.71,0.48-8.6
	c-0.34-1.46-0.95-2.86-1.46-4.32c0.64,0.19,1.25,0.38,2.12,0.64c-0.69-3.18-1.3-6.03-1.92-8.88c0.18,0,0.36,0.01,0.55,0.01
	c0.1-0.81,0.39-1.65,0.25-2.42c-0.18-1.04-0.69-2.03-1.05-3.03c0.58-0.06,1.17-0.12,2-0.2c-1.05-2.02-1.92-3.76-2.85-5.47
	c-0.74-1.37-1.45-2.77-2.35-4.02c-1.39-1.93-2.74-3.83-2.82-6.57c-0.47-1.24-3.27-1.27-2.8-3.5c1.28,0.09,2.21,0.15,3.14,0.22
	c0.06-0.25,0.11-0.51,0.17-0.76c-0.67-0.55-1.56-0.98-1.93-1.68c-0.29-0.55,0.05-1.43,0.14-2.5c-3.41-3.05-3.72-4.6-1.14-6.67
	c-1.07-1.43-2.13-2.86-3.26-4.37c1.02-0.65,1.73-1.1,2.85-1.82c-1.43-1.04-2.6-1.86-3.74-2.72c-0.51-0.38-1.41-0.91-1.36-1.25
	c0.2-1.27,0.72-2.49,0.99-3.32c-0.91-1.17-2.32-2.17-2.25-3.04c0.2-2.23-0.8-2.65-2.59-2.71c-0.53-0.02-1.05-0.32-1.57-0.49
	c0.22-0.13,0.44-0.26,0.67-0.39c-0.25-0.85-0.34-1.81-0.8-2.52c-0.37-0.56-1.2-0.8-1.83-1.19c0.55-0.65,1.09-1.31,1.66-1.94
	c0.28-0.3,0.62-0.55,1.11-0.97c-0.79-0.69-1.49-1.2-2.06-1.83c-1.49-1.63-3.82-2.75-3.27-5.63c0.08-0.44-0.62-1.08-1.06-1.54
	c-0.53-0.56-1.16-1.03-1.88-1.66c0.72-0.53,1.22-0.89,2.13-1.56c-3.4-2.66-6.61-5.16-9.76-7.62c0.72-1.02,1.32-1.86,2-2.83
	c-4.29-0.84-5.93-2.12-6.3-4.64c-0.97,0-1.94,0-3.06,0c0.49-0.66,0.82-1.1,1.37-1.84c-1.56-0.47-2.85-0.85-4.14-1.24
	c0.55-1.54,0.51-1.79-1.09-2.29c-2.21-0.7-4.47-1.24-7.32-2.02c1.45-1.22,2.49-2.1,4.08-3.45c-3.65-0.41-6.62-0.74-10.12-1.14
	c1.28-0.73,2-1.13,2.72-1.54c-0.05-0.18-0.11-0.35-0.16-0.53c-3.42,0.34-6.81,0.59-9.67-1.96c0.74-0.34,1.35-0.63,2.6-1.21
	c-1.77-0.37-2.88-0.6-4.21-0.88c0.95-0.24,1.68-0.42,2.59-0.65c-1.38-2.07-3.47-2.08-5.31-2.62c-0.66-0.2-1.33-0.45-1.9-0.82
	c-0.84-0.55-1.53-1.38-2.42-1.8c-1.25-0.58-2.62-0.89-3.94-1.32c0.7-2.03,0.7-2.03-7.24-3.09c0.34-0.6,0.66-1.16,1.18-2.08
	c-1.71,0.2-3.02,0.35-4.45,0.52c0.36-0.89,0.63-1.53,1.06-2.59c-1.37,0.24-2.37,0.31-3.31,0.6c-1.71,0.52-3.08,0.39-4.72-0.68
	c-2.45-1.61-5.1-3.43-8.25-2.89c-1.46,0.25-3.04-0.32-3.26-0.95c-0.76-2.15-2.25-0.72-3.32-1.05c-0.27-0.08-0.56-0.08-0.85-0.11
	c-0.31-0.88-0.78-1.69-1.39-1.81c-2.29-0.44-4.63-0.66-6.94-0.97c-0.18-0.02-0.36-0.12-0.54-0.18c0.26-0.54,0.49-1.01,0.94-1.95
	c-2.31,0.3-4.17,0.54-6.15,0.8c0.53-1.05,1.02-2.04,1.77-3.52c-1.89,0.45-3.22,0.79-4.57,1.08c-0.93,0.2-1.92,0.57-2.8,0.41
	c-2.24-0.41-4.43-1.08-6.27-1.56c0.05-0.03,0.58-0.3,1.63-0.84c-1.24-0.47-1.93-0.88-2.68-1c-2.18-0.33-4.38-0.54-6.57-0.82
	c-0.46-0.06-1.29-0.19-1.31-0.37c-0.22-1.92-1.52-1.18-2.52-1.07c-1.17,0.13-2.33,0.35-3.4,0.52c-2.22-3.08-4.46,0.06-6.79-0.15
	c0.18-0.56,0.36-1.12,0.72-2.25c-1.7,0.83-2.94,1.45-4.28,2.1c0.06-0.87,0.1-1.51,0.14-2.15c-0.61,0.24-1.22,0.48-1.83,0.72
	c-1.14,0.46-3.02,1.57-3.28,1.27c-1.39-1.62-2.75-0.32-4.08-0.3c-0.65,0.01-1.49,0.62-1.91,0.38c-2.67-1.54-5.36-0.49-8.14-0.28
	c0.52-1.74-0.62-2-1.88-1.84c-3.62,0.44-7.22,0.98-10.39,1.42c-0.6-0.43-1.15-1.13-1.53-1.05c-0.94,0.21-1.81,0.77-2.56,1.12
	c-0.33-0.76-0.6-1.37-0.87-1.99c-0.5,0.36-1.01,0.7-1.48,1.1c-0.33,0.28-0.81,0.97-0.87,0.92c-2.02-1.25-3.06,1.14-4.87,1.16
	c-0.36-1.61-1.08-1.05-2.08-0.28c-1.03,0.79-2.46,2.07-3.37,1.82c-2.22-0.59-3.81,0.44-5.62,1.1c-0.56,0.2-1.21,0.23-1.82,0.19
	c-0.76-0.05-1.64-0.58-2.25-0.34c-3.06,1.2-6.05,2.58-8.98,3.86c-0.08-1.38-0.89-1.58-2.14-0.48c-1.07,0.94-2.07,1.96-3.09,2.94
	c-0.47-0.89-0.9-1.71-1.46-2.77c-1.8,3.59-1.82,3.54-5.91,5.38c-2.33,1.04-4.57,2.29-6.88,3.39c-1.21,0.57-2.25,2.05-3.9,0.73
	c-0.22-0.18-1.1,0.29-1.57,0.61c-0.97,0.67-1.85,1.46-2.81,2.14c-0.29,0.21-0.69,0.29-1.05,0.36c-0.56,0.12-1.29-0.01-1.66,0.31
	c-0.7,0.6-1.2,1.44-1.79,2.18c-0.7-0.55-1.34-1.06-2.31-1.82c-0.27,1.1-0.3,1.86-0.63,2.44c-0.71,1.23-1.38,2.62-2.45,3.46
	c-1.21,0.95-2.83,1.36-4.28,2c-0.44,0.19-0.89,0.38-1.35,0.48c-0.92,0.2-2.02,0.08-2.74,0.56c-1.51,1.01-2.83,2.31-4.08,3.37
	c-3.27-0.78-3.09,2.96-4.99,3.8c-0.26-0.58-0.52-1.16-0.78-1.75c-0.23-0.08-0.45-0.16-0.68-0.24c-0.68,5.25-3.49,8.84-7.97,11.07
	c0.26-0.61,0.52-1.24,0.78-1.87c-0.26-0.17-0.52-0.33-0.79-0.5c-2.23,2.74-4.45,5.49-6.62,8.16c-0.5-0.07-1.39-0.44-1.64-0.18
	c-0.97,0.98-1.93,2.07-2.54,3.3c-1.19,2.37-2.15,4.86-3.37,7.69c0-1.2,0-1.95,0-3.38c-1.05,0.77-1.86,1.12-2.28,1.73
	c-1.13,1.63-2.09,3.39-3.13,5.09c-0.23,0.37-0.47,1.01-0.74,1.03c-3.24,0.21-2.29,4.24-4.74,5.12c-0.22,4.82-2.96,8.48-5.61,12.18
	c-0.17,0.24-0.37,0.67-0.54,0.66c-2.17-0.1-1.76,1.75-2.14,2.9c-0.66,2.03-0.3,4.45-2.4,5.9c-0.6-0.32-1.22-0.65-2.26-1.21
	c0.45,1.95,0.8,3.5,1.19,5.21c-1.02-0.33-1.73-0.57-2.4-0.79c0,3.85,0,7.42,0,11.07c-0.61-0.3-1.15-0.57-1.97-0.97
	c0,0.83-0.05,1.39,0.01,1.93c0.17,1.53,0.51,3.06,0.56,4.59c0.04,1.47,0.23,3.3-2.33,2.71c-0.18-0.04-0.66,0.67-0.8,1.1
	c-0.85,2.6-0.84,5.2-0.02,7.82c0.17,0.53,0.44,1.29,0.21,1.63c-1.16,1.67-0.87,3.6-1.14,5.41c-0.22,1.51,0.24,3.88-0.55,4.39
	c-1.7,1.09-0.93,2.26-0.91,3.42c0.01,0.8,0.3,1.6,0.51,2.58c-1-0.4-1.65-0.66-2.9-1.17c0.73,1.99,1.27,3.45,1.83,4.97
	c-0.75-0.16-1.39-0.29-2.57-0.53c4.14,5.91,1.45,11.97,2.1,17.76c-1.25,0.15-2.32,0.28-3.34,0.4c1.79,2.17,3.39,4.1,4.99,6.03
	c-0.24,0.08-0.49,0.16-0.73,0.24c-0.22,0.61-0.82,1.49-0.61,1.78c2.58,3.53-0.24,7.49,1.39,11.1c-1.16,0.05-1.92,0.09-2.9,0.13
	c0.89,1.79,2.47,3.48,2.24,4.85c-0.38,2.21,1.12,3.18,1.77,4.68c0.21,0.49,0.48,0.97,0.74,1.5c-1.23,0.18-2.24,0.33-3.89,0.57
	c1.2,0.65,1.77,0.96,2.47,1.34c-1.55,0.72-2.88,1.35-4.37,2.04c1.53,1.58,4.33,0.17,4.62,2.9c-0.68,0.46-1.33,0.91-2.29,1.57
	c1.18,0.31,1.86,0.49,2.45,0.64c0,1.39,0,2.64,0,3.89c-0.87,2.12-0.82,2.38,1.36,2.73c-1.42,1.06-2.65,1.98-4.32,3.23
	c1.61,0.36,2.87,0.64,3.81,0.85c-0.54,1.59-1.08,3.18-1.74,5.1c1.1-0.12,1.67-0.19,2.13-0.24c-0.3,2-0.59,3.93-0.96,6.32
	c1.27-0.52,1.86-0.76,2.45-1c0.12,0.13,0.24,0.27,0.36,0.4c-0.95,1.28-1.9,2.55-3.01,4.05c1.33,0.11,2.41,0.19,3.61,0.29
	c-1.27,0.98-2.35,1.82-3.44,2.67c0.1,0.24,0.19,0.48,0.29,0.72c1.57,0,3.14,0,4.59,0c-0.34,1.59-0.71,2.84-0.86,4.11
	c-0.16,1.37,0.45,1.74,1.73,1.06c0.67-0.36,1.46-0.49,2.61-0.86C130.87,479.5,130.87,479.5,134.23,479.72z M212.95,425.56
	c-0.26,0.19-0.52,0.38-0.79,0.57c-0.45-0.56-1.12-1.05-1.31-1.68c-0.66-2.21-1.62-2.77-3.74-2.01c-1.8,0.64-3.63,1.18-5.42,1.82
	c-6.63,2.39-13.33,4.66-19.06,8.96c-0.72,0.54-1.45,1.06-2.01,1.48c2.56,1.31,4.94,2.57,7.36,3.73c1.52,0.73,3.06,1.63,4.67,1.86
	c1.41,0.2,1.93,0.93,2.65,1.91c2.13,2.88,4.03,6.1,6.7,8.4c6.58,5.69,14,7.19,22.63,4.4c5.34-1.73,11.16-9.51,11.17-14.19
	c0.01-4.08-0.31-8.15-0.49-12.36c4.31-1.57,6.47-5.41,8.41-9.67c-0.66-0.37-1.13-0.78-1.67-0.92c-4.66-1.16-9.12-2.92-14.19-1.04
	c-4.94,1.83-10.21,2.78-15.41,4.14C212.62,422.57,212.79,424.07,212.95,425.56z M247,417.41c0.05-0.1,0.11-0.19,0.16-0.29
	c-4.9-2.88-9.63-6.09-14.75-8.5c-2.73-1.29-6.14-1.72-9.2-1.6c-4.02,0.16-8.07,0.95-11.98,1.99c-5.32,1.42-10.91,2.59-15.65,5.2
	c-8.69,4.8-14.23,13.02-19.9,20.94c-0.06,0.08,0.14,0.35,0.29,0.72c0.73-0.5,1.46-0.86,2-1.41c7.1-7.14,16.67-9.52,25.57-13.06
	c5.73-2.28,11.76-3.84,17.7-5.55c5.14-1.48,10.33-2.15,15.67-0.61C240.21,416.19,243.63,416.7,247,417.41z M188.51,497.92
	c1.9,2.02,3.72,3.87,6.56,3.52c3.77-0.47,5.14-3.41,6.22-6.82C197.21,496.4,193.33,498.85,188.51,497.92z M257.75,470.1
	c2.39,4.03,5.28,4.09,8.07,2.94c2.48-1.02,4.34-4.56,3.68-7.17C266.26,469.04,262.75,471.44,257.75,470.1z"/>
<path d="M134.23,479.72c-3.36-0.22-3.36-0.22-1.22-4.56c-1.15,0.37-1.94,0.5-2.61,0.86c-1.28,0.68-1.88,0.31-1.73-1.06
	c0.15-1.28,0.52-2.53,0.86-4.11c-1.45,0-3.02,0-4.59,0c-0.1-0.24-0.19-0.48-0.29-0.72c1.09-0.84,2.17-1.69,3.44-2.67
	c-1.2-0.1-2.29-0.18-3.61-0.29c1.12-1.5,2.07-2.78,3.01-4.05c-0.12-0.13-0.24-0.27-0.36-0.4c-0.59,0.24-1.18,0.48-2.45,1
	c0.36-2.39,0.65-4.32,0.96-6.32c-0.46,0.05-1.03,0.12-2.13,0.24c0.65-1.92,1.2-3.51,1.74-5.1c-0.94-0.21-2.2-0.49-3.81-0.85
	c1.67-1.25,2.9-2.17,4.32-3.23c-2.18-0.35-2.23-0.61-1.36-2.73c0-1.25,0-2.51,0-3.89c-0.58-0.15-1.26-0.33-2.45-0.64
	c0.96-0.65,1.61-1.1,2.29-1.57c-0.29-2.73-3.1-1.31-4.62-2.9c1.49-0.69,2.82-1.31,4.37-2.04c-0.7-0.38-1.28-0.69-2.47-1.34
	c1.65-0.24,2.66-0.39,3.89-0.57c-0.27-0.53-0.53-1.01-0.74-1.5c-0.65-1.51-2.15-2.47-1.77-4.68c0.24-1.37-1.35-3.06-2.24-4.85
	c0.98-0.05,1.73-0.08,2.9-0.13c-1.63-3.6,1.2-7.56-1.39-11.1c-0.21-0.29,0.38-1.17,0.61-1.78c0.24-0.08,0.49-0.16,0.73-0.24
	c-1.6-1.93-3.19-3.86-4.99-6.03c1.01-0.12,2.09-0.25,3.34-0.4c-0.65-5.78,2.05-11.85-2.1-17.76c1.18,0.24,1.81,0.37,2.57,0.53
	c-0.56-1.52-1.1-2.98-1.83-4.97c1.25,0.5,1.9,0.76,2.9,1.17c-0.2-0.99-0.49-1.78-0.51-2.58c-0.02-1.16-0.8-2.33,0.91-3.42
	c0.79-0.51,0.33-2.88,0.55-4.39c0.27-1.82-0.02-3.74,1.14-5.41c0.23-0.33-0.04-1.1-0.21-1.63c-0.82-2.61-0.83-5.22,0.02-7.82
	c0.14-0.43,0.62-1.14,0.8-1.1c2.56,0.59,2.38-1.24,2.33-2.71c-0.05-1.53-0.39-3.06-0.56-4.59c-0.06-0.54-0.01-1.1-0.01-1.93
	c0.82,0.41,1.36,0.67,1.97,0.97c0-3.65,0-7.22,0-11.07c0.67,0.22,1.38,0.45,2.4,0.79c-0.39-1.71-0.75-3.26-1.19-5.21
	c1.04,0.56,1.66,0.89,2.26,1.21c2.1-1.45,1.74-3.87,2.4-5.9c0.37-1.14-0.03-2.99,2.14-2.9c0.17,0.01,0.37-0.43,0.54-0.66
	c2.66-3.7,5.4-7.35,5.61-12.18c2.45-0.88,1.5-4.92,4.74-5.12c0.27-0.02,0.52-0.66,0.74-1.03c1.04-1.7,2-3.45,3.13-5.09
	c0.43-0.62,1.24-0.96,2.28-1.73c0,1.42,0,2.18,0,3.38c1.22-2.82,2.18-5.31,3.37-7.69c0.62-1.22,1.57-2.31,2.54-3.3
	c0.25-0.26,1.14,0.11,1.64,0.18c2.17-2.67,4.39-5.41,6.62-8.16c0.26,0.17,0.52,0.33,0.79,0.5c-0.26,0.63-0.53,1.26-0.78,1.87
	c4.49-2.24,7.29-5.82,7.97-11.07c0.23,0.08,0.45,0.16,0.68,0.24c0.26,0.58,0.52,1.17,0.78,1.75c1.91-0.84,1.73-4.58,4.99-3.8
	c1.25-1.06,2.56-2.37,4.08-3.37c0.72-0.48,1.82-0.36,2.74-0.56c0.46-0.1,0.91-0.29,1.35-0.48c1.45-0.63,3.07-1.05,4.28-2
	c1.07-0.84,1.74-2.23,2.45-3.46c0.34-0.58,0.36-1.34,0.63-2.44c0.97,0.77,1.61,1.27,2.31,1.82c0.59-0.74,1.09-1.58,1.79-2.18
	c0.37-0.32,1.1-0.19,1.66-0.31c0.36-0.08,0.76-0.16,1.05-0.36c0.96-0.69,1.84-1.48,2.81-2.14c0.47-0.32,1.34-0.79,1.57-0.61
	c1.65,1.32,2.69-0.15,3.9-0.73c2.31-1.1,4.55-2.35,6.88-3.39c4.1-1.83,4.12-1.79,5.91-5.38c0.56,1.06,0.99,1.88,1.46,2.77
	c1.02-0.97,2.02-1.99,3.09-2.94c1.25-1.1,2.06-0.9,2.14,0.48c2.93-1.28,5.92-2.66,8.98-3.86c0.61-0.24,1.49,0.29,2.25,0.34
	c0.6,0.04,1.26,0.01,1.82-0.19c1.81-0.66,3.4-1.69,5.62-1.1c0.91,0.24,2.34-1.03,3.37-1.82c1-0.77,1.72-1.33,2.08,0.28
	c1.8-0.02,2.85-2.41,4.87-1.16c0.07,0.04,0.54-0.64,0.87-0.92c0.47-0.4,0.99-0.74,1.48-1.1c0.27,0.61,0.54,1.23,0.87,1.99
	c0.75-0.35,1.61-0.92,2.56-1.12c0.38-0.08,0.94,0.62,1.53,1.05c3.17-0.44,6.77-0.98,10.39-1.42c1.26-0.15,2.4,0.1,1.88,1.84
	c2.78-0.2,5.47-1.26,8.14,0.28c0.42,0.24,1.26-0.37,1.91-0.38c1.32-0.02,2.68-1.32,4.08,0.3c0.26,0.3,2.14-0.81,3.28-1.27
	c0.61-0.25,1.22-0.48,1.83-0.72c-0.04,0.64-0.08,1.27-0.14,2.15c1.34-0.66,2.58-1.27,4.28-2.1c-0.36,1.13-0.54,1.68-0.72,2.25
	c2.33,0.21,4.57-2.93,6.79,0.15c1.07-0.17,2.23-0.39,3.4-0.52c1-0.12,2.3-0.85,2.52,1.07c0.02,0.17,0.85,0.31,1.31,0.37
	c2.19,0.28,4.39,0.49,6.57,0.82c0.74,0.11,1.44,0.52,2.68,1c-1.05,0.54-1.57,0.81-1.63,0.84c1.85,0.47,4.03,1.15,6.27,1.56
	c0.88,0.16,1.87-0.21,2.8-0.41c1.34-0.28,2.67-0.63,4.57-1.08c-0.75,1.48-1.24,2.47-1.77,3.52c1.98-0.26,3.84-0.5,6.15-0.8
	c-0.46,0.95-0.68,1.41-0.94,1.95c0.18,0.06,0.36,0.16,0.54,0.18c2.32,0.31,4.65,0.53,6.94,0.97c0.6,0.12,1.07,0.93,1.39,1.81
	c0.28,0.03,0.58,0.03,0.85,0.11c1.07,0.33,2.56-1.1,3.32,1.05c0.22,0.63,1.8,1.2,3.26,0.95c3.15-0.54,5.8,1.28,8.25,2.89
	c1.64,1.08,3.01,1.2,4.72,0.68c0.94-0.29,1.95-0.36,3.31-0.6c-0.43,1.06-0.7,1.7-1.06,2.59c1.43-0.17,2.74-0.32,4.45-0.52
	c-0.52,0.92-0.84,1.48-1.18,2.08c7.94,1.06,7.94,1.06,7.24,3.09c1.32,0.43,2.69,0.73,3.94,1.32c0.89,0.42,1.58,1.26,2.42,1.8
	c0.57,0.37,1.24,0.62,1.9,0.82c1.84,0.55,3.93,0.56,5.31,2.62c-0.92,0.23-1.65,0.41-2.59,0.65c1.33,0.28,2.44,0.51,4.21,0.88
	c-1.25,0.58-1.87,0.87-2.6,1.21c2.86,2.55,6.25,2.31,9.67,1.96c0.05,0.18,0.11,0.35,0.16,0.53c-0.72,0.41-1.44,0.82-2.72,1.54
	c3.5,0.39,6.47,0.73,10.12,1.14c-1.59,1.34-2.64,2.23-4.08,3.45c2.85,0.78,5.11,1.33,7.32,2.02c1.6,0.51,1.65,0.75,1.09,2.29
	c1.29,0.39,2.58,0.77,4.14,1.24c-0.55,0.74-0.87,1.17-1.37,1.84c1.13,0,2.09,0,3.06,0c0.37,2.53,2.01,3.81,6.3,4.64
	c-0.68,0.96-1.28,1.8-2,2.83c3.15,2.46,6.35,4.97,9.76,7.62c-0.91,0.67-1.41,1.03-2.13,1.56c0.72,0.62,1.35,1.09,1.88,1.66
	c0.43,0.46,1.14,1.1,1.06,1.54c-0.55,2.89,1.78,4.01,3.27,5.63c0.57,0.63,1.28,1.14,2.06,1.83c-0.49,0.42-0.83,0.67-1.11,0.97
	c-0.57,0.63-1.11,1.29-1.66,1.94c0.63,0.39,1.46,0.63,1.83,1.19c0.47,0.71,0.55,1.67,0.8,2.52c-0.22,0.13-0.44,0.26-0.67,0.39
	c0.52,0.17,1.04,0.47,1.57,0.49c1.79,0.06,2.79,0.48,2.59,2.71c-0.08,0.87,1.33,1.87,2.25,3.04c-0.27,0.84-0.79,2.06-0.99,3.32
	c-0.05,0.34,0.85,0.86,1.36,1.25c1.14,0.86,2.31,1.68,3.74,2.72c-1.12,0.72-1.83,1.17-2.85,1.82c1.13,1.51,2.19,2.94,3.26,4.37
	c-2.58,2.06-2.27,3.62,1.14,6.67c-0.09,1.07-0.43,1.96-0.14,2.5c0.38,0.7,1.27,1.13,1.93,1.68c-0.06,0.25-0.11,0.51-0.17,0.76
	c-0.93-0.06-1.85-0.13-3.14-0.22c-0.47,2.23,2.33,2.26,2.8,3.5c0.08,2.74,1.44,4.64,2.82,6.57c0.9,1.26,1.61,2.66,2.35,4.02
	c0.93,1.71,1.8,3.46,2.85,5.47c-0.83,0.08-1.42,0.14-2,0.2c0.36,1,0.87,1.98,1.05,3.03c0.13,0.77-0.15,1.61-0.25,2.42
	c-0.18,0-0.36-0.01-0.55-0.01c0.62,2.85,1.23,5.7,1.92,8.88c-0.87-0.26-1.48-0.45-2.12-0.64c0.5,1.46,1.11,2.86,1.46,4.32
	c0.67,2.88-0.51,5.71-0.48,8.6c0,0.39-0.86,0.79-1.49,1.33c0.61,1.89,1.19,3.94,1.93,5.93c0.82,2.19,0.92,4.26-0.35,6.31
	c-0.21,0.34-0.32,0.82-0.3,1.23c0.06,1.86-0.09,3.58-0.63,5.48c-0.59,2.09-1.48,5.01,1.22,6.88c0.13,0.09,0.1,0.4,0.18,0.77
	c-0.57,0.13-1.09,0.25-2.06,0.48c0.87,1.97,1.7,3.87,2.62,5.95c-0.58,0.13-1.23,0.27-1.58,0.34c0,3.09,0,6.16,0,9.33
	c-0.56-0.51-1.17-1.06-1.69-1.52c0,2.54,0.02,5.04-0.01,7.54c-0.02,1.74,0.95,3.72-1.18,5.01c-0.16,0.1,0.06,0.82,0.08,1.25
	c0.15,3.25,0.28,6.5-1.41,9.47c-0.37,0.65-0.95,1.18-1.81,1.57c0.17-1.27,0.34-2.54,0.52-3.81c-0.15-0.03-0.3-0.06-0.44-0.08
	c-1.15,2.73-2.3,5.45-3.72,8.8c-0.21-1.5-0.33-2.39-0.45-3.28c-0.1-0.02-0.21-0.04-0.31-0.06c-0.53,2.08-1.05,4.16-1.58,6.24
	c-0.3,1.19-0.58,2.38-0.94,3.55c-0.07,0.23-0.51,0.31-0.72,0.52c-0.78,0.78-1.59,1.55-2.28,2.4c-0.46,0.56-0.56,1.54-1.1,1.88
	c-3.4,2.12-2.87,5.46-2.88,8.66c0,0.37,0,0.74,0,1.32c-0.44-0.06-0.85-0.12-1.38-0.19c-0.18,0.78-0.36,1.55-0.56,2.45
	c-0.49-0.14-0.93-0.27-1.46-0.43c-0.45,1.79-0.82,3.58-1.38,5.31c-0.22,0.69-0.29,2.22-1.79,1.12c-0.77,1.07-1.81,2.05-2.23,3.25
	c-0.47,1.35-0.36,2.89-0.55,4.79c-1.95-2.04-1.24-4.48-2-6.86c-2.81,2.85-1.18,6.61-2.49,9.6c-0.61,0.04-1.78-1.54-1.54,1.6
	c-0.63-1.55-0.86-2.11-1.09-2.69c-0.64,1.21-1.24,2.35-1.83,3.49c-0.19-0.1-0.37-0.2-0.56-0.29c-0.1,2.09-0.2,4.17-0.3,6.43
	c-1.57,1.4-2.1-0.7-3.14-1.35c-0.68,1.59-1,3.33-2,4.48c-2.93,3.39-6.13,6.55-9.56,10.15c-0.35-1.23-0.47-1.67-0.59-2.09
	c-1.47-0.15-7.55,8.82-8.75,12.35c-0.53-1.6-1.05-3.19-1.7-5.13c-1.05,1.55-1.9,2.9-2.84,4.18c-0.33,0.45-0.87,0.74-1.32,1.11
	c-0.36-0.58-0.91-1.12-1.05-1.74c-0.16-0.75,0.04-1.57,0.08-2.36c-0.17-0.08-0.35-0.16-0.52-0.24c-1.22,2.19-2.45,4.38-3.67,6.57
	c-2.54-1.23-1.94,2.71-4.05,2.41c-0.03-0.32-0.07-0.71-0.11-1.1c-1.44,1.38-3.16,2.54-4.17,4.15c-0.95,1.52-1.15,3.51-1.78,5.6
	c-0.68-0.91-1.37-1.82-2.14-2.84c-1.55,0.49-2.03,1.46-0.94,3.24c-0.99-0.09-1.55-0.16-2.1-0.19c-1.67-0.07-3,0.36-3.58,2.18
	c-0.64,2.03-1.67,3.73-4.32,4.27c0.26-0.89,0.44-1.52,0.62-2.15c-0.13-0.08-0.26-0.17-0.39-0.25c-1.75,2.07-3.49,4.14-5.24,6.2
	c-0.15-0.13-0.3-0.26-0.45-0.39c0-1.04,0-2.08,0-3.12c-0.25-0.07-0.5-0.15-0.75-0.22c-0.71,0.93-1.43,1.85-2.17,2.81
	c-0.93,0.25-2.04,0.54-3.44,0.91c1.09-1.24,2.02-2.28,2.95-3.33c-0.11-0.13-0.23-0.25-0.34-0.38c-1.4,1.06-2.77,2.16-4.2,3.18
	c-1.21,0.87-2.36,2.22-4.62,1.18c-0.6,0.41-1.64,1.68-2.79,1.78c-3.71,0.35-6.15,3.15-9.3,4.27c-1.49,0.53-2.47,1.45-4.23,2.65
	c0.37-1.73,0.61-2.84,0.85-3.95c-0.17-0.15-0.34-0.31-0.51-0.46c-1.97,2.18-3.94,4.37-6.06,6.71c-0.45-0.8-0.79-1.4-1.16-2.06
	c-0.8,0.32-1.61,0.63-2.75,1.08c0.31-0.83,0.51-1.37,0.74-2.01c-3.87,2.25-7.61,4.42-11.34,6.59c-0.1-0.15-0.2-0.31-0.3-0.46
	c1.54-1.09,3.09-2.17,4.63-3.26c-0.08-0.16-0.17-0.33-0.25-0.49c-1.56,0.61-3.13,1.22-4.69,1.83c-0.06-0.11-0.13-0.22-0.19-0.33
	c1.06-0.79,2.12-1.58,3.18-2.37c-0.08-0.16-0.15-0.33-0.23-0.49c-0.88,0.33-1.79,0.59-2.62,1.01c-1.58,0.79-3.11,1.68-4.69,2.49
	c-1.11,0.57-2.19,0.89-2.41-0.98c-2.43,0.5-4.61,1.99-7.12,0.78c-0.32-0.16-1,0.44-1.52,0.67c-1.3,0.57-2.6,1.14-3.9,1.7
	c-0.13-0.19-0.25-0.39-0.38-0.58c1.2-1.28,2.4-2.56,3.6-3.85c-0.12-0.1-0.23-0.2-0.35-0.29c-2.52,1.03-5.04,2.07-7.56,3.1
	c-0.1-0.19-0.2-0.38-0.29-0.57c0.38-0.32,0.77-0.64,1.15-0.95c-0.09-0.22-0.18-0.45-0.27-0.67c-1.62,0.66-3.23,1.32-5,2.04
	c-0.17-0.46-0.38-1.01-0.66-1.73c-1.1,0.6-2.12,1.15-3.42,1.86c-0.09-0.76-0.17-1.4-0.26-2.19c-1.8,0.41-3.56,0.99-5.36,1.18
	c-1.85,0.19-3.82,0.41-4.97-1.84c-0.27-0.52-1.52-0.71-2.34-0.75c-2.13-0.1-4.27-0.04-6.41-0.03c-1.55,0-1.8-0.67-0.72-2.18
	c-1.93,0.09-3.57,0.17-5.34,0.25c-0.02-0.34-0.06-0.8-0.1-1.38c-1.41,0.1-2.8,0.28-4.18,0.27c-1.45-0.01-3.2,0.62-3.87-1.51
	c-0.05-0.15-0.41-0.34-0.54-0.3c-2.63,0.94-5.31-1.02-7.95,0.15c-0.36,0.16-0.84,0.07-1.41,0.1c-0.02-2.67,2.62-2.27,4.06-3.91
	c-2.26,0-4.14-0.01-6.01,0c-1.24,0.01-2.51,0.07-2.17-1.51c-3.97-0.88-7.77-1.65-11.54-2.6c-1.1-0.28-2.44-0.79-3.05-1.64
	c-2.82-3.92-6.96-4.21-11.16-4.47c-0.27-0.02-0.53-0.07-0.93-0.61c1.05-0.36,2.1-0.73,3.16-1.09c-0.02-0.14-0.04-0.29-0.06-0.43
	c-2.08,0.28-4.16,0.56-6.24,0.83c-0.08-0.24-0.17-0.48-0.25-0.72c1.65-0.67,3.29-1.35,4.94-2.02c0-0.17,0-0.35,0-0.52
	c-1.48,0-2.97-0.13-4.43,0.04c-1.58,0.18-3.12,0.65-4.68,0.99c-0.09-0.24-0.17-0.47-0.26-0.71c1.12-0.5,2.24-0.99,3.49-1.55
	c-1.99-0.47-3.92-0.93-5.86-1.39c0.04-0.18,0.08-0.36,0.12-0.54c1.49,0,2.98,0,4.46,0c0.04-0.15,0.07-0.3,0.11-0.44
	c-3.75-0.75-7.5-1.51-11.46-2.3c0.25-0.68,0.45-1.23,0.6-1.64c-1.83-1.55-3.49-3.26-5.45-4.49c-1.1-0.69-2.69-0.62-4.07-0.84
	c-0.84-0.14-1.69-0.2-2.54-0.29c-0.02-0.18-0.04-0.37-0.06-0.55c1.12-0.29,2.24-0.58,3.36-0.87c-2.03-0.67-4.78-0.02-5.26-3.23
	c-1.45,0.3-2.7,0.56-3.96,0.82c-0.08-0.22-0.17-0.44-0.25-0.67c1.37-0.6,2.73-1.2,4.1-1.8c0.04-0.14,0.09-0.29,0.13-0.43
	c-0.97-0.16-1.96-0.27-2.92-0.48c-1.27-0.28-2.58-0.51-3.74-1.04c-0.39-0.18-0.39-1.22-0.31-1.97c-2.3-2.72-6.82-2.13-9.47-5.73
	c2.52,0.74,4.46,1.31,6.41,1.88c0.1-0.27,0.21-0.53,0.31-0.8c-1.77-0.93-3.65-1.71-5.29-2.84c-2.03-1.4-3.92-3.02-5.73-4.7
	c-0.26-0.24,0.32-1.37,0.49-2.01c-1.31-2.88-2.74-6-4.31-9.46c0.93,0.26,1.74,0.37,2.43,0.71c0.76,0.37,1.42,0.96,2.47,1.69
	c0-0.99,0-1.57,0-2.22c0.78-0.91,2.06-0.28,2.96,1.62c0.6,0,1.25,0,1.9,0c-2.02,1.37-1.97,3.01-0.51,5.05
	c0.76-0.07,1.93,0.05,2.91-0.33c2.21-0.85,3.47,0.26,4.72,1.77c0.36,0.44,1.01,0.65,1.63,1.03c-0.39,0.36-0.8,0.73-1.28,1.16
	c1.6,1.84,3.26,0.42,4.85,0c0.08,0.25,0.15,0.49,0.23,0.74c-2.14,1.12-4.29,2.24-6.86,3.58c0.82,0.31,1.48,0.83,1.94,0.69
	c1.99-0.59,3.9-1.07,5.95-0.13c0.63,0.29,1.54-0.02,2.42-0.06c0.16,1.32,0.32,2.72,0.49,4.12c0.2,0.03,0.41,0.05,0.61,0.08
	c0.49-1.66,0.99-3.33,1.48-4.99c-0.02,2.29-1.22,4.55,0.52,7.1c0.54-1.18,0.93-2.04,1.38-3.04c0.3,0.83,0.52,1.44,0.73,2.05
	c0.56-0.29,1.19-0.49,1.68-0.88c1.37-1.09,2.68-2.24,4.02-3.37c0.14,0.14,0.27,0.28,0.41,0.43c-1.67,1.57-3.34,3.13-5.34,5.01
	c4.11,1.46,5.84-2.55,8.84-2.74c-0.07,1.21-0.46,2.52-0.11,3.59c0.27,0.83,1.47,1.35,2.39,2.13c1.37-3.46,5.01-3.32,7.51-5.03
	c0.13,0.15,0.25,0.29,0.38,0.44c-0.63,0.32-1.25,0.64-1.88,0.96c0.18,0.28,0.36,0.55,0.54,0.83c1.47-0.57,2.94-1.14,4.71-1.82
	c-1.03,1.28-1.92,2.38-3.23,4.01c1.61-0.27,2.53-0.42,3.51-0.59c0.31,1.13,0.65,2.32,0.98,3.52c0.24-0.01,0.48-0.01,0.72-0.02
	c0.35-2.01,0.69-4.02,1.04-6.02c0.07,0.01,0.15,0.03,0.22,0.04c0.14,1.56,0.29,3.11,0.43,4.67c0.33,0.04,0.66,0.08,0.99,0.13
	c0.88-1.95,1.75-3.91,2.63-5.86c0.15,0.03,0.29,0.05,0.44,0.08c-0.15,1.46-0.29,2.92-0.44,4.38c0.21,0.13,0.42,0.26,0.63,0.39
	c1.29-1.21,2.57-2.43,3.81-3.6c1.04,1.68,2.1,3.42,3.43,5.58c0.38-1.05,0.55-1.54,0.75-2.07c0.45,0.28,0.81,0.49,0.82,0.5
	c0.91-0.67,1.66-1.21,2.4-1.75c0.16,0.18,0.31,0.36,0.47,0.54c-0.24,0.64-0.47,1.28-0.94,2.55c4.05-1.86,7.54-3.41,9.39-7.97
	c0.37,1.64,0.58,2.57,0.78,3.51c0.16,0.03,0.32,0.06,0.48,0.09c0.53-1.05,1.06-2.1,1.69-3.35c0.38,0.48,0.64,0.82,1.17,1.49
	c0.61-1.88,1.12-3.45,1.63-5.04c0.73,0.88,1.45,1.75,2.18,2.62c0.2-0.1,0.4-0.2,0.6-0.29c-0.08-1.34-0.16-2.68-0.25-4.17
	c2.26,0.52,2.92,4.01,6.03,2.8c-0.67-0.96-1.29-1.83-1.91-2.71c0.04-0.19,0.09-0.38,0.13-0.57c0.84,0.22,1.73,0.33,2.5,0.69
	c2.11,1,4.19,1.9,6.57,1.02c0.32-0.12,0.59-0.34,1.06-0.62c-2.24-0.77-4.26-1.46-6.28-2.15c0.03-0.23,0.06-0.46,0.09-0.68
	c3.28-0.27,6.56-0.55,9.84-0.82c0.03-0.18,0.05-0.35,0.08-0.53c-0.57-0.31-1.13-0.62-2.23-1.23c2.76-0.58,5.03-1.06,7.79-1.64
	c-1.05-0.46-1.64-0.71-2.22-0.97c-0.01-0.1-0.01-0.2-0.02-0.31c2.3,0,4.6,0,6.9,0c0.12-0.12,0.25-0.25,0.37-0.37
	c-1.18-0.89-2.37-1.77-3.59-2.68c1.14-0.2,2.43-0.42,4.17-0.72c-0.84-0.61-1.27-0.92-1.98-1.44c2.12-0.52,4.03-0.99,6.39-1.57
	c-1.05-0.51-1.67-0.81-2.42-1.18c0.47-0.39,0.83-0.7,1.26-1.05c-0.61-0.34-1.13-0.64-2.34-1.32c2.52-1.06,4.49-1.88,6.55-2.75
	c0,0-0.26-0.45-0.61-1.04c1.08,0,2.11,0,3.18,0c0-1.18,0.27-2.31-0.08-3.19c-0.35-0.88-1.33-1.51-2.31-2.55
	c1.49-0.71,2.88-1.38,4.56-2.18c-0.62-0.36-1.04-0.6-1.76-1.02c0.64-0.4,1.2-0.75,2.01-1.27c-0.73-0.28-1.06-0.41-1.58-0.61
	c1.25-0.71,2.35-1.34,3.45-1.97c-0.05-0.15-0.1-0.29-0.14-0.44c-0.68-0.06-1.36-0.12-2.8-0.24c2.51-1.92,4.59-3.51,6.67-5.1
	c-0.1-0.2-0.19-0.4-0.29-0.6c-1.24,0.39-2.48,0.79-3.72,1.18c-0.05-0.07-0.1-0.14-0.16-0.21c2.18-1.6,4.37-3.2,6.86-5.03
	c-0.94-0.47-1.78-0.89-3.15-1.58c1.69,0.09,2.84,0.15,4,0.21c0.06-0.25,0.12-0.5,0.18-0.76c-1.7-0.44-3.41-0.88-5.86-1.51
	c1.69-1.21,3.12-2.24,4.55-3.26c-0.2-0.24-0.4-0.48-0.61-0.72c-0.78,0.26-1.55,0.53-2.33,0.79c-0.08-0.12-0.17-0.24-0.25-0.37
	c2.06-1.61,4.12-3.22,6.57-5.14c-1.56-1.05-2.67-1.8-3.82-2.58c1.05-0.27,2.23-0.64,3.43-0.88c1.51-0.29,1.77-1.24,0.78-2.11
	c-2.23-1.96-1.18-3.45,0.72-5.11c-1.12-0.48-2.02-0.87-3.13-1.35c1.77-0.88,2.74-1.92-0.08-3.46c1.37-0.08,2.06-0.12,2.95-0.18
	c-1.43-4.13-2.92-8.13-5.61-11.6c-0.57-0.73-0.71-1.85-0.89-2.82c-1.34-6.94-3.86-13.45-7.44-19.48c-1.8-3.03-3.74-6.12-7.02-8.43
	c0.1,4.32,2.08,8.25,0.17,12.33c0.31-0.03,0.79-0.08,1.6-0.16c-0.56,1.18-1.01,2.14-1.52,3.23c0.59,0,1.09,0,1.86,0
	c-2.24,3.86-1.07,7.95-1.61,11.85c-0.13,0.93-0.36,1.84-0.64,3.19c1.09-1.25,1.88-2.16,2.67-3.07c0.21,0.11,0.41,0.22,0.62,0.33
	c-0.51,1.29-1.01,2.57-1.55,3.92c0.28,0.12,0.63,0.27,1.12,0.48c-0.65,0.8-1.2,1.47-1.8,2.21c0.37,0.3,0.73,0.59,1.14,0.92
	c-2.13,1.85-4.17,3.62-6.34,5.5c0.94,0.07,1.87,0.14,3.13,0.23c-1.48,1.75-2.72,3.22-3.95,4.67c-0.16,0.37-0.21,1.03-0.55,1.24
	c-4.09,2.55-8.39,4.76-13.25,5.13c-4.76,0.36-11.18-4.93-12.26-9.58c-1.05-4.52,0.52-8.72,1.42-13.02c0.66-3.13,2.2-5.68,4.36-8.03
	c0.62-0.68,0.26-2.38,0.16-3.59c-0.14-1.67,0.48-2.26,1.91-1.89c0.08-1.04,0.16-2.12,0.24-3.2c0.54,0.1,1.07,0.2,1.75,0.33
	c-0.5-0.91-1-1.82-1.49-2.72c1.41-0.87,2.73-1.35,1.71-3.43c-0.63-1.28-0.1-3.08-0.49-4.54c-0.34-1.3-0.32-2.74-0.65-3.84
	c-1.09-3.59-2.53-7.19-5.95-9.42c-0.18-0.12-0.48-0.23-0.52-0.39c-1.07-5.31-5.31-5.68-9.54-6.45c-4.01-0.73-7.98-1.22-12.06-0.98
	c-4.6,0.26-9.24,0.1-13.81,0.57c-2.89,0.3-5.68,1.46-8.53,2.16c-3.35,0.82-6.73,1.51-10.08,2.36c-4.26,1.09-8.62,1.94-12.7,3.5
	c-6.48,2.47-12.38,6.09-17.86,10.36c-2.79,2.17-5.53,4.41-8.41,6.47c-2.13,1.52-3.1,3.45-2.88,6.13c2.11,0.33,2.06,1.42,1.18,3.1
	c-0.6,1.14-0.74,2.52-1.09,3.77c1.19,0.3,2.26,0.57,3.55,0.9c-0.31,1.42-0.61,2.76-0.97,4.38c0.9-0.56,1.63-1.02,2.54-1.59
	c0.45,2.28,0.86,4.4,1.32,6.73c0.61-0.25,1.16-0.48,1.68-0.7c2.05,2.47,4.07,4.91,6.28,7.57c0-1.44,0-2.5,0-4.27
	c1.48,2.05,2.6,3.59,3.95,5.46c0.1-1.01,0.16-1.56,0.25-2.48c0.78,0.69,1.35,1.19,1.97,1.75c0.24-0.3,0.51-0.63,0.93-1.15
	c0.71,1.03,1.37,1.97,2.03,2.94c2.07-2.26,2.13,1.12,3.58,1.07c0.17-0.26,0.47-0.75,0.85-1.35c3.29,3.84,7.98,4.97,12.08,7.13
	c0.64,0.34,1.21,0.79,1.85,1.14c1.59,0.86,3.21,1.65,4.77,2.55c1,0.58,2.36,1.11,2.78,2.02c1.55,3.38,3.29,6.8,4,10.39
	c1.15,5.84-1.88,10.53-5.49,14.84c-0.76,0.9-1.34,1.95-2.19,3.21c-0.25-0.04-0.93-0.13-1.76-0.25c0,1.01,0,1.92,0,2.84
	c-0.18,0.12-0.35,0.25-0.53,0.37c-0.73-0.84-1.46-1.68-2.44-2.82c0.21,0.88,0.4,1.46,0.47,2.06c0.06,0.6-0.01,1.21-0.02,1.81
	c-0.57-0.17-1.15-0.33-1.71-0.53c-0.25-0.09-0.46-0.29-0.93-0.61c0.12,0.89,0.2,1.51,0.28,2.14c-0.13,0.16-0.26,0.31-0.39,0.47
	c-1-0.74-1.99-1.48-2.94-2.19c0.02-0.06-0.06,0.07-0.08,0.21c-0.14,1.06-0.26,2.13-0.39,3.2c-1.08-0.52-2.2-0.96-3.21-1.57
	c-0.67-0.4-1.19-1.05-1.96-1.76c-1.08,1.7-2.06,3.24-3.16,4.98c-0.29-1.02-0.57-2.06-0.97-3.48c-0.57,1.04-1.01,1.84-1.44,2.63
	c-0.34-0.23-0.67-0.46-1.01-0.69c0.37-1.42,0.73-2.83,1.08-4.17c-0.64,0-1.31,0-1.98,0c-0.06-0.2-0.12-0.4-0.18-0.6
	c-0.29,0.45-0.58,0.9-0.97,1.5c-1.18-0.45-2.38-0.91-3.63-1.38c-0.61,0.9-2.33,0.73-3.31-0.74c-0.99-1.48-2.02-1.87-4.04-0.32
	c0-3.42,0-6.3,0-9.31c-0.79,0.73-1.61,1.49-2.63,2.43c-0.81-1.45-1.27-3.09-2.34-3.99c-1.02-0.85-2.68-0.94-4.29-1.43
	c0.39-0.62,0.91-1.45,1.26-2c-1.63-0.65-3.35-1.34-5.37-2.15c2.12-1.29,3.76-2.29,5.41-3.29c-0.07-0.18-0.14-0.35-0.22-0.53
	c-2.11,0.85-4.15,2.41-6.9,0.81c1.98-0.99,3.67-1.83,5.35-2.67c-0.05-0.23-0.09-0.46-0.14-0.68c-1.42,0-2.84,0-4.65,0
	c0.52-0.82,0.77-1.21,0.88-1.39c-1.57-3.32-4.09-1.4-6.54-0.93c0.42-1.45,0.71-2.48,1.06-3.68c-0.63,0-1.14,0-1.65,0
	c0.2-2.62,0.39-5.06,0.58-7.53c-1.25,0.13-3.23,1.29-4.3-1.02c-0.6-1.3-0.84-2.77-1.44-4.07c-0.19-0.43-1-0.81-1.52-0.8
	c-0.86,0.03-1.7,0.39-2.66,0.64c-0.89-2.04-1.98-1.11-3.25-0.1c0.66,0.61,1.23,1.14,1.83,1.7c-1.23,0.89-2.36,1.71-3.93,2.84
	c1.48,0.19,2.31,0.29,3.29,0.41c-0.92,1.46-1.75,2.78-2.85,4.53c1.4-0.07,2.16-0.11,2.83-0.14c-0.73,1.95-1.42,3.83-2.12,5.71
	c0.19,0.1,0.39,0.2,0.58,0.31c0.72-0.41,1.44-0.82,2.81-1.59c-0.71,2.39-1.23,4.16-1.79,6.04c0.89,0,1.79,0,2.7,0
	c0.16,0.16,0.32,0.33,0.47,0.49c-0.88,0.96-1.76,1.93-2.72,2.98c1.32,0.29,2.74,0.6,4.12,0.9c-0.93,1.52-1.76,2.85-2.54,4.13
	c1.9,0.14,3.52,0.26,5.53,0.41c-1.13,1.5-1.85,2.44-2.5,3.3c1.3,0.46,2.96,0.54,3.29,1.24c0.94,2,1.05,4.2-1.32,5.75
	c0.12,0.22,0.23,0.43,0.35,0.65c1.21-0.21,2.42-0.41,3.96-0.68c0.36,1.66-1.22,2.51-2.29,3.74c1.17,0.12,2.13,0.23,3.43,0.36
	c-0.96,1.12-1.65,1.92-2.34,2.73c0.07,0.18,0.13,0.36,0.2,0.54c1.02-0.25,2.04-0.49,3.41-0.82c-0.12,1.09-0.24,2.13-0.37,3.36
	c0.74-0.11,1.48-0.21,2.33-0.34c0.11,0.75,0.22,1.44,0.28,1.89c2.12,0.3,4.08,0.58,6.65,0.95c-2.66,2.19-0.72,2.84,0.31,3.42
	c1.18,0.66,2.57,0.93,3.38,1.2c0.17,1.99,0.31,3.6,0.46,5.3c-1.51-0.31-2.98-0.62-4.45-0.92c0.58-2.03-0.08-2.6-4.45-4.01
	c0.67-1.5,1.34-3.02,2.25-5.07c-2.16,0.47-3.85,0.84-5.68,1.23c0-0.74,0-1.58,0-2.59c-1.1,0.17-2,0.3-3.17,0.48
	c0.5-1.1,0.9-1.98,1.31-2.9c-5-0.76-5-0.76-3.07-3.2c-0.95-0.45-1.9-0.9-2.86-1.36c0.65-0.61,1.29-1.22,1.91-1.81
	c-1.15-0.5-2.51-1.08-4.47-1.92C134.55,484.4,136.25,482.85,134.23,479.72z M306.06,373.15c-0.08,0.57-0.31,1.18-0.2,1.71
	c0.68,3.3,1.28,6.63,2.23,9.86c0.97,3.28,2.27,6.48,5.31,9.16c-0.1-1.13,0-2.48-0.25-2.55c-1.95-0.52-1.58-2.26-2.03-3.52
	C309.38,382.94,307.73,378.04,306.06,373.15c-0.19-2.36-0.39-4.72-0.53-7.09c-0.08-1.39,0.3-3.02-2.24-2.72
	c0.43-1.82,0.69-3.43,1.19-4.95c0.62-1.86-0.26-2.27-1.82-2.19c-0.45,0.02-0.89,0.12-1.86,0.26c1.09-1.45,1.93-2.46,2.66-3.54
	c0.58-0.86,1.05-1.8,1.56-2.71c-0.95-0.16-1.9-0.31-2.85-0.49c-0.11-0.02-0.2-0.18-0.39-0.37c0.64-0.95,1.31-1.9,1.93-2.88
	c0.8-1.26,1.4-2.43-0.32-3.59c-0.4-0.27-0.44-1.57-0.19-2.2c0.31-0.77,1.11-1.34,1.68-1.97c-1.21-3.01-0.94-5.13,0.94-7.66
	c0.26-0.36,0.78-0.78,0.72-1.08c-0.59-2.78,1.49-3.39,3.44-4.1c-2.87-2.78-2.78-3.25,0.72-4.72c0.38-0.16,0.74-0.39,0.9-0.48
	c-0.52-0.73-1-1.39-1.47-2.05c0.63-0.4,1.27-0.78,1.88-1.2c0.27-0.19,0.7-0.48,0.68-0.7c-0.11-1.4,0.87-1.47,1.83-1.71
	c0.75-0.18,1.45-0.55,2.47-0.96c-2.04-1.01-1.64-2.13-0.65-3.17c1.11-1.17,2.29-2.28,3.52-3.33c1-0.85,2.06-1.64,3.18-2.32
	c0.56-0.34,1.31-0.37,1.62-0.45c-0.95-1.65-1.91-3.1-2.65-4.67c-0.73-1.57,0.24-1.81,1.52-1.54c0.97,0.21,1.93,0.48,2.94,0.74
	c-0.48-0.69-0.85-1.22-1.22-1.76c0.65-0.23,1.29-0.65,1.94-0.65c1.08-0.01,2.17,0.26,3.26,0.38c0.81,0.09,1.63,0.13,2.71,0.21
	c-1.31-2.09-1.08-2.69,0.82-2.9c1.31-0.15,2.66-0.01,3.96-0.22c1.55-0.25,3.49-0.3,4.5-1.24c1.51-1.42,2.92-1.28,4.44-0.94
	c1.09-1.8,2.03-3.54,3.16-5.15c0.62-0.88,1.56-1.54,2.36-2.3c0.39,1.17,0.79,2.34,1.19,3.51c0.05,0.13,0.15,0.24,0.32,0.52
	c3.62,0.01,3.85-3.26,5.35-6.13c0.81,1.12,1.35,1.93,1.96,2.68c0.49,0.6,1,1.49,1.61,1.58c0.49,0.07,1.24-0.77,1.68-1.35
	c0.96-1.25,1.8-2.6,3.03-4.4c0.78,1.96,1.32,3.3,1.93,4.81c3.43-2.55,6.47-4.82,9.63-7.17c0.12,0.68,0.23,1.28,0.33,1.89
	c1.52-0.41,2.91-0.78,4.66-1.25c-0.69,1.7-1.13,2.77-1.57,3.85c0.22,0.19,0.45,0.38,0.67,0.57c1.75-1.4,3.5-2.79,5.32-4.24
	c0.19,0.51,0.41,1.08,0.6,1.57c1-0.15,1.92-0.29,3.38-0.51c-1.13,1.23-1.82,1.98-2.85,3.1c2.11-0.57,3.63-0.99,5.16-1.4
	c0.08,0.19,0.15,0.39,0.23,0.58c-0.44,0.58-0.88,1.16-1.44,1.91c4.44,1.05,8.23-0.88,12.25-1.48c-1.49,1.16-2.99,2.32-4.48,3.48
	c0.1,0.19,0.21,0.38,0.31,0.57c1.64-0.36,3.28-0.72,5.3-1.17c-0.79,1.26-1.32,2.11-1.86,2.97c0.1,0.07,0.21,0.14,0.31,0.21
	c1.38-1.05,2.76-2.11,4.4-3.36c0.47,1.62,0.87,2.97,1.28,4.38c1.01-0.37,2.02-0.73,3.12-1.13c0.14,0.45,0.33,0.74,0.28,0.98
	c-0.45,2.14,0.66,2.16,2.27,1.83c1.01-0.21,2.09-0.13,3.26-0.18c-1.1,3.05-1.1,3.02,1.89,2.77c0.84-0.07,1.7,0.1,2.57,0.16
	c-0.15,0.84-0.26,1.44-0.4,2.27c1.24,0.07,2.29,0.13,3.5,0.21c-0.52,0.98-0.95,1.8-1.5,2.82c1.92,0.79,3.72,1.54,5.38,2.23
	c-0.81,3.03,1.98,2.18,3.04,3.12c-0.85,2.31,1.49,1.8,2.45,2.74c-0.97,2.03,0.28,2.06,1.68,1.96c1.71-3.11-2.27-3.38-2.46-5.63
	c0.46-0.37,0.97-0.78,1.53-1.23c-2.31-1.81-4.48-3.5-6.65-5.21c-0.86-0.68-1.9-1.27-2.41-2.16c-0.2-0.35,0.8-1.4,1.23-2.1
	c-2.05-0.95-4.07-1.89-6.13-2.85c0.2-0.45,0.41-0.92,0.64-1.42c-1.53-0.3-2.87-0.56-4.38-0.85c0.35-0.67,0.62-1.18,0.87-1.66
	c-2.1-0.28-4.11-0.54-6.13-0.81c-0.01-0.28-0.02-0.56-0.03-0.84c0.99-0.36,1.99-0.73,3.55-1.3c-3.61-0.85-6.64-1.57-9.85-2.32
	c1.41-1.1,2.59-2.01,4.19-3.26c-1.99-0.22-3.49-0.16-4.83-0.59c-1.88-0.61-3.62-1.64-5.47-2.38c-2.1-0.84-4.27-1.5-6.34-2.4
	c-0.42-0.18-0.53-1.09-0.76-1.6c-0.81-0.33-1.67-0.66-3-1.2c1.3-0.69,2.02-1.08,3.32-1.77c-3.29-0.54-5.96-0.98-8.64-1.42
	c0.01-0.14,0.01-0.28,0.02-0.43c0.81-0.27,1.63-0.53,2.44-0.8c0-0.26,0-0.52,0-0.78c-3.37-0.3-6.73-0.6-10.1-0.9
	c-0.05-0.14-0.09-0.28-0.14-0.42c1.42-0.54,2.84-1.07,4.26-1.61c-0.04-0.19-0.09-0.38-0.13-0.57c-2.94,0-5.88,0-9.08,0
	c0.6-0.74,0.96-1.17,1.41-1.74c-1.25,0-2.19,0-3.37,0c0.63-0.88,1.05-1.48,1.67-2.35c-2.01,0.32-3.59,0.62-5.19,0.83
	c-1.41,0.18-2.47-0.11-1.85-2.06c-1.58-0.09-3.1-0.18-4.9-0.28c1.1-2.19-0.15-2.31-1.56-2.07c-1.51,0.25-3.16,1.27-4.44,0.9
	c-2.35-0.68-4.12-2.75-6.63-3.42c-0.54-0.14-0.82-1.24-1.5-2.36c-2.52,0.23-5.43,0.5-8.92,0.82c1.06-1.01,1.69-1.61,2.78-2.65
	c-2.31,0.62-4,1.08-6.26,1.69c0.93-1.6,1.54-2.66,2.3-3.97c-2.16,0.48-3.94,0.93-5.74,1.25c-0.77,0.14-2.05,0.3-2.31-0.08
	c-1.37-2-3.33-1.33-5.14-1.48c-0.84-0.07-1.66-0.33-2.49-0.51c0.28-0.7,0.56-1.4,0.91-2.28c-3.42,0-6.76,0-10.29,0
	c0.41-0.52,0.71-0.9,1.2-1.52c-2.3,0.61-4.22,1.12-6.64,1.76c0.47-1.11,0.68-1.59,1.08-2.55c-2.17,0.95-3.95,1.73-5.9,2.58
	c-0.07-0.63-0.13-1.19-0.2-1.77c-0.96,0.41-1.84,0.79-3.1,1.33c0.21-1.02,0.32-1.53,0.42-2.02c-2.68-0.24-4.92,3.5-7.93,0.43
	c-1.5,0.5-3.27,1.09-5.27,1.76c0-0.97,0-1.62,0-2.65c-3.16,0.74-6.1,1.42-9.03,2.1c-0.11-0.16-0.21-0.32-0.32-0.48
	c0.75-0.86,1.5-1.72,2.27-2.6c-3.23-0.25-7.06,0.55-10.06,2.27c-1.57,0.9-2.38,0.79-2.29-1.32c-1.07,0.74-2.03,1.4-3.5,2.42
	c0.35-1.29,0.5-1.86,0.71-2.63c-3.79,2.65-3.79,2.65-4.22,0.99c-1.14,0.71-2.24,1.4-3.5,2.18c-0.19-0.62-0.33-1.08-0.48-1.58
	c-4.65,3.05-6.65,3.64-7.53,2.17c-2.48,1.04-4.96,2.08-7.64,3.19c-0.11-0.73-0.19-1.25-0.36-2.34c-2.8,1.96-5.36,3.78-7.94,5.56
	c-0.45,0.31-1,0.49-1.5,0.73c-0.19-0.47-0.38-0.94-0.58-1.42c-0.99,1.27-1.98,2.53-2.96,3.79c-0.2-0.11-0.39-0.22-0.59-0.32
	c0-0.89,0-1.77,0-3.03c-1.9,2.03-3.55,3.79-5.19,5.55c-1.03,1.1-1.88,1.34-2.2-0.79c-1.16,1.21-2.09,2.19-3.22,3.37
	c-0.29-0.83-0.48-1.38-0.75-2.14c-2.35,1.57-4.51,3.02-6.67,4.47c-0.13-0.14-0.26-0.28-0.38-0.42c0.14-0.5,0.28-1,0.41-1.5
	c-0.2-0.13-0.4-0.26-0.59-0.38c-1.37,1.83-2.75,3.66-4.26,5.68c-0.33-0.86-0.56-1.46-0.94-2.44c-0.68,1.74-1.22,3.12-1.99,5.1
	c-0.6-1.42-0.94-2.25-1.15-2.75c-1.72,1.9-3.48,3.84-5.31,5.87c-0.64-0.56-1.03-0.9-1.55-1.35c-1.8,1.73-3.5,3.37-5.53,5.32
	c-0.12-1.28-0.18-1.93-0.24-2.59c-0.18-0.07-0.37-0.13-0.55-0.2c-1.6,2.31-3.2,4.62-4.81,6.93c-0.14-0.13-0.28-0.25-0.42-0.38
	c0-0.76,0-1.52,0-2.96c-0.72,1.23-1.09,1.92-1.51,2.58c-0.43,0.68-0.81,1.82-1.37,1.91c-2.16,0.37-2.46,2.34-3.52,3.63
	c-0.79,0.96-1.46,2.49-2.43,2.72c-2.39,0.57-3.69,2.23-5.16,3.84c-0.2,0.22-0.56,0.31-1.06,0.58c0-0.77,0-1.27,0-1.73
	c-2.41,0.97-1.59,5.12-5.18,4.87c-0.34,0.92-0.58,1.95-1.08,2.82c-1.18,2.06-2.47,4.05-3.73,6.06c-0.45,0.71-0.88,1.82-1.48,1.95
	c-0.59,0.13-1.4-0.77-2.32-1.35c-0.86,1.7-2.07,3.52-2.68,5.52c-0.48,1.57-0.98,2.13-2.63,1.22c-0.25,1-0.44,1.84-0.67,2.68
	c-0.21,0.76-0.37,1.55-0.74,2.24c-0.52,0.98-1.26,1.85-1.81,2.81c-0.72,1.27-1.21,2.69-2.05,3.86c-1.86,2.58-3.91,5.03-3.36,8.54
	c0.02,0.15-0.2,0.34-0.37,0.61c-0.59-0.26-1.13-0.5-1.59-0.71c-0.53,2.68-1.04,5.24-1.55,7.8c-0.22-0.02-0.44-0.03-0.66-0.05
	c-0.34-0.45-0.68-0.91-1.34-1.78c0.43,2.07,0.75,3.63,1.08,5.19c-0.17,0.08-0.33,0.15-0.5,0.23c-0.79-0.62-1.58-1.25-2.37-1.87
	c0.06,1.41,0.57,2.54,0.85,3.73c0.19,0.81,0.23,2.41,0.06,2.45c-2.48,0.56-1.19,2.39-1.08,3.51c0.16,1.63-0.08,2.23-1.59,1.65
	c0,2.06,0.13,4.13-0.06,6.17c-0.08,0.91-0.79,1.76-1.22,2.63c-0.18-0.07-0.35-0.14-0.53-0.21c0.23,0.99,0.46,1.97,0.69,2.96
	c-0.18,0.09-0.36,0.18-0.54,0.28c-0.66-0.56-1.31-1.12-2.4-2.05c0.32,1.89,0.63,3.25,0.76,4.62c0.16,1.73,2.89,3.63-0.27,5.2
	c-0.07,0.03-0.04,0.28-0.03,0.43c0.3,4.67-2.89,9.22-0.5,13.97c0.03,0.06-0.16,0.22-0.35,0.48c-0.62-0.22-1.29-0.46-1.87-0.66
	c-0.51,1.72,2.98,3.43-0.07,4.87c-0.79,2.57,2.94,4.94,0.05,7.55c-0.18,0.16,0.07,0.85,0.18,1.27c0.69,2.57-0.52,5.38,0.94,7.87
	c0.01,0.02-0.2,0.17-0.32,0.27c-0.79-0.37-1.58-0.73-2.44-1.13c1.18,2.08,2.17,3.95,3.28,5.75c0.75,1.22,0.51,1.89-1.06,2.13
	c0.9,2.38,1.74,4.63,2.73,7.26c-0.9-0.25-1.61-0.44-2.22-0.61c-0.64,2.11,2.37,4.69-1.49,6.18c1.11,2.69,2.21,5.24,3.21,7.83
	c0.29,0.75,1.12,1.63-0.48,2.28c-1.15,0.47-2.03,1.61-3.01,2.44c3.73,1.04,2.25,4.52,2.99,7.14c1.96,0.93,3.19-0.19,4.03-1.8
	c1.23-2.34,2.39-4.74,3.42-7.17c2.46-5.83,5.56-11.31,10.29-15.51c6.22-5.53,12.59-10.95,19.32-15.83
	c5.93-4.3,12.09-8.51,19.52-10.02c1.58-0.32,1.79-1.47,2.15-2.7c0.66-2.25,1.21-4.58,2.24-6.65c3.13-6.32,8.49-10.67,13.74-15.1
	c0.75-0.63,1.75-1.44,1.86-2.28c0.36-2.64,1.82-4.45,3.75-6.04c0.84-0.69,2.33-1.32,2.41-2.1c0.32-3.17,2.9-3.54,4.97-4.61
	c1.37-0.7,2.7-1.5,4.1-2.15c2.72-1.24,5.47-2.42,8.22-3.59c1.2-0.51,2.46-0.89,3.65-1.42c1.38-0.62,2.66-1.5,4.09-1.97
	c1.59-0.52,3.28-0.7,5.03-1.05c-0.67-2.36,0.55-3.02,2.41-2.86c1.83,0.16,3.64,0.62,5.47,0.75c0.6,0.04,1.71-0.45,1.77-0.85
	c0.32-1.81,1.19-1.64,2.55-1.16c1.3,0.46,2.71,0.64,4.09,0.83c0.43,0.06,1.21-0.12,1.31-0.39c0.75-2,2.43-1.38,3.8-1.35
	c3.01,0.07,6.02,0.5,9.02,0.42c3.46-0.09,6.87-0.07,10.4-0.8c3.21-0.67,6.95,0.75,10.35,1.64c4.19,1.09,8.26,2.59,12.39,3.92
	c0.52,0.17,1.03,0.35,1.62,0.56c-1.24,2.07-2.39,3.97-3.79,6.29c1.72,0,2.83,0,4.11,0c-3.8,4.46-4.09,5-3.83,7.16
	c1.08-0.31,2.15-0.62,3.58-1.04c-0.43,1.89-0.75,3.38-1.1,4.85c-0.38,1.58-0.52,3,1.88,2.94c0,1.33-0.19,2.47,0.04,3.52
	C304.87,369.95,305.54,371.52,306.06,373.15z M411.28,416.21c-0.11-0.26-0.22-0.53-0.34-0.79c-0.49,0.23-0.98,0.47-1.47,0.7
	c-4.08,1.84-8.01,4.26-12.29,5.37c-7.23,1.87-14.63,3.33-22.05,4.19c-9.56,1.11-18.86-1.13-28.14-3.36
	c-9.45-2.26-17.62-6.57-24.22-13.67c-3.35-3.61-6.4-7.51-9.5-11.33c-0.33-0.41-0.14-1.23-0.21-2.02c-2.52-1.28-5.15-2.61-7.87-3.99
	c0.09-0.38,0.22-0.89,0.42-1.7c-2.35-0.27-4.49-0.51-6.8-0.77c0.45-0.63,0.82-1.16,0.95-1.34c-3.24-0.43-6.5-0.86-9.91-1.31
	c0.07-0.46,0.12-0.84,0.18-1.23c-3.27-0.69-6.92,0.25-9.8-2.16c-2.69,0.67-5.49,1.38-8.77,2.2c0.53-0.88,0.73-1.23,1.27-2.13
	c-3.17,0.26-5.89,0.48-8.69,0.71c0.15-0.76,0.28-1.4,0.4-2.02c-1.74,0.61-3.33,1.17-4.91,1.73c-0.07-0.17-0.14-0.34-0.21-0.51
	c0.4-0.52,0.8-1.04,1.21-1.55c-0.08-0.14-0.17-0.27-0.25-0.41c-2.57,0.98-5.14,1.97-7.79,2.98c-0.16-0.36-0.35-0.8-0.56-1.3
	c-5.16,1.4-10.24,2.77-15.9,4.31c5.02,1.22,9.26,2.47,13.59,3.27c7.07,1.3,13.05,5.07,18.93,8.69c4.07,2.51,7.15,6.65,10.54,10.19
	c4.15,4.34,6.36,9.91,8.89,15.21c1.25,2.62,1.27,5.8,2.02,8.68c0.72,2.76,0.78,5.69,3.69,7.68c2.43,1.66,4.24,4.24,6.33,6.4
	c0.39,0.4,0.87,1.12,1.23,1.07c2.47-0.34,4,1.22,5.77,2.46c0.97,0.68,3.01,1.6,3.19,1.36c1.82-2.4,2.95-0.21,4.29,0.45
	c0.57,0.28,1.11,0.64,1.71,0.82c1.34,0.4,2.77,0.57,4.04,1.11c1.75,0.74,3.37,1.77,5.07,2.62c0.22,0.11,0.6-0.16,0.9-0.18
	c0.65-0.04,1.46-0.28,1.92,0.01c1.29,0.81,2.45,1.84,3.65,2.8c1.24,1,2.11,0.89,2.47-0.79c1.33,0.33,2.43,0.92,3.91,1.04
	c2.05,0.17,3.89,0.98,5.85-0.36c0.27-0.19,0.85,0.05,1.29,0.12c2.82,0.42,5.64,0.89,8.47,1.23c0.76,0.09,1.84,0.05,2.31-0.41
	c1.27-1.22,2.4-0.77,3.54-0.06c1.65,1.03,2.38,0.61,2.26-0.89c2.24-0.72,4.3-1.32,6.32-2.05c0.71-0.26,1.25-0.98,1.96-1.22
	c2.08-0.71,4.22-1.27,6.31-1.93c0.39-0.12,0.76-0.41,1.06-0.7c0.76-0.76,1.38-1.7,2.23-2.31c1.2-0.86,2.71-1.26,2.17-3.36
	c-0.14-0.54,0.74-1.55,1.38-2.04c2.58-1.97,5.21-3.87,7.88-5.7c4.58-3.14,7.66-7.5,10.11-12.35c0.49-0.97,0.85-2.16,0.79-3.23
	c-0.22-3.91-0.27-3.85,3.53-5.44C407.55,418.18,409.39,417.14,411.28,416.21z M417.67,363.72c1.01,0.69,1.5,0.99,1.95,1.33
	c0.46,0.35,1.05,1.14,1.31,1.04c1.65-0.66,1.92,0.76,2.71,1.52c0.59,0.56,1.66,1.27,2.22,1.07c1.4-0.5,2.02,0.06,2.74,1.04
	c0.51,0.69,1.16,1.61,1.88,1.75c1.8,0.36,2.57,1.13,2.63,2.85c0.04,1.3,0.45,2.59,0.69,3.88c0.22-0.04,0.44-0.08,0.67-0.12
	c0.32-0.76,0.64-1.52,0.93-2.23c2.55,4.45,3.65,9.09,2.29,14.19c0.57-0.26,0.78-0.53,1-0.79c0.23-0.27,0.47-0.54,0.6-0.7
	c1.39,9.07-4.77,13.81-10.89,18.6c5.47-3.47,11.19-6.54,14.51-12.38c0.21-0.37,0.59-0.66,0.88-0.99c1.83-2.11,4.35-3.41,5.16-6.7
	c0.54-2.19,2.94-3.91,1.11-6.69c0.44,0.16,0.57,0.3,0.73,0.4c0.57,0.35,1.15,0.69,1.73,1.03c0.01-0.7,0.03-1.39,0.03-2.09
	c0.02-1.22,0.05-2.44,0.03-3.65c-0.01-0.86,0.04-1.76-0.19-2.56c-0.2-0.69-0.75-1.27-1.31-2.16c1.08,0.4,1.77,0.65,2.58,0.95
	c-0.66-3.57-3.55-4.1-5.95-5.34c0.96-0.22,1.92-0.44,3.08-0.71c-1.44-0.94-2.68-1.75-4.07-2.65c1.03-0.51,1.74-0.87,2.7-1.34
	c-1.48-0.38-2.58-0.66-3.68-0.94c-0.06-0.18-0.12-0.35-0.19-0.53c0.4-0.12,0.79-0.24,0.91-0.28c-1.3-1.56-2.41-2.89-3.85-4.61
	c1.13,0.32,1.72,0.49,2.31,0.66c0.14-0.2,0.27-0.41,0.41-0.61c-1.94-1.44-3.87-2.88-6.01-4.46c1.85-0.2,3.35-0.35,4.85-0.51
	c-1.81-0.88-3.88-0.92-5.2-1.94c-0.95-0.73-0.89-2.77-1.31-4.36c-0.81,0.22-2.05,0.56-3.28,0.9c-0.04-0.11-0.09-0.22-0.13-0.32
	c0.63-0.41,1.26-0.81,2.11-1.36c-1.56-0.22-2.81-0.39-4.44-0.62c0.78-0.5,1.3-0.84,2.24-1.44c-1.69-0.31-2.65-0.48-3.99-0.73
	c0.87-0.46,1.32-0.7,2.3-1.21c-2.06-0.38-3.53-0.65-5-0.92c0-0.1,0-0.2,0.01-0.3c0.59-0.12,1.18-0.24,1.78-0.37
	c-2.35-1.23-4.63-2.42-6.98-3.64c0.86-0.24,1.6-0.45,2.35-0.66c-0.01-0.14-0.01-0.28-0.02-0.42c-1.23-0.23-2.47-0.47-3.87-0.73
	c0.68-0.54,1.14-0.9,1.61-1.27c-0.05-0.12-0.1-0.25-0.15-0.37c-2.41,0.3-4.82,0.61-7.22,0.91c-0.03-0.1-0.06-0.19-0.09-0.29
	c1.24-0.65,2.47-1.3,3.71-1.96c-0.08-0.27-0.17-0.53-0.25-0.8c-2.76,0.5-5.52,1.01-8.83,1.61c1.05-0.9,1.67-1.42,2.28-1.95
	c-0.09-0.18-0.17-0.35-0.26-0.53c-4.16,1.43-8.94,1.08-12.3,4.8c0.14-0.64,0.29-1.29,0.43-1.93c-0.16-0.07-0.31-0.15-0.47-0.22
	c-1.33,1.87-2.67,3.74-4.13,5.78c-0.15-0.62-0.22-0.9-0.34-1.41c-0.42,0.5-0.74,0.74-0.87,1.06c-0.89,2.17-1.5,4.49-2.68,6.49
	c-1.46,2.46-1.09,4.88-0.19,7.13c1,2.5,2.8,4.68,3.91,7.15c1.82,4.02,6.04,4.09,9.22,5.7c2.25,1.13,5.35-0.38,7.8,1.51
	c0.54,0.41,1.89-0.23,3.24-0.45c0.64,0.52,1.71,1.4,2.79,2.28c0.11-0.13,0.22-0.25,0.33-0.38C418.15,365.27,418,364.8,417.67,363.72
	z M322.34,357.97c0.09,0.19,0.18,0.37,0.27,0.56c-3.39,2.32-5.75,5.21-7.09,9.26c-1.14,3.43-1.9,6.47-0.88,10.11
	c1.14,4.06,1.89,8.3,2.17,12.51c0.49,7.48,4.69,13.09,9.11,18.4c2.46,2.96,6.22,4.85,9.5,7.08c1.26,0.86,2.65,0.85,3.14-1.11
	c-0.5-0.38-1.07-0.81-1.64-1.24c0.09-0.13,0.19-0.26,0.28-0.39c0.62,0.22,1.24,0.44,1.86,0.67c0.15-0.13,0.3-0.26,0.44-0.39
	c-2.53-1.63-3.57-4.12-4.39-6.73c0.37-0.2,0.74-0.4,1.13-0.61c-0.75-0.98-1.6-1.72-1.94-2.64c-0.54-1.45-1.17-3.09-0.97-4.54
	c0.35-2.6,1.29-5.12,1.99-7.67c0.07-0.24,0.17-0.47,0.32-0.87c0.42,0.93,0.75,1.66,1.35,3c0.45-2.45,0.77-4.21,1.09-5.96
	c0.12,0,0.25,0.01,0.37,0.01c0.23,0.66,0.46,1.32,0.89,2.56c0.73-2.14,1.27-3.75,1.9-5.61c0.52,1.03,0.87,1.73,1.38,2.74
	c0.44-1.31,0.46-2.42,1.02-2.91c3.48-3,5.17-6.89,5.21-11.29c0.04-3.78-0.25-7.69-1.24-11.31c-0.59-2.15-2.48-4.71-4.43-5.52
	c-1.97-0.82-3.42-2.06-5.1-3.12c-0.72-0.45-1.56-1.02-2.33-1.01c-2.61,0.05-5.22,0.33-7.83,0.53c-0.82,0.06-1.63,0.14-2.45,0.21
	c0,0.15,0.01,0.31,0.01,0.46c0.63,0.19,1.25,0.38,2.42,0.74c-3.57,1.71-7.51,1.89-9.88,5.55
	C319.78,358.85,321.06,358.41,322.34,357.97z M388.37,467.27c0.06,0.27,0.13,0.54,0.19,0.81c-3.3,0.85-6.63,1.58-9.87,2.6
	c-2.02,0.63-4.75,0.19-5.57,3.08c-0.05,0.17-0.47,0.31-0.74,0.33c-2.41,0.2-4.82,0.36-7.23,0.55c-2.91,0.23-6.17-1.4-8.59,1.57
	c-0.11,0.14-0.42,0.12-0.63,0.17c-1.79,0.43-3.64,0.7-5.36,1.32c-1.92,0.69-3.74,1.67-5.57,2.58c-0.87,0.43-1.61,1.28-2.52,1.48
	c-6.31,1.4-10.98,4.76-13.5,10.86c-0.24,0.58-0.68,1.11-1.1,1.6c-4.77,5.59-10.05,10.82-14.2,16.83
	c-6.09,8.81-6.97,16.18-1.38,25.47c0.55-0.49,1.09-0.92,1.57-1.4c6.53-6.5,13.61-12.19,22.34-15.55c2.39-0.92,4.58-1.68,7.18-0.32
	c1.43,0.75,3.29,0.81,4.97,0.89c2.25,0.1,4.53-0.26,6.78-0.11c6.63,0.45,13-0.85,19.33-2.54c3.13-0.84,6.18-2.04,9.34-2.71
	c7.49-1.6,15.04-2.99,22.02-6.31c2.95-1.4,5.78-3.05,9.12-4.82c-0.81-0.34-0.88-0.41-0.93-0.39c-0.41,0.16-0.82,0.32-1.21,0.52
	c-8.12,4.07-16.57,7.16-25.51,9c-7.12,1.47-14.08,3.75-21.23,5.04c-5.46,0.98-11.11,1.47-16.64,1.25
	c-6.61-0.26-12.01-4.03-16.6-8.47c-3.2-3.09-5.51-7.1-4.49-11.92c0.54-2.55,1.73-4.95,2.52-7.46c0.87-2.76,2.71-4.53,5.35-5.49
	c2.7-0.99,5.44-1.86,8.15-2.82c0.43-0.15,1.09-0.48,1.13-0.79c0.21-1.85,1.58-2.49,3.02-2.82c5.28-1.24,10.57-2.42,15.88-3.47
	c1.84-0.36,3.86,0.03,5.63-0.49c3.22-0.96,6.3-2.38,9.46-3.54c2.28-0.84,4.57-1.63,6.89-2.34c2.22-0.68,3.35-3.17,5.82-3.43
	c0.25-0.03,0.46-0.39,0.88-0.77c-2.2,0.44-4.09,0.83-6.45,1.31C387.49,466.92,387.93,467.1,388.37,467.27z M347.15,400.64
	c1.69,0.41,3.37,0.95,5.09,1.2c3.48,0.5,7.12,0.37,10.45,1.35c4.55,1.34,9,1.74,13.7,1.37c10.59-0.83,19.16-5.59,25.34-13.91
	c3.03-4.08,6.58-7.23,10.49-10.21c0.47-0.36,1-0.68,1.33-1.14c0.37-0.52,0.53-1.18,0.78-1.78
	C394.39,392.54,371.79,398.86,347.15,400.64z M394.71,373.05c0,0.64-0.01,1.07,0,1.51c0.15,5.98-0.43,6.84-6.11,9.11
	c-1.03,0.41-2.06,0.79-3.11,1.15c-1.95,0.67-3.91,1.32-5.87,1.96c-1.95,0.64-1.7,2.2-1.44,3.65c0.29,1.61,1.52,1.53,2.76,1.23
	c0.43-0.1,0.87-0.16,1.3-0.26c9.15-2.01,16.7-7.52,24.91-11.56c1.07-0.53,1.83-1.66,2.79-2.56
	C404.71,375.82,399.85,374.47,394.71,373.05z M349.78,396.64c2.12,0.23,3.98,0.84,5.7,0.55c6.44-1.07,12.83-2.41,19.23-3.69
	c0.55-0.11,1.42-0.43,1.5-0.79c0.22-1.04,0.25-2.18,0.04-3.22c-0.05-0.26-1.33-0.46-2-0.36c-3.1,0.42-6.18,1.26-9.29,1.37
	c-3.75,0.14-7.35-0.65-9.45-4.39c-0.15-0.27-0.53-0.41-0.83-0.62C353.07,389.14,351.53,392.67,349.78,396.64z M187.49,391.13
	c0.1,0.23,0.21,0.45,0.31,0.68c6.81-1.63,13.62-3.26,20.73-4.96c-1.19-1.3-2.17-2.47-3.28-3.5c-0.33-0.31-1.11-0.47-1.53-0.3
	c-3.43,1.34-6.88,2.63-10.19,4.22C191.4,388.31,189.5,389.83,187.49,391.13z M169.77,461.17c1.4,4.59,4.45,6.09,8.22,6.75
	c4.74,0.83,9.82-2.44,10.6-6.9c0.41-2.35-1.06-4.02-3.33-3.73c-2.1,0.27-4.24,0.39-6.27,0.93
	C175.91,459.03,172.92,460.14,169.77,461.17z M261.71,437.49c-0.04-3.05-1.29-4.05-4.14-2.93c-3.14,1.24-6.18,2.73-9.19,4.26
	c-1.43,0.72-1.98,2.03-0.91,3.47c1.97,2.66,6.4,3.77,9.81,2.56C259.59,444.02,261.75,440.43,261.71,437.49z M200.99,376.74
	c-4.34,3.71-8.42,7.21-12.51,10.71c0.13,0.15,0.26,0.3,0.39,0.45c5-2.14,10-4.28,15.16-6.49
	C203.09,379.97,202.22,378.64,200.99,376.74z M200.87,370.35c-5.46,4.91-10.94,9.55-13.63,16.54c3.65-4.25,7.92-7.71,12.72-10.55
	c0.45-0.27,0.82-0.99,0.87-1.54C200.95,373.43,200.87,372.04,200.87,370.35z M372.36,372.27c2.9-0.18,5.14-1.74,5.42-3.97
	c0.24-1.89-0.74-3.13-2.42-3.71c-1.9-0.66-4.88,0.63-5.54,1.9C370.71,368.52,371.49,370.28,372.36,372.27z M326.01,337.56
	c2-0.72,3.97-1.89,6.02-2.04c2.04-0.14,4.14,0.76,6.43,1.26c-0.86-3.58-3.51-5.15-7.02-4.59
	C328.04,332.74,325.88,334.89,326.01,337.56z M408.71,454.42c0.99,2.52-1.57,2.83-2.93,3.63c-1.65,0.97-3.6,1.42-5.62,2.17
	c0.7,0.11,1.2,0.19,1.69,0.27c-1.33,0.93-2.56,1.8-3.78,2.66c1.09-0.12,1.99-0.55,2.82-1.09c0.94-0.6,1.82-1.85,2.72-1.84
	c2.81,0.04,4.01-1.92,5.54-3.63c0.74-0.83,1.54-1.7,2.5-2.22c2.02-1.1,4.16-1.97,6.39-3.01c-0.45-0.67-0.71-1.05-0.97-1.45
	c3.26-1.36,5.47-3.69,6.42-7.13c-0.63,0.36-1.25,0.85-1.43,1.47c-0.73,2.63-2.62,4-5.01,4.88c-0.72,0.26-1.45,0.49-2.38,0.81
	c0.63,0.55,1.03,0.9,1.89,1.64C413.67,452.63,411.18,453.53,408.71,454.42z M394.99,325.08c-0.13-2-1.68-1.93-2.75-1.98
	c-2.75-0.1-5.55,0.07-7.11,2.91c-0.71,1.29-1.27,2.7,0.4,4.14C388.01,327.37,390.66,324.83,394.99,325.08z M421.08,499.09
	c4.11-1.4,15.2-11,15.05-13.13C431.08,490.37,426.03,494.78,421.08,499.09z"/>
<path d="M212.95,425.56c-0.16-1.5-0.33-2.99-0.51-4.59c5.2-1.36,10.46-2.31,15.41-4.14c5.07-1.87,9.53-0.12,14.19,1.04
	c0.54,0.13,1.01,0.55,1.67,0.92c-1.94,4.25-4.1,8.1-8.41,9.67c0.18,4.21,0.5,8.28,0.49,12.36c-0.01,4.68-5.82,12.46-11.17,14.19
	c-8.62,2.79-16.04,1.28-22.63-4.4c-2.67-2.3-4.57-5.51-6.7-8.4c-0.72-0.97-1.24-1.7-2.65-1.91c-1.62-0.23-3.16-1.13-4.67-1.86
	c-2.42-1.17-4.8-2.43-7.36-3.73c0.57-0.42,1.3-0.94,2.01-1.48c5.74-4.3,12.43-6.56,19.06-8.96c1.79-0.65,3.63-1.19,5.42-1.82
	c2.12-0.75,3.08-0.2,3.74,2.01c0.19,0.63,0.86,1.12,1.31,1.68C212.43,425.95,212.69,425.76,212.95,425.56z M215.32,441.95
	c-2.04-0.1-4.05,1.07-4.46,2.76c-0.38,1.56,0.46,2.54,1.7,3.25c1.75,1,3.33,0.56,4.8-1.15
	C216.69,445.22,216.06,443.73,215.32,441.95z"/>
<path d="M247,417.41c-3.37-0.71-6.79-1.22-10.08-2.17c-5.33-1.54-10.52-0.87-15.67,0.61c-5.94,1.71-11.97,3.26-17.7,5.55
	c-8.9,3.55-18.47,5.93-25.57,13.06c-0.54,0.55-1.28,0.91-2,1.41c-0.15-0.37-0.35-0.64-0.29-0.72c5.66-7.91,11.21-16.14,19.9-20.94
	c4.74-2.61,10.34-3.78,15.65-5.2c3.9-1.04,7.96-1.83,11.98-1.99c3.07-0.12,6.47,0.31,9.2,1.6c5.12,2.41,9.85,5.62,14.75,8.5
	C247.11,417.21,247.05,417.31,247,417.41z"/>
<path d="M188.51,497.92c4.81,0.93,8.7-1.51,12.78-3.3c-1.08,3.41-2.46,6.35-6.22,6.82C192.24,501.79,190.41,499.93,188.51,497.92z"
	/>
<path d="M257.75,470.1c5,1.34,8.5-1.06,11.75-4.23c0.66,2.61-1.2,6.15-3.68,7.17C263.03,474.19,260.15,474.13,257.75,470.1z"/>
<path class="st0" d="M306.08,373.13c-0.54-1.6-1.21-3.18-1.59-4.82c-0.24-1.05-0.04-2.19-0.04-3.52c-2.41,0.06-2.26-1.36-1.88-2.94
	c0.35-1.48,0.68-2.96,1.1-4.85c-1.43,0.41-2.5,0.72-3.58,1.04c-0.27-2.16,0.03-2.7,3.83-7.16c-1.28,0-2.39,0-4.11,0
	c1.4-2.33,2.54-4.22,3.79-6.29c-0.59-0.2-1.1-0.39-1.62-0.56c-4.12-1.33-8.2-2.83-12.39-3.92c-3.4-0.89-7.14-2.3-10.35-1.64
	c-3.53,0.73-6.94,0.71-10.4,0.8c-3,0.08-6.01-0.35-9.02-0.42c-1.36-0.03-3.04-0.65-3.8,1.35c-0.1,0.27-0.88,0.45-1.31,0.39
	c-1.38-0.19-2.79-0.38-4.09-0.83c-1.36-0.48-2.23-0.65-2.55,1.16c-0.07,0.39-1.18,0.89-1.77,0.85c-1.83-0.13-3.64-0.59-5.47-0.75
	c-1.86-0.16-3.07,0.5-2.41,2.86c-1.74,0.35-3.44,0.53-5.03,1.05c-1.42,0.47-2.71,1.35-4.09,1.97c-1.19,0.53-2.45,0.91-3.65,1.42
	c-2.75,1.17-5.5,2.35-8.22,3.59c-1.4,0.64-2.73,1.44-4.1,2.15c-2.08,1.06-4.65,1.44-4.97,4.61c-0.08,0.77-1.57,1.4-2.41,2.1
	c-1.93,1.59-3.38,3.4-3.75,6.04c-0.11,0.83-1.11,1.65-1.86,2.28c-5.25,4.43-10.61,8.79-13.74,15.1c-1.03,2.08-1.58,4.41-2.24,6.65
	c-0.36,1.24-0.57,2.38-2.15,2.7c-7.43,1.52-13.59,5.73-19.52,10.02c-6.73,4.88-13.1,10.3-19.32,15.83
	c-4.73,4.2-7.84,9.68-10.29,15.51c-1.03,2.44-2.19,4.83-3.42,7.17c-0.84,1.61-2.07,2.73-4.03,1.8c-0.74-2.62,0.74-6.1-2.99-7.14
	c0.98-0.83,1.86-1.97,3.01-2.44c1.61-0.65,0.77-1.53,0.48-2.28c-1-2.59-2.1-5.14-3.21-7.83c3.86-1.49,0.85-4.08,1.49-6.18
	c0.62,0.17,1.32,0.36,2.22,0.61c-0.99-2.63-1.83-4.87-2.73-7.26c1.56-0.24,1.81-0.91,1.06-2.13c-1.11-1.8-2.1-3.67-3.28-5.75
	c0.85,0.4,1.65,0.76,2.44,1.13c0.12-0.1,0.34-0.25,0.32-0.27c-1.46-2.49-0.25-5.29-0.94-7.87c-0.11-0.42-0.36-1.11-0.18-1.27
	c2.89-2.61-0.83-4.98-0.05-7.55c3.05-1.44-0.44-3.15,0.07-4.87c0.57,0.2,1.24,0.44,1.87,0.66c0.2-0.26,0.38-0.42,0.35-0.48
	c-2.39-4.75,0.8-9.3,0.5-13.97c-0.01-0.15-0.04-0.4,0.03-0.43c3.16-1.57,0.43-3.47,0.27-5.2c-0.13-1.37-0.44-2.73-0.76-4.62
	c1.09,0.93,1.74,1.49,2.4,2.05c0.18-0.09,0.36-0.18,0.54-0.28c-0.23-0.99-0.46-1.97-0.69-2.96c0.18,0.07,0.35,0.14,0.53,0.21
	c0.43-0.88,1.14-1.72,1.22-2.63c0.19-2.04,0.06-4.11,0.06-6.17c1.51,0.58,1.75-0.02,1.59-1.65c-0.11-1.12-1.41-2.96,1.08-3.51
	c0.17-0.04,0.13-1.64-0.06-2.45c-0.28-1.19-0.79-2.32-0.85-3.73c0.79,0.62,1.58,1.25,2.37,1.87c0.17-0.08,0.33-0.15,0.5-0.23
	c-0.32-1.56-0.65-3.12-1.08-5.19c0.65,0.87,0.99,1.32,1.34,1.78c0.22,0.02,0.44,0.03,0.66,0.05c0.51-2.56,1.02-5.11,1.55-7.8
	c0.46,0.21,1,0.45,1.59,0.71c0.17-0.27,0.39-0.46,0.37-0.61c-0.55-3.51,1.5-5.96,3.36-8.54c0.85-1.17,1.33-2.59,2.05-3.86
	c0.55-0.97,1.29-1.83,1.81-2.81c0.36-0.68,0.52-1.48,0.74-2.24c0.23-0.83,0.42-1.68,0.67-2.68c1.66,0.91,2.15,0.35,2.63-1.22
	c0.62-2,1.83-3.82,2.68-5.52c0.92,0.58,1.73,1.48,2.32,1.35c0.61-0.13,1.03-1.24,1.48-1.95c1.27-2,2.56-4,3.73-6.06
	c0.5-0.87,0.73-1.9,1.08-2.82c3.59,0.24,2.77-3.9,5.18-4.87c0,0.46,0,0.97,0,1.73c0.5-0.26,0.86-0.35,1.06-0.58
	c1.47-1.61,2.77-3.28,5.16-3.84c0.97-0.23,1.65-1.76,2.43-2.72c1.07-1.3,1.36-3.26,3.52-3.63c0.55-0.1,0.94-1.23,1.37-1.91
	c0.42-0.66,0.79-1.35,1.51-2.58c0,1.44,0,2.2,0,2.96c0.14,0.13,0.28,0.25,0.42,0.38c1.6-2.31,3.2-4.62,4.81-6.93
	c0.18,0.07,0.37,0.13,0.55,0.2c0.06,0.65,0.12,1.31,0.24,2.59c2.03-1.95,3.73-3.59,5.53-5.32c0.52,0.45,0.91,0.79,1.55,1.35
	c1.84-2.03,3.59-3.96,5.31-5.87c0.21,0.51,0.56,1.33,1.15,2.75c0.77-1.98,1.31-3.36,1.99-5.1c0.38,0.98,0.61,1.58,0.94,2.44
	c1.51-2.02,2.89-3.85,4.26-5.68c0.2,0.13,0.4,0.26,0.59,0.38c-0.14,0.5-0.28,1-0.41,1.5c0.13,0.14,0.26,0.28,0.38,0.42
	c2.16-1.45,4.33-2.9,6.67-4.47c0.27,0.76,0.46,1.31,0.75,2.14c1.12-1.18,2.06-2.15,3.22-3.37c0.32,2.13,1.17,1.89,2.2,0.79
	c1.64-1.76,3.29-3.52,5.19-5.55c0,1.26,0,2.15,0,3.03c0.2,0.11,0.39,0.22,0.59,0.32c0.98-1.26,1.97-2.52,2.96-3.79
	c0.19,0.48,0.39,0.95,0.58,1.42c0.5-0.24,1.05-0.42,1.5-0.73c2.58-1.78,5.15-3.6,7.94-5.56c0.17,1.09,0.25,1.61,0.36,2.34
	c2.67-1.12,5.16-2.16,7.64-3.19c0.88,1.47,2.88,0.89,7.53-2.17c0.15,0.5,0.29,0.96,0.48,1.58c1.26-0.79,2.35-1.47,3.5-2.18
	c0.43,1.65,0.43,1.65,4.22-0.99c-0.21,0.77-0.36,1.34-0.71,2.63c1.47-1.02,2.43-1.68,3.5-2.42c-0.09,2.11,0.72,2.22,2.29,1.32
	c3-1.72,6.83-2.52,10.06-2.27c-0.77,0.88-1.52,1.74-2.27,2.6c0.11,0.16,0.21,0.32,0.32,0.48c2.93-0.68,5.87-1.37,9.03-2.1
	c0,1.03,0,1.67,0,2.65c2-0.67,3.77-1.26,5.27-1.76c3,3.07,5.25-0.67,7.93-0.43c-0.1,0.48-0.21,1-0.42,2.02
	c1.25-0.54,2.14-0.92,3.1-1.33c0.06,0.58,0.13,1.14,0.2,1.77c1.94-0.85,3.72-1.63,5.9-2.58c-0.41,0.96-0.61,1.44-1.08,2.55
	c2.42-0.64,4.34-1.15,6.64-1.76c-0.49,0.62-0.78,1-1.2,1.52c3.52,0,6.87,0,10.29,0c-0.35,0.88-0.63,1.58-0.91,2.28
	c0.83,0.17,1.65,0.44,2.49,0.51c1.81,0.15,3.77-0.52,5.14,1.48c0.26,0.38,1.54,0.22,2.31,0.08c1.8-0.32,3.58-0.77,5.74-1.25
	c-0.76,1.31-1.38,2.38-2.3,3.97c2.26-0.61,3.96-1.07,6.26-1.69c-1.09,1.04-1.72,1.64-2.78,2.65c3.48-0.32,6.39-0.59,8.92-0.82
	c0.68,1.12,0.96,2.21,1.5,2.36c2.5,0.67,4.28,2.74,6.63,3.42c1.28,0.37,2.93-0.64,4.44-0.9c1.41-0.24,2.66-0.11,1.56,2.07
	c1.8,0.1,3.32,0.19,4.9,0.28c-0.62,1.95,0.44,2.24,1.85,2.06c1.6-0.2,3.18-0.5,5.19-0.83c-0.62,0.87-1.04,1.47-1.67,2.35
	c1.19,0,2.13,0,3.37,0c-0.46,0.56-0.81,1-1.41,1.74c3.2,0,6.14,0,9.08,0c0.04,0.19,0.09,0.38,0.13,0.57
	c-1.42,0.54-2.84,1.07-4.26,1.61c0.05,0.14,0.09,0.28,0.14,0.42c3.37,0.3,6.73,0.6,10.1,0.9c0,0.26,0,0.52,0,0.78
	c-0.81,0.27-1.63,0.53-2.44,0.8c-0.01,0.14-0.01,0.28-0.02,0.43c2.68,0.44,5.35,0.88,8.64,1.42c-1.3,0.69-2.02,1.08-3.32,1.77
	c1.34,0.53,2.19,0.87,3,1.2c0.22,0.51,0.33,1.41,0.76,1.6c2.07,0.9,4.25,1.56,6.34,2.4c1.84,0.74,3.58,1.77,5.47,2.38
	c1.34,0.43,2.84,0.37,4.83,0.59c-1.6,1.24-2.78,2.16-4.19,3.26c3.21,0.76,6.25,1.47,9.85,2.32c-1.57,0.57-2.56,0.94-3.55,1.3
	c0.01,0.28,0.02,0.56,0.03,0.84c2.02,0.27,4.04,0.53,6.13,0.81c-0.25,0.48-0.52,0.99-0.87,1.66c1.52,0.29,2.85,0.55,4.38,0.85
	c-0.23,0.5-0.44,0.97-0.64,1.42c2.06,0.96,4.08,1.89,6.13,2.85c-0.43,0.7-1.43,1.75-1.23,2.1c0.52,0.89,1.56,1.48,2.41,2.16
	c2.16,1.71,4.34,3.41,6.65,5.21c-0.56,0.45-1.07,0.86-1.53,1.23c0.2,2.25,4.17,2.52,2.46,5.63c-1.4,0.1-2.65,0.07-1.68-1.96
	c-0.96-0.94-3.3-0.43-2.45-2.74c-1.05-0.94-3.85-0.09-3.04-3.12c-1.67-0.69-3.46-1.43-5.38-2.23c0.54-1.03,0.98-1.84,1.5-2.82
	c-1.22-0.07-2.27-0.13-3.5-0.21c0.15-0.83,0.26-1.43,0.4-2.27c-0.87-0.06-1.73-0.23-2.57-0.16c-3,0.24-2.99,0.27-1.89-2.77
	c-1.17,0.05-2.24-0.03-3.26,0.18c-1.6,0.33-2.72,0.32-2.27-1.83c0.05-0.24-0.15-0.53-0.28-0.98c-1.1,0.4-2.1,0.76-3.12,1.13
	c-0.41-1.41-0.81-2.76-1.28-4.38c-1.64,1.25-3.02,2.31-4.4,3.36c-0.1-0.07-0.21-0.14-0.31-0.21c0.54-0.86,1.07-1.71,1.86-2.97
	c-2.02,0.45-3.66,0.81-5.3,1.17c-0.1-0.19-0.21-0.38-0.31-0.57c1.49-1.16,2.99-2.32,4.48-3.48c-4.02,0.6-7.81,2.53-12.25,1.48
	c0.57-0.75,1.01-1.33,1.44-1.91c-0.08-0.19-0.15-0.39-0.23-0.58c-1.52,0.41-3.04,0.83-5.16,1.4c1.02-1.11,1.71-1.86,2.85-3.1
	c-1.46,0.22-2.38,0.36-3.38,0.51c-0.19-0.49-0.41-1.06-0.6-1.57c-1.82,1.45-3.57,2.85-5.32,4.24c-0.22-0.19-0.45-0.38-0.67-0.57
	c0.44-1.07,0.88-2.15,1.57-3.85c-1.75,0.47-3.13,0.84-4.66,1.25c-0.11-0.62-0.22-1.22-0.33-1.89c-3.16,2.35-6.2,4.61-9.63,7.17
	c-0.6-1.51-1.14-2.85-1.93-4.81c-1.22,1.8-2.06,3.14-3.03,4.4c-0.45,0.58-1.19,1.42-1.68,1.35c-0.6-0.09-1.12-0.98-1.61-1.58
	c-0.61-0.75-1.15-1.56-1.96-2.68c-1.5,2.88-1.73,6.14-5.35,6.13c-0.17-0.27-0.28-0.38-0.32-0.52c-0.4-1.17-0.79-2.34-1.19-3.51
	c-0.8,0.76-1.74,1.41-2.36,2.3c-1.13,1.61-2.07,3.36-3.16,5.15c-1.52-0.34-2.93-0.48-4.44,0.94c-1.01,0.95-2.94,0.99-4.5,1.24
	c-1.3,0.21-2.65,0.08-3.96,0.22c-1.9,0.21-2.13,0.81-0.82,2.9c-1.09-0.08-1.9-0.12-2.71-0.21c-1.09-0.12-2.17-0.39-3.26-0.38
	c-0.65,0.01-1.29,0.42-1.94,0.65c0.37,0.54,0.74,1.07,1.22,1.76c-1.01-0.26-1.97-0.53-2.94-0.74c-1.28-0.28-2.25-0.03-1.52,1.54
	c0.73,1.57,1.7,3.03,2.65,4.67c-0.32,0.08-1.06,0.11-1.62,0.45c-1.12,0.68-2.18,1.47-3.18,2.32c-1.23,1.05-2.41,2.16-3.52,3.33
	c-0.99,1.04-1.39,2.16,0.65,3.17c-1.02,0.4-1.72,0.77-2.47,0.96c-0.96,0.24-1.94,0.31-1.83,1.71c0.02,0.22-0.41,0.51-0.68,0.7
	c-0.61,0.42-1.25,0.8-1.88,1.2c0.48,0.66,0.95,1.32,1.47,2.05c-0.17,0.09-0.52,0.32-0.9,0.48c-3.5,1.47-3.59,1.93-0.72,4.72
	c-1.96,0.71-4.03,1.31-3.44,4.1c0.06,0.3-0.46,0.72-0.72,1.08c-1.88,2.53-2.15,4.64-0.94,7.66c-0.57,0.63-1.37,1.2-1.68,1.97
	c-0.26,0.64-0.22,1.93,0.19,2.2c1.72,1.16,1.12,2.33,0.32,3.59c-0.62,0.98-1.29,1.93-1.93,2.88c0.19,0.18,0.27,0.34,0.39,0.37
	c0.95,0.18,1.9,0.33,2.85,0.49c-0.52,0.91-0.98,1.85-1.56,2.71c-0.73,1.08-1.56,2.1-2.66,3.54c0.97-0.14,1.42-0.24,1.86-0.26
	c1.56-0.07,2.44,0.33,1.82,2.19c-0.51,1.52-0.76,3.12-1.19,4.95c2.54-0.3,2.16,1.33,2.24,2.72c0.14,2.37,0.34,4.73,0.52,7.1
	L306.08,373.13z M144.47,321.27c0.23,0.25,0.46,0.5,0.68,0.74c0.32-0.22,0.7-0.4,0.95-0.68c1.39-1.54,2.72-3.13,4.14-4.65
	c2.03-2.18,4.55-3.82,5.96-6.69c0.9-1.83,2.52-3.5,4.2-4.72c5.78-4.18,11.73-8.11,17.59-12.18c8.08-5.61,17.4-8.28,26.69-10.77
	c6.85-1.84,13.92-2.97,20.95-3.9c4.8-0.63,9.74-0.71,14.58-0.38c4.88,0.33,9.21,2.33,11.89,6.81c0.97,1.61,1.85,3.28,2.68,4.98
	c2.18,4.46-0.9,8.49-1.16,12.75c-0.03,0.55-0.74,1.07-1.15,1.58c-0.42,0.52-1.06,0.95-1.25,1.53c-1.06,3.15-4.06,3.97-6.43,5.53
	c-3.21,2.12-7.48,2.1-10.33,5.01c-0.28,0.29-0.97,0.2-1.48,0.26c-4.1,0.49-8.2,0.95-12.29,1.47c-0.65,0.08-1.47,0.2-1.86,0.62
	c-1.73,1.85-3.98,1.45-6.13,1.74c-2.24,0.3-4.83,0.44-6.53,1.68c-2.27,1.65-4.74,2.89-7.25,3.42c-4.12,0.87-7.5,2.95-10.93,5.08
	c-0.27,0.17-0.38,0.58-0.6,0.84c-0.45,0.51-0.85,1.26-1.42,1.45c-2.99,1.01-5.02,2.91-6.11,5.96c0.44,0.14,0.8,0.26,0.93,0.3
	c-1.47,2.13-2.93,4.22-4.36,6.33c-0.86,1.26-1.37,2.51-0.05,3.07c-0.79,3.36-1.34,6.49-2.28,9.51c-0.94,3.05-2.71,5.9-1.71,9.85
	c0.37-0.83,0.56-1.13,0.64-1.45c0.78-2.9,1.54-5.79,2.31-8.69c0.13-0.5,0.26-0.99,0.38-1.49c0.49-1.96,0.72-4.02,1.54-5.83
	c0.64-1.43,0.99-2.43-1.11-3.61c2.77-3.21,5.34-6.21,7.92-9.21c-0.27-0.11-0.8-0.34-1.9-0.82c1.38-0.84,2.29-1.38,3.19-1.95
	c1.45-0.92,4.4-0.18,3.8-3.41c-0.02-0.11,0.28-0.33,0.47-0.42c2.61-1.28,5.19-2.64,7.86-3.8c2.18-0.95,4.49-1.6,6.7-2.49
	c2.09-0.83,4.05-2.17,6.21-2.61c4.1-0.83,8.34-0.9,12.29-2.49c0.67-0.27,1.39-0.43,2.1-0.54c2.94-0.45,5.89-0.81,8.81-1.33
	c0.85-0.15,1.64-0.68,2.42-1.1c1.01-0.56,1.96-1.21,2.96-1.78c3.49-2,7.58-2.52,10.83-5.39c2.28-2.01,3.05-4.71,4.91-6.8
	c0.69-0.77,1.25-1.94,1.29-2.95c0.08-1.98,1.17-2.93,2.62-4.01c3.03-2.25,5.86-4.77,8.77-7.18c-0.17-0.21-0.35-0.43-0.52-0.64
	c-3.15,2.54-6.31,5.09-9.86,7.96c-0.11-1.58,0.05-2.48-0.26-3.16c-0.94-2.07,0.35-2.62,1.85-3.4c2.47-1.29,4.95-2.65,7.15-4.34
	c2.33-1.79,4.33-4,6.48-6.02c0.14,0.05,0.28,0.11,0.43,0.16c-1.55,2.8-3.1,5.6-4.64,8.39c4.15-2.81,8.56-13.02,5.01-16.79
	c-3.7,1.95-7.21,4.14-10.99,5.69c-4.13,1.69-8.45,3.33-13.05,2.53c-2.67-0.46-5.19-1.77-7.86-2.21c-6.51-1.07-13.01-0.9-19.39,1
	c-0.62,0.19-1.3,0.19-1.96,0.25c-1.75,0.16-3.55,0.1-5.23,0.51c-4.84,1.19-9.61,2.7-14.46,3.84c-8.22,1.93-15.78,5.43-22.68,10.13
	c-4.55,3.1-8.91,6.47-13.75,9.17c-3.97,2.21-7.12,5.35-9.43,9.4c-1.15,2-3.01,3.6-4.63,5.3
	C147.94,317.95,146.18,319.59,144.47,321.27z"/>
<path class="st0" d="M411.28,416.21c-1.88,0.93-3.73,1.97-5.66,2.78c-3.8,1.59-3.75,1.53-3.53,5.44c0.06,1.06-0.3,2.26-0.79,3.23
	c-2.45,4.85-5.53,9.21-10.11,12.35c-2.67,1.83-5.31,3.73-7.88,5.7c-0.64,0.49-1.52,1.5-1.38,2.04c0.54,2.09-0.97,2.5-2.17,3.36
	c-0.86,0.61-1.47,1.55-2.23,2.31c-0.3,0.29-0.67,0.58-1.06,0.7c-2.1,0.66-4.23,1.22-6.31,1.93c-0.71,0.24-1.25,0.96-1.96,1.22
	c-2.02,0.73-4.08,1.33-6.32,2.05c0.13,1.5-0.61,1.92-2.26,0.89c-1.14-0.71-2.27-1.16-3.54,0.06c-0.47,0.46-1.55,0.5-2.31,0.41
	c-2.83-0.34-5.65-0.81-8.47-1.23c-0.43-0.06-1.01-0.31-1.29-0.12c-1.96,1.34-3.8,0.52-5.85,0.36c-1.48-0.12-2.58-0.7-3.91-1.04
	c-0.36,1.67-1.24,1.78-2.47,0.79c-1.2-0.96-2.35-1.99-3.65-2.8c-0.46-0.29-1.27-0.05-1.92-0.01c-0.31,0.02-0.69,0.28-0.9,0.18
	c-1.7-0.85-3.33-1.87-5.07-2.62c-1.27-0.54-2.7-0.71-4.04-1.11c-0.6-0.18-1.14-0.54-1.71-0.82c-1.34-0.65-2.47-2.85-4.29-0.45
	c-0.18,0.24-2.22-0.68-3.19-1.36c-1.77-1.24-3.3-2.8-5.77-2.46c-0.35,0.05-0.84-0.67-1.23-1.07c-2.09-2.16-3.9-4.73-6.33-6.4
	c-2.91-1.99-2.97-4.92-3.69-7.68c-0.75-2.88-0.77-6.06-2.02-8.68c-2.52-5.29-4.73-10.87-8.89-15.21
	c-3.39-3.54-6.48-7.68-10.54-10.19c-5.87-3.62-11.86-7.39-18.93-8.69c-4.33-0.8-8.57-2.04-13.59-3.27
	c5.66-1.53,10.74-2.91,15.9-4.31c0.22,0.5,0.4,0.94,0.56,1.3c2.65-1.01,5.22-2,7.79-2.98c0.08,0.14,0.17,0.27,0.25,0.41
	c-0.4,0.52-0.8,1.04-1.21,1.55c0.07,0.17,0.14,0.34,0.21,0.51c1.58-0.56,3.17-1.12,4.91-1.73c-0.12,0.62-0.25,1.26-0.4,2.02
	c2.8-0.23,5.52-0.45,8.69-0.71c-0.54,0.91-0.75,1.25-1.27,2.13c3.28-0.82,6.08-1.53,8.77-2.2c2.88,2.41,6.53,1.47,9.8,2.16
	c-0.06,0.4-0.11,0.78-0.18,1.23c3.4,0.45,6.67,0.88,9.91,1.31c-0.13,0.18-0.5,0.7-0.95,1.34c2.31,0.26,4.45,0.5,6.8,0.77
	c-0.2,0.8-0.33,1.31-0.42,1.7c2.73,1.38,5.35,2.71,7.87,3.99c0.07,0.79-0.12,1.62,0.21,2.02c3.11,3.83,6.15,7.72,9.5,11.33
	c6.59,7.11,14.76,11.41,24.22,13.67c9.28,2.22,18.58,4.47,28.14,3.36c7.42-0.86,14.82-2.32,22.05-4.19
	c4.27-1.11,8.2-3.53,12.29-5.37c0.5-0.22,0.98-0.46,1.47-0.7C411.06,415.68,411.17,415.95,411.28,416.21z M384.34,432.01
	c5.06-2.7,10.07-5.34,15.01-8.09c0.55-0.31,0.73-1.27,1.29-2.31c-6.67,1.7-12.66,3.23-18.6,4.75
	C382.81,428.23,383.5,429.92,384.34,432.01z M384.37,437.7c5.12-1.53,14.61-9.92,14.14-12.54c-0.74,0.41-1.43,0.81-2.13,1.19
	c-3.24,1.73-6.38,3.69-9.75,5.1c-2.26,0.94-2.81,2.24-2.42,4.38C384.31,436.4,384.31,436.99,384.37,437.7z M400.22,427.4
	c-5.24,4-10.55,7.92-15.67,12.08c-1,0.81-1.28,2.5-1.89,3.78c0.19,0.1,0.39,0.19,0.58,0.29
	C389.91,439.18,396.63,434.87,400.22,427.4z"/>
<path class="st0" d="M417.67,363.72c0.34,1.09,0.48,1.55,0.62,2.01c-0.11,0.13-0.22,0.25-0.33,0.38c-1.07-0.88-2.15-1.76-2.79-2.28
	c-1.35,0.22-2.7,0.87-3.24,0.45c-2.45-1.88-5.55-0.37-7.8-1.51c-3.18-1.6-7.4-1.68-9.22-5.7c-1.12-2.47-2.91-4.65-3.91-7.15
	c-0.9-2.26-1.27-4.68,0.19-7.13c1.18-1.99,1.79-4.32,2.68-6.49c0.13-0.32,0.45-0.56,0.87-1.06c0.12,0.5,0.19,0.79,0.34,1.41
	c1.46-2.04,2.79-3.91,4.13-5.78c0.16,0.07,0.31,0.15,0.47,0.22c-0.14,0.64-0.29,1.29-0.43,1.93c3.36-3.72,8.14-3.37,12.3-4.8
	c0.09,0.18,0.17,0.35,0.26,0.53c-0.61,0.52-1.23,1.05-2.28,1.95c3.31-0.6,6.07-1.11,8.83-1.61c0.08,0.27,0.17,0.53,0.25,0.8
	c-1.24,0.65-2.47,1.3-3.71,1.96c0.03,0.1,0.06,0.19,0.09,0.29c2.41-0.3,4.82-0.61,7.22-0.91c0.05,0.12,0.1,0.25,0.15,0.37
	c-0.46,0.36-0.93,0.73-1.61,1.27c1.4,0.26,2.63,0.5,3.87,0.73c0.01,0.14,0.01,0.28,0.02,0.42c-0.74,0.21-1.48,0.42-2.35,0.66
	c2.35,1.23,4.63,2.42,6.98,3.64c-0.6,0.12-1.19,0.25-1.78,0.37c0,0.1,0,0.2-0.01,0.3c1.47,0.27,2.94,0.54,5,0.92
	c-0.98,0.52-1.43,0.75-2.3,1.21c1.34,0.24,2.3,0.42,3.99,0.73c-0.94,0.61-1.46,0.94-2.24,1.44c1.62,0.23,2.88,0.4,4.44,0.62
	c-0.85,0.54-1.48,0.95-2.11,1.36c0.04,0.11,0.09,0.22,0.13,0.32c1.23-0.34,2.47-0.68,3.28-0.9c0.42,1.58,0.36,3.62,1.31,4.36
	c1.32,1.02,3.4,1.06,5.2,1.94c-1.5,0.16-3,0.32-4.85,0.51c2.13,1.59,4.07,3.02,6.01,4.46c-0.14,0.2-0.27,0.41-0.41,0.61
	c-0.59-0.17-1.18-0.34-2.31-0.66c1.44,1.73,2.55,3.05,3.85,4.61c-0.12,0.04-0.52,0.16-0.91,0.28c0.06,0.18,0.12,0.35,0.19,0.53
	c1.1,0.28,2.2,0.56,3.68,0.94c-0.95,0.47-1.67,0.83-2.7,1.34c1.39,0.91,2.63,1.71,4.07,2.65c-1.16,0.27-2.12,0.49-3.08,0.71
	c2.4,1.23,5.29,1.77,5.95,5.34c-0.81-0.3-1.5-0.55-2.58-0.95c0.56,0.89,1.12,1.47,1.31,2.16c0.23,0.81,0.18,1.7,0.19,2.56
	c0.02,1.22-0.02,2.44-0.03,3.65c-0.01,0.7-0.02,1.39-0.03,2.09c-0.58-0.34-1.16-0.68-1.73-1.03c-0.16-0.1-0.29-0.25-0.73-0.4
	c1.83,2.78-0.57,4.51-1.11,6.69c-0.81,3.29-3.33,4.59-5.16,6.7c-0.29,0.33-0.67,0.61-0.88,0.99c-3.32,5.83-9.04,8.9-14.51,12.38
	c6.12-4.79,12.28-9.53,10.89-18.6c-0.14,0.16-0.37,0.43-0.6,0.7c-0.22,0.26-0.43,0.52-1,0.79c1.36-5.1,0.26-9.74-2.29-14.19
	c-0.3,0.71-0.62,1.47-0.93,2.23c-0.22,0.04-0.44,0.08-0.67,0.12c-0.24-1.29-0.65-2.58-0.69-3.88c-0.06-1.72-0.83-2.49-2.63-2.85
	c-0.72-0.14-1.37-1.06-1.88-1.75c-0.72-0.98-1.34-1.54-2.74-1.04c-0.55,0.2-1.63-0.51-2.22-1.07c-0.79-0.76-1.06-2.18-2.71-1.52
	c-0.26,0.1-0.85-0.69-1.31-1.04C419.17,364.71,418.68,364.4,417.67,363.72z M408.2,345.61c-4.21,0.13-8.88,4.56-9.23,8.75
	c-0.24,2.88,1.36,4.25,4.05,3.47c1.41-0.41,2.8-0.95,4.24-1.2c3.11-0.56,6.25-0.96,9.37-1.46c1.18-0.19,2.54-0.33,2.04-2.1
	C417.77,349.85,411.61,345.5,408.2,345.61z"/>
<path class="st0" d="M322.34,357.97c-1.28,0.44-2.56,0.88-4.31,1.48c2.38-3.67,6.31-3.85,9.88-5.55c-1.16-0.35-1.79-0.55-2.42-0.74
	c0-0.15-0.01-0.31-0.01-0.46c0.82-0.07,1.63-0.15,2.45-0.21c2.61-0.2,5.22-0.49,7.83-0.53c0.77-0.01,1.62,0.56,2.33,1.01
	c1.68,1.06,3.13,2.3,5.1,3.12c1.95,0.81,3.84,3.36,4.43,5.52c0.99,3.62,1.28,7.53,1.24,11.31c-0.04,4.4-1.74,8.29-5.21,11.29
	c-0.56,0.49-0.59,1.6-1.02,2.91c-0.51-1.02-0.86-1.71-1.38-2.74c-0.63,1.86-1.18,3.47-1.9,5.61c-0.43-1.24-0.66-1.9-0.89-2.56
	c-0.12,0-0.25-0.01-0.37-0.01c-0.32,1.75-0.64,3.51-1.09,5.96c-0.6-1.34-0.93-2.07-1.35-3c-0.15,0.4-0.26,0.63-0.32,0.87
	c-0.7,2.55-1.64,5.07-1.99,7.67c-0.2,1.45,0.43,3.09,0.97,4.54c0.34,0.92,1.19,1.66,1.94,2.64c-0.38,0.21-0.75,0.41-1.13,0.61
	c0.82,2.62,1.86,5.1,4.39,6.73c-0.15,0.13-0.3,0.26-0.44,0.39c-0.62-0.22-1.24-0.44-1.86-0.67c-0.09,0.13-0.19,0.26-0.28,0.39
	c0.57,0.43,1.14,0.86,1.64,1.24c-0.49,1.95-1.87,1.96-3.14,1.11c-3.28-2.23-7.04-4.12-9.5-7.08c-4.41-5.31-8.61-10.93-9.11-18.4
	c-0.28-4.21-1.03-8.45-2.17-12.51c-1.02-3.64-0.26-6.68,0.88-10.11c1.34-4.04,3.7-6.93,7.09-9.26
	C322.52,358.34,322.43,358.16,322.34,357.97z M327.21,377.57c0.11,0.77,0.17,1.55,0.33,2.31c0.27,1.29,1.15,1.41,2.18,0.99
	c4-1.63,7.99-3.29,12-4.92c1.36-0.56,1.71-1.52,1.23-2.84c-1.05-2.88-6.01-5.34-8.97-4.52
	C330.22,369.62,327.72,372.29,327.21,377.57z"/>
<path class="st0" d="M388.37,467.27c-0.44-0.17-0.89-0.35-1.78-0.7c2.36-0.48,4.26-0.86,6.45-1.31c-0.42,0.38-0.63,0.74-0.88,0.77
	c-2.47,0.26-3.6,2.75-5.82,3.43c-2.32,0.71-4.62,1.51-6.89,2.34c-3.16,1.16-6.24,2.58-9.46,3.54c-1.77,0.53-3.79,0.13-5.63,0.49
	c-5.32,1.05-10.61,2.24-15.88,3.47c-1.43,0.34-2.81,0.98-3.02,2.82c-0.04,0.31-0.7,0.64-1.13,0.79c-2.71,0.96-5.45,1.83-8.15,2.82
	c-2.64,0.96-4.48,2.73-5.35,5.49c-0.79,2.5-1.98,4.91-2.52,7.46c-1.01,4.82,1.3,8.83,4.49,11.92c4.59,4.44,9.99,8.21,16.6,8.47
	c5.53,0.22,11.19-0.27,16.64-1.25c7.15-1.28,14.11-3.57,21.23-5.04c8.94-1.84,17.38-4.93,25.51-9c0.39-0.2,0.81-0.35,1.21-0.52
	c0.05-0.02,0.12,0.05,0.93,0.39c-3.33,1.77-6.17,3.42-9.12,4.82c-6.98,3.32-14.53,4.7-22.02,6.31c-3.16,0.68-6.21,1.88-9.34,2.71
	c-6.33,1.69-12.7,2.99-19.33,2.54c-2.25-0.15-4.52,0.21-6.78,0.11c-1.68-0.08-3.54-0.14-4.97-0.89c-2.59-1.36-4.79-0.6-7.18,0.32
	c-8.73,3.36-15.81,9.05-22.34,15.55c-0.48,0.48-1.02,0.91-1.57,1.4c-5.59-9.29-4.71-16.66,1.38-25.47
	c4.15-6.01,9.44-11.24,14.2-16.83c0.42-0.49,0.86-1.01,1.1-1.6c2.52-6.1,7.19-9.45,13.5-10.86c0.9-0.2,1.65-1.04,2.52-1.48
	c1.83-0.91,3.65-1.89,5.57-2.58c1.72-0.62,3.57-0.9,5.36-1.32c0.22-0.05,0.52-0.03,0.63-0.17c2.42-2.97,5.68-1.34,8.59-1.57
	c2.41-0.19,4.82-0.35,7.23-0.55c0.26-0.02,0.69-0.16,0.74-0.33c0.82-2.9,3.56-2.45,5.57-3.08c3.24-1.02,6.58-1.75,9.87-2.6
	C388.5,467.81,388.44,467.54,388.37,467.27z M327.17,507.26c-0.39,0.44-0.72,0.97-1.19,1.31c-6.77,4.89-11.2,11.43-13.54,19.4
	c-0.38,1.3-0.51,2.68-0.75,4.02c0.25,0.09,0.49,0.19,0.74,0.28c4.23-8.9,11.38-15.04,19.2-20.35c-0.99-1.55-1.73-2.93-2.68-4.12
	c-0.32-0.39-1.2-0.33-1.83-0.48c0.24-0.58,0.76-1.2,0.69-1.74c-0.33-2.49-0.83-4.96-1.31-7.71c-0.62,0.45-1.43,0.82-1.93,1.43
	c-3.48,4.26-7.1,8.43-10.26,12.92c-2.74,3.89-4.15,8.42-4.28,13.25c-0.02,0.78,0.32,1.57,0.49,2.35c0.21,0.01,0.42,0.02,0.64,0.04
	c0.28-0.63,0.6-1.23,0.82-1.88c1.53-4.43,3.65-8.6,6.92-11.94C321.36,511.49,324.39,509.49,327.17,507.26z M313.26,532.63
	c0.27,0.2,0.54,0.39,0.81,0.59c6.98-7.47,15.21-13,25.47-16.28c-2.32-1.42-4.17-2.43-5.89-3.64c-1.09-0.76-1.97-0.81-2.93,0.07
	c-4.31,3.97-8.8,7.77-12.86,11.99C315.91,527.38,314.77,530.18,313.26,532.63z"/>
<path class="st0" d="M347.15,400.64c24.64-1.77,47.24-8.1,67.18-23.12c-0.25,0.6-0.42,1.26-0.78,1.78
	c-0.33,0.46-0.86,0.79-1.33,1.14c-3.91,2.98-7.46,6.12-10.49,10.21c-6.18,8.32-14.74,13.08-25.34,13.91
	c-4.7,0.37-9.15-0.03-13.7-1.37c-3.33-0.98-6.97-0.86-10.45-1.35C350.52,401.59,348.85,401.05,347.15,400.64z"/>
<path class="st0" d="M394.71,373.05c5.14,1.42,10.01,2.77,15.24,4.22c-0.96,0.9-1.72,2.04-2.79,2.56
	c-8.21,4.05-15.75,9.55-24.91,11.56c-0.43,0.09-0.87,0.16-1.3,0.26c-1.24,0.3-2.47,0.39-2.76-1.23c-0.26-1.45-0.51-3.01,1.44-3.65
	c1.96-0.64,3.92-1.29,5.87-1.96c1.04-0.36,2.08-0.74,3.11-1.15c5.68-2.27,6.25-3.13,6.11-9.11
	C394.7,374.12,394.71,373.68,394.71,373.05z"/>
<path class="st0" d="M349.78,396.64c1.75-3.98,3.29-7.5,4.89-11.15c0.3,0.22,0.68,0.36,0.83,0.62c2.1,3.74,5.7,4.52,9.45,4.39
	c3.11-0.11,6.19-0.95,9.29-1.37c0.67-0.09,1.95,0.11,2,0.36c0.21,1.04,0.18,2.18-0.04,3.22c-0.08,0.36-0.95,0.68-1.5,0.79
	c-6.4,1.28-12.79,2.63-19.23,3.69C353.76,397.48,351.9,396.87,349.78,396.64z"/>
<path class="st0" d="M187.49,391.13c2.01-1.3,3.91-2.83,6.05-3.86c3.31-1.6,6.76-2.88,10.19-4.22c0.42-0.16,1.19-0.01,1.53,0.3
	c1.11,1.03,2.08,2.2,3.28,3.5c-7.11,1.7-13.92,3.33-20.73,4.96C187.7,391.59,187.59,391.36,187.49,391.13z"/>
<path class="st0" d="M169.77,461.17c3.15-1.03,6.14-2.15,9.21-2.96c2.03-0.54,4.18-0.66,6.27-0.93c2.27-0.29,3.74,1.38,3.33,3.73
	c-0.78,4.47-5.86,7.74-10.6,6.9C174.21,467.26,171.17,465.76,169.77,461.17z M171.29,461.63c1.93,3.94,6.52,4.84,9.57,4.37
	c3.13-0.48,5.45-2.54,5.67-5.06c0.06-0.65-0.74-1.97-1.14-1.97C180.61,459.01,175.94,459.84,171.29,461.63z"/>
<path class="st0" d="M261.71,437.49c0.04,2.94-2.12,6.53-4.43,7.36c-3.41,1.22-7.83,0.11-9.81-2.56c-1.07-1.44-0.51-2.75,0.91-3.47
	c3.01-1.52,6.05-3.02,9.19-4.26C260.42,433.43,261.66,434.43,261.71,437.49z M248.82,439.56c1.17,1.39,1.9,2.6,2.95,3.41
	c1.51,1.16,4.68,0.7,6.39-0.65c1.33-1.05,2.59-4.62,1.95-6.02c-0.18-0.4-1.24-0.78-1.69-0.61
	C255.33,436.83,252.31,438.13,248.82,439.56z"/>
<path class="st0" d="M200.99,376.74c1.23,1.89,2.1,3.23,3.04,4.67c-5.16,2.21-10.16,4.35-15.16,6.49c-0.13-0.15-0.26-0.3-0.39-0.45
	C192.57,383.95,196.66,380.45,200.99,376.74z"/>
<path class="st0" d="M200.87,370.35c0,1.68,0.08,3.08-0.04,4.45c-0.05,0.55-0.42,1.27-0.87,1.54c-4.8,2.84-9.07,6.3-12.72,10.55
	C189.93,379.9,195.41,375.26,200.87,370.35z"/>
<path class="st0" d="M372.36,372.27c-0.88-1.99-1.65-3.74-2.55-5.78c0.66-1.27,3.64-2.56,5.54-1.9c1.69,0.58,2.66,1.83,2.42,3.71
	C377.5,370.52,375.27,372.09,372.36,372.27z"/>
<path class="st0" d="M326.01,337.56c-0.13-2.66,2.03-4.82,5.43-5.37c3.5-0.57,6.16,1.01,7.02,4.59c-2.28-0.49-4.39-1.4-6.43-1.26
	C329.98,335.66,328,336.84,326.01,337.56z"/>
<path class="st0" d="M408.71,454.42c2.47-0.89,4.96-1.79,7.85-2.83c-0.86-0.75-1.26-1.1-1.89-1.64c0.93-0.32,1.66-0.55,2.38-0.81
	c2.39-0.88,4.28-2.24,5.01-4.88c0.17-0.62,0.8-1.12,1.43-1.47c-0.95,3.44-3.16,5.76-6.42,7.13c0.27,0.4,0.52,0.78,0.97,1.45
	c-2.24,1.03-4.37,1.91-6.39,3.01c-0.96,0.52-1.76,1.39-2.5,2.22c-1.53,1.71-2.73,3.67-5.54,3.63c-0.89-0.01-1.78,1.24-2.72,1.84
	c-0.84,0.54-1.74,0.97-2.82,1.09c1.23-0.86,2.45-1.72,3.78-2.66c-0.5-0.08-1-0.16-1.69-0.27c2.03-0.75,3.98-1.2,5.62-2.17
	C407.14,457.25,409.7,456.94,408.71,454.42z"/>
<path class="st0" d="M394.99,325.08c-4.33-0.25-6.98,2.29-9.46,5.07c-1.67-1.44-1.1-2.85-0.4-4.14c1.56-2.84,4.35-3.01,7.11-2.91
	C393.31,323.14,394.85,323.08,394.99,325.08z"/>
<path class="st0" d="M306.05,373.16c1.68,4.89,3.33,9.78,5.06,14.65c0.45,1.26,0.08,3,2.03,3.52c0.25,0.07,0.16,1.42,0.25,2.55
	c-3.03-2.69-4.34-5.88-5.31-9.16c-0.95-3.23-1.54-6.56-2.23-9.86c-0.11-0.53,0.13-1.14,0.21-1.72
	C306.08,373.13,306.05,373.16,306.05,373.16z"/>
<path class="st0" d="M421.08,499.09c4.95-4.32,9.99-8.72,15.05-13.13C436.29,488.09,425.19,497.7,421.08,499.09z"/>
<path class="st0" d="M215.32,441.95c0.74,1.78,1.37,3.27,2.04,4.86c-1.46,1.71-3.04,2.15-4.8,1.15c-1.24-0.71-2.08-1.68-1.7-3.25
	C211.26,443.02,213.28,441.86,215.32,441.95z"/>
<path d="M144.47,321.27c1.71-1.68,3.47-3.32,5.13-5.06c1.62-1.7,3.49-3.3,4.63-5.3c2.32-4.04,5.47-7.18,9.43-9.4
	c4.84-2.7,9.2-6.06,13.75-9.17c6.9-4.7,14.46-8.2,22.68-10.13c4.85-1.14,9.62-2.65,14.46-3.84c1.68-0.41,3.48-0.35,5.23-0.51
	c0.66-0.06,1.34-0.06,1.96-0.25c6.39-1.91,12.88-2.08,19.39-1c2.67,0.44,5.19,1.75,7.86,2.21c4.6,0.8,8.92-0.84,13.05-2.53
	c3.78-1.55,7.29-3.74,10.99-5.69c3.55,3.76-0.86,13.98-5.01,16.79c1.54-2.79,3.09-5.59,4.64-8.39c-0.14-0.05-0.28-0.11-0.43-0.16
	c-2.14,2.03-4.15,4.24-6.48,6.02c-2.2,1.69-4.69,3.05-7.15,4.34c-1.5,0.79-2.79,1.33-1.85,3.4c0.31,0.68,0.15,1.58,0.26,3.16
	c3.55-2.87,6.71-5.41,9.86-7.96c0.17,0.21,0.35,0.43,0.52,0.64c-2.91,2.41-5.74,4.93-8.77,7.18c-1.45,1.08-2.54,2.03-2.62,4.01
	c-0.04,1.01-0.6,2.17-1.29,2.95c-1.86,2.09-2.62,4.79-4.91,6.8c-3.26,2.87-7.35,3.39-10.83,5.39c-1,0.57-1.95,1.23-2.96,1.78
	c-0.78,0.43-1.57,0.95-2.42,1.1c-2.92,0.52-5.87,0.88-8.81,1.33c-0.71,0.11-1.44,0.27-2.1,0.54c-3.95,1.59-8.2,1.66-12.29,2.49
	c-2.16,0.44-4.12,1.78-6.21,2.61c-2.21,0.88-4.52,1.54-6.7,2.49c-2.67,1.16-5.25,2.52-7.86,3.8c-0.19,0.09-0.49,0.31-0.47,0.42
	c0.6,3.23-2.35,2.49-3.8,3.41c-0.9,0.57-1.81,1.11-3.19,1.95c1.09,0.47,1.63,0.7,1.9,0.82c-2.58,3-5.16,6-7.92,9.21
	c2.09,1.19,1.75,2.19,1.11,3.61c-0.81,1.81-1.05,3.88-1.54,5.83c-0.12,0.5-0.25,1-0.38,1.49c-0.77,2.9-1.53,5.8-2.31,8.69
	c-0.09,0.32-0.27,0.62-0.64,1.45c-1-3.96,0.77-6.81,1.71-9.85c0.94-3.02,1.49-6.16,2.28-9.51c-1.32-0.56-0.81-1.81,0.05-3.07
	c1.43-2.11,2.89-4.2,4.36-6.33c-0.12-0.04-0.48-0.15-0.93-0.3c1.08-3.05,3.11-4.96,6.11-5.96c0.57-0.19,0.97-0.94,1.42-1.45
	c0.23-0.26,0.33-0.67,0.6-0.84c3.43-2.13,6.81-4.21,10.93-5.08c2.51-0.53,4.98-1.77,7.25-3.42c1.7-1.23,4.29-1.37,6.53-1.68
	c2.15-0.29,4.4,0.1,6.13-1.74c0.4-0.42,1.22-0.54,1.86-0.62c4.09-0.52,8.2-0.98,12.29-1.47c0.5-0.06,1.19,0.03,1.48-0.26
	c2.86-2.92,7.12-2.89,10.33-5.01c2.37-1.57,5.38-2.39,6.43-5.53c0.2-0.58,0.84-1.01,1.25-1.53c0.41-0.52,1.12-1.03,1.15-1.58
	c0.26-4.27,3.34-8.29,1.16-12.75c-0.83-1.69-1.71-3.36-2.68-4.98c-2.68-4.47-7.01-6.48-11.89-6.81c-4.84-0.32-9.78-0.25-14.58,0.38
	c-7.04,0.92-14.11,2.06-20.95,3.9c-9.29,2.49-18.61,5.16-26.69,10.77c-5.86,4.07-11.82,7.99-17.59,12.18
	c-1.68,1.22-3.3,2.89-4.2,4.72c-1.4,2.86-3.93,4.5-5.96,6.69c-1.41,1.52-2.74,3.11-4.14,4.65c-0.26,0.28-0.63,0.46-0.95,0.68
	C144.92,321.77,144.69,321.52,144.47,321.27z M270.14,274.3c-6.05,3.31-12.44,5.5-19.65,6.42c1.2,1.6,2.14,2.86,3.2,4.28
	C259.66,282.15,265.91,279.87,270.14,274.3z M272.02,275.01c-4.57,5.87-11.5,8.14-17.99,11.48c0.78,0.92,1.38,1.63,2.02,2.37
	C262.73,285.62,269.2,282.4,272.02,275.01z"/>
<path d="M384.34,432.01c-0.85-2.09-1.53-3.78-2.29-5.65c5.93-1.51,11.93-3.04,18.6-4.75c-0.56,1.04-0.74,2-1.29,2.31
	C394.41,426.68,389.4,429.31,384.34,432.01z"/>
<path d="M384.37,437.7c-0.06-0.72-0.06-1.3-0.17-1.87c-0.39-2.13,0.16-3.44,2.42-4.38c3.37-1.41,6.52-3.37,9.75-5.1
	c0.7-0.38,1.39-0.78,2.13-1.19C398.98,427.78,389.49,436.17,384.37,437.7z"/>
<path d="M400.22,427.4c-3.59,7.46-10.31,11.78-16.98,16.15c-0.19-0.1-0.39-0.19-0.58-0.29c0.61-1.28,0.89-2.98,1.89-3.78
	C389.68,435.33,394.99,431.4,400.22,427.4z"/>
<path d="M408.2,345.61c3.41-0.11,9.56,4.24,10.47,7.46c0.5,1.77-0.86,1.91-2.04,2.1c-3.12,0.49-6.26,0.9-9.37,1.46
	c-1.44,0.26-2.83,0.79-4.24,1.2c-2.7,0.78-4.3-0.59-4.05-3.47C399.33,350.16,403.99,345.74,408.2,345.61z M401.56,353.72
	c-0.16,1.3,0.23,2.31,1.89,2.04c3.25-0.52,6.5-1.08,9.73-1.71c1.67-0.33,2.1-1.44,1.47-2.98c-1.05-2.59-4.13-4.72-6.37-4.13
	C404.36,347.97,401.46,349.89,401.56,353.72z"/>
<path d="M327.21,377.57c0.51-5.27,3.01-7.95,6.77-8.98c2.96-0.82,7.92,1.65,8.97,4.52c0.48,1.32,0.13,2.28-1.23,2.84
	c-4,1.63-7.99,3.29-12,4.92c-1.03,0.42-1.92,0.3-2.18-0.99C327.38,379.12,327.32,378.34,327.21,377.57z M330.78,378.98
	c3.31-1.2,6.2-2.03,8.88-3.31c2.04-0.97,2.01-2.75,0.2-4.18c-2.24-1.77-4.8-1.9-7.25-0.72c-2.3,1.12-3.3,3.32-3.26,5.82
	C329.36,377.32,330.18,378.03,330.78,378.98z"/>
<path d="M327.17,507.25c-2.78,2.24-5.81,4.23-8.29,6.77c-3.27,3.34-5.38,7.51-6.92,11.94c-0.22,0.64-0.55,1.25-0.82,1.88
	c-0.21-0.01-0.42-0.02-0.64-0.04c-0.17-0.78-0.51-1.57-0.49-2.35c0.13-4.82,1.55-9.36,4.28-13.25c3.16-4.49,6.78-8.66,10.26-12.92
	c0.5-0.61,1.3-0.98,1.93-1.43c0.49,2.75,0.98,5.22,1.31,7.71c0.07,0.54-0.44,1.16-0.69,1.74L327.17,507.25z"/>
<path d="M327.12,507.31c0.63,0.15,1.51,0.09,1.83,0.48c0.96,1.19,1.7,2.57,2.68,4.12c-7.82,5.31-14.97,11.45-19.2,20.35
	c-0.25-0.09-0.49-0.19-0.74-0.28c0.24-1.34,0.37-2.72,0.75-4.02c2.34-7.97,6.77-14.51,13.54-19.4c0.47-0.34,0.79-0.87,1.19-1.31
	C327.17,507.25,327.12,507.31,327.12,507.31z"/>
<path d="M313.26,532.63c1.51-2.45,2.65-5.25,4.6-7.28c4.06-4.21,8.55-8.02,12.86-11.99c0.96-0.88,1.84-0.83,2.93-0.07
	c1.72,1.21,3.57,2.22,5.89,3.64c-10.26,3.28-18.49,8.81-25.47,16.28C313.8,533.02,313.53,532.83,313.26,532.63z"/>
<path d="M171.29,461.63c4.66-1.79,9.32-2.62,14.11-2.66c0.4,0,1.2,1.32,1.14,1.97c-0.22,2.52-2.54,4.58-5.67,5.06
	C177.8,466.47,173.22,465.57,171.29,461.63z M184.07,462.14c-0.67-0.59-1.1-1.25-1.43-1.21c-0.51,0.07-0.95,0.63-1.42,0.98
	c0.36,0.46,0.66,1.24,1.08,1.3C182.73,463.28,183.27,462.66,184.07,462.14z"/>
<path d="M248.82,439.56c3.49-1.43,6.52-2.72,9.6-3.87c0.45-0.17,1.5,0.21,1.69,0.61c0.65,1.41-0.62,4.97-1.95,6.02
	c-1.71,1.35-4.88,1.81-6.39,0.65C250.72,442.16,249.99,440.94,248.82,439.56z M258.96,438.89c-0.67-0.55-1.04-0.86-1.42-1.17
	c-0.58,0.76-1.23,1.48-1.68,2.31c-0.1,0.18,0.56,0.76,0.87,1.15C257.39,440.51,258.05,439.83,258.96,438.89z"/>
<path class="st0" d="M270.14,274.3c-4.23,5.57-10.48,7.85-16.45,10.7c-1.06-1.42-2-2.68-3.2-4.28
	C257.7,279.8,264.09,277.61,270.14,274.3z"/>
<path class="st0" d="M272.02,275.01c-2.82,7.39-9.29,10.61-15.98,13.86c-0.63-0.75-1.23-1.45-2.02-2.37
	C260.52,283.15,267.46,280.89,272.02,275.01z"/>
<path class="st0" d="M401.56,353.72c-0.1-3.83,2.8-5.76,6.72-6.78c2.24-0.59,5.32,1.54,6.37,4.13c0.63,1.54,0.2,2.66-1.47,2.98
	c-3.23,0.63-6.48,1.19-9.73,1.71C401.79,356.03,401.4,355.02,401.56,353.72z M413.9,352.78c-1.39-3.86-3.96-5.45-6.79-4.51
	c-3.62,1.2-4.96,3.31-4.08,6.73C406.63,354.27,410.24,353.53,413.9,352.78z"/>
<path class="st0" d="M330.78,378.98c-0.6-0.95-1.42-1.66-1.43-2.38c-0.04-2.5,0.96-4.71,3.26-5.82c2.45-1.19,5.01-1.05,7.25,0.72
	c1.81,1.42,1.84,3.2-0.2,4.18C336.99,376.95,334.09,377.78,330.78,378.98z M331.65,372.28c-0.53,1.88-0.94,3.33-1.54,5.47
	c2.83-0.78,4.97-1.2,6.96-2c1.05-0.42,2.58-1.5,2.59-2.31c0.03-1.91-1.83-2.46-3.45-2.63c-0.93-0.09-1.92,0.37-2.56,0.51
	c0.07,0.87,0.25,1.42,0.11,1.88c-0.1,0.31-0.64,0.48-0.98,0.72C332.53,373.56,332.27,373.19,331.65,372.28z"/>
<path class="st0" d="M184.07,462.14c-0.8,0.52-1.34,1.14-1.77,1.08c-0.42-0.07-0.73-0.84-1.08-1.3c0.47-0.35,0.91-0.91,1.42-0.98
	C182.97,460.89,183.4,461.55,184.07,462.14z"/>
<path class="st0" d="M258.96,438.89c-0.91,0.93-1.57,1.62-2.23,2.3c-0.31-0.4-0.97-0.98-0.87-1.15c0.45-0.83,1.1-1.55,1.68-2.31
	C257.91,438.04,258.29,438.35,258.96,438.89z"/>
<path d="M413.9,352.78c-3.66,0.75-7.27,1.49-10.87,2.22c-0.88-3.43,0.46-5.53,4.08-6.73C409.94,347.33,412.51,348.93,413.9,352.78z
	 M405.31,351.53c0.8,1.87,1.61,2.42,2.79,1.55c0.36-0.27,0.36-1.02,0.52-1.55C407.63,351.53,406.64,351.53,405.31,351.53z"/>
<path d="M331.65,372.28c0.62,0.91,0.87,1.28,1.13,1.65c0.34-0.23,0.88-0.41,0.98-0.72c0.14-0.46-0.04-1.01-0.11-1.88
	c0.64-0.14,1.63-0.6,2.56-0.51c1.62,0.16,3.48,0.71,3.45,2.63c-0.01,0.8-1.54,1.88-2.59,2.31c-1.99,0.8-4.13,1.22-6.96,2
	C330.72,375.61,331.12,374.16,331.65,372.28z M336.55,371.07c-0.59,0.72-0.91,1.1-1.23,1.49c0.56,0.44,1.06,1.01,1.7,1.26
	c0.23,0.09,0.76-0.55,1.16-0.86C337.71,372.42,337.25,371.88,336.55,371.07z"/>
<path class="st0" d="M405.31,351.53c1.33,0,2.32,0,3.31,0c-0.16,0.53-0.16,1.28-0.52,1.55C406.92,353.95,406.11,353.4,405.31,351.53
	z"/>
<path class="st0" d="M336.55,371.07c0.7,0.82,1.16,1.35,1.62,1.89c-0.39,0.31-0.92,0.96-1.16,0.86c-0.63-0.25-1.14-0.82-1.7-1.26
	C335.63,372.17,335.95,371.78,336.55,371.07z"/>
</svg>
